<svg version="1.1" id="Layer_1" xmlns="http://www.w3.org/2000/svg" xmlns:xlink="http://www.w3.org/1999/xlink" x="0px" y="0px"
	 width="100%" viewBox="0 0 534 534" enable-background="new 0 0 534 534" xml:space="preserve">
<path fill="#47704c00" opacity="1.000000" stroke="none" 
	d="
M305.000000,535.000000 
	C203.356995,535.000000 102.213989,535.000000 1.035493,535.000000 
	C1.035493,357.065308 1.035493,179.130585 1.035493,1.097941 
	C178.893021,1.097941 356.786102,1.097941 534.839600,1.097941 
	C534.839600,178.999878 534.839600,356.999939 534.839600,535.000000 
	C458.463867,535.000000 381.981934,535.000000 305.000000,535.000000 
M165.313736,490.775146 
	C168.021332,491.863251 170.648300,493.542755 173.452133,493.925018 
	C180.887939,494.938751 188.400192,495.391998 196.001526,496.782806 
	C202.588821,513.633118 230.931015,523.029663 249.797379,515.972046 
	C252.406372,515.039062 255.015854,514.107544 257.624298,513.173035 
	C264.244202,510.801239 270.831726,509.961060 277.571198,512.933044 
	C280.526520,514.236267 283.711395,515.018860 287.297668,516.700439 
	C288.114105,516.809326 288.936859,516.883911 289.746063,517.032288 
	C303.311340,519.518860 316.136322,518.584900 327.323486,509.314270 
	C332.798187,504.777466 338.466614,500.474396 344.976166,496.015076 
	C346.960663,496.010620 348.946106,495.963379 350.929443,496.009369 
	C358.383575,496.182159 365.625854,495.474640 372.743988,490.993469 
	C383.758606,485.613495 391.931213,477.425293 393.816528,465.132721 
	C395.229492,455.920380 394.569855,446.390137 394.995850,436.229462 
	C396.602966,427.776306 400.963196,420.897675 407.686859,414.798889 
	C408.469299,414.129150 409.251740,413.459442 410.522644,412.807983 
	C410.818909,412.628326 411.004669,412.369385 411.711090,411.769684 
	C414.820129,409.552460 417.929199,407.335205 421.784973,404.998199 
	C425.870667,403.036987 429.956329,401.075806 434.736237,399.003784 
	C436.156616,398.268066 437.576996,397.532349 439.667969,396.690094 
	C445.664551,392.147034 451.873505,387.855133 457.610260,383.004761 
	C467.356415,374.764526 473.268280,364.400665 474.026489,351.350403 
	C474.953979,335.387634 470.795593,320.093719 468.415192,304.543091 
	C467.301453,297.267456 466.835449,289.701385 467.471954,282.388458 
	C468.847931,266.580048 471.124756,250.850052 473.486786,234.892609 
	C473.824615,234.690521 473.928162,234.403824 473.959778,233.165085 
	C473.917755,231.110580 473.875732,229.056091 473.972229,226.073105 
	C473.649689,213.809326 473.706543,201.519836 472.878418,189.290298 
	C472.272278,180.338760 471.404480,171.218613 469.043091,162.615601 
	C465.430237,149.453171 460.899536,136.486832 455.898376,123.775650 
	C449.798981,108.273270 440.960236,94.170044 429.996124,81.660927 
	C415.162476,64.736954 397.017273,51.816509 376.813354,42.185726 
	C364.476227,36.304867 351.634125,30.890177 338.440918,27.545736 
	C321.232880,23.183540 303.555084,19.934916 285.887207,18.351671 
	C270.776031,16.997536 255.361725,18.175810 240.142822,19.171347 
	C229.911942,19.840595 219.699356,21.716600 209.634491,23.804348 
	C188.381393,28.212868 168.280853,35.778675 149.484299,46.795158 
	C132.491653,56.754398 116.660820,68.056908 104.050957,83.425705 
	C85.973312,105.458611 74.250023,130.708603 67.106979,158.062408 
	C61.575058,179.246536 60.707394,201.024231 61.045994,222.833313 
	C61.067646,224.228180 61.777214,225.612335 62.033398,227.926346 
	C62.044289,232.214691 61.671097,236.545776 62.142628,240.782867 
	C63.272190,250.932907 64.798981,261.038757 65.789185,271.716339 
	C64.070297,274.091888 61.832798,276.248047 60.719601,278.879761 
	C54.981995,292.444122 49.376888,306.069824 44.032135,319.793488 
	C39.761662,330.758698 35.930561,341.895050 31.305275,353.379517 
	C29.258909,360.917969 27.212543,368.456390 25.038984,376.855804 
	C25.081173,383.235748 25.123362,389.615692 25.091026,396.752380 
	C25.422537,397.849091 25.738686,398.950714 26.087826,400.041779 
	C33.141556,422.085022 53.691017,442.104919 81.686150,437.900604 
	C99.208252,435.269104 111.498611,424.968109 119.605629,408.769592 
	C120.016533,408.179413 120.427437,407.589203 121.198128,407.624054 
	C124.717957,409.205322 128.256424,410.746796 131.749939,412.384247 
	C133.556534,413.231018 135.527115,413.965607 137.002304,415.238953 
	C142.238739,419.758972 145.172409,425.221588 144.091904,432.530762 
	C143.539261,436.269043 143.923553,440.145813 143.200546,444.449219 
	C142.914932,451.859894 141.507690,459.439362 142.592041,466.643829 
	C144.480225,479.189148 154.445007,485.204590 165.313736,490.775146 
z"/>
<path fill="#DEE5E9" opacity="1.000000" stroke="none" 
	d="
M143.884399,443.959991 
	C143.923553,440.145813 143.539261,436.269043 144.091904,432.530762 
	C145.172409,425.221588 142.238739,419.758972 137.002304,415.238953 
	C135.527115,413.965607 133.556534,413.231018 131.749939,412.384247 
	C128.256424,410.746796 124.717957,409.205322 121.075912,406.914307 
	C121.914505,399.139191 122.875298,392.073853 123.901413,384.560425 
	C122.590057,376.410431 121.213379,368.708496 119.839066,360.630768 
	C116.350128,351.165344 112.983276,342.025421 109.336441,332.998627 
	C104.635452,321.362610 99.710289,309.817169 95.075684,297.908386 
	C96.149147,295.635223 97.622490,293.742950 97.814285,291.728638 
	C99.372154,275.367340 103.202545,259.572662 109.077286,244.251556 
	C126.656319,198.406097 156.679413,163.807510 201.459015,142.817413 
	C232.943756,128.059174 265.964661,124.557281 299.901398,131.568680 
	C341.521179,140.167465 374.661255,162.639160 399.999329,196.252472 
	C429.799347,235.785080 441.867645,280.692566 438.118866,330.031342 
	C436.757996,347.942139 433.128265,365.285431 427.074066,382.131317 
	C422.951050,393.603516 418.700714,405.078430 407.586243,412.084595 
	C406.769196,412.599640 406.514801,414.007324 405.637817,415.030579 
	C400.692719,416.980225 392.588654,430.046539 393.220886,434.741638 
	C393.330109,435.552551 394.274414,436.251038 394.833008,437.001434 
	C394.569855,446.390137 395.229492,455.920380 393.816528,465.132721 
	C391.931213,477.425293 383.758606,485.613495 372.440948,490.748535 
	C371.549347,489.714844 371.065460,488.352417 370.356537,488.223114 
	C359.359009,486.216370 355.416840,478.818970 353.825745,468.568298 
	C352.482239,459.912842 350.051605,451.364655 347.375366,443.001587 
	C345.873322,438.307739 341.846436,436.865143 337.739868,438.308319 
	C333.617981,439.756897 332.963745,443.137115 333.562988,446.841583 
	C335.622253,459.572083 337.809631,472.281860 339.597137,485.079834 
	C338.171417,485.602875 337.093933,486.038818 336.022552,486.489258 
	C317.688141,494.198364 298.910156,500.166016 278.603088,500.767395 
	C277.892181,498.743958 277.051941,497.025970 277.001648,495.285187 
	C276.623474,482.187958 276.400818,469.086273 276.517609,455.898071 
	C277.713043,455.609253 278.510345,455.298859 279.329285,455.223175 
	C309.596161,452.425293 335.095428,439.162445 356.664825,418.488464 
	C369.969849,405.735809 379.576324,390.051422 386.815613,373.028198 
	C394.054871,356.005096 397.833282,338.153839 398.828796,319.773987 
	C399.187897,313.143250 400.685120,306.038239 396.068115,299.652893 
	C402.478485,288.660767 404.005341,277.207886 403.135773,264.931976 
	C401.732300,245.119736 389.169617,226.409927 366.838013,223.025909 
	C362.230347,217.298767 358.155029,211.407928 353.012268,206.677505 
	C325.433014,181.309509 293.062256,169.193817 255.409882,172.972946 
	C222.633606,176.262665 195.771729,191.383026 173.541229,215.180862 
	C171.397797,217.475433 170.485703,220.920258 168.574799,223.902557 
	C162.596298,225.657547 156.349670,226.241531 151.623596,229.230118 
	C137.233276,238.329956 132.099579,252.885056 131.069473,269.081696 
	C130.369949,280.080444 134.207138,290.098480 138.912079,300.083984 
	C138.149155,302.141296 137.038345,303.873962 137.111389,305.555237 
	C137.623016,317.331940 137.281097,329.287079 139.268234,340.831207 
	C144.673584,372.233002 158.633667,399.561188 182.134048,421.360077 
	C188.996582,427.725708 197.270416,432.649353 205.194504,437.774567 
	C221.726746,448.467468 239.696442,454.920776 259.699310,455.437653 
	C259.540283,461.837433 259.073547,467.796387 259.141052,473.749298 
	C259.308167,488.489929 258.759583,502.999481 249.204300,515.396912 
	C249.109573,515.519836 249.101898,515.709839 249.053574,515.868530 
	C230.931015,523.029663 202.588821,513.633118 196.002747,496.022095 
	C197.162552,489.062073 198.366547,482.870789 199.469238,476.661530 
	C201.210342,466.857208 202.958832,457.053009 204.546036,447.223206 
	C205.131210,443.599121 204.678741,439.981049 200.673035,438.465607 
	C196.541565,436.902557 193.157135,438.318085 190.964386,442.183044 
	C190.163483,443.594727 189.369507,445.093353 189.000671,446.653595 
	C186.683365,456.456268 184.486816,466.287476 181.882889,476.018433 
	C179.897263,475.094666 178.166901,474.425079 176.678635,473.402985 
	C164.469864,465.018158 152.683823,456.147644 143.884399,443.959991 
z"/>
<path fill="#D8E2E6" opacity="1.000000" stroke="none" 
	d="
M62.166763,227.001480 
	C61.777214,225.612335 61.067646,224.228180 61.045994,222.833313 
	C60.707394,201.024231 61.575058,179.246536 67.106979,158.062408 
	C74.250023,130.708603 85.973312,105.458611 104.050957,83.425705 
	C116.660820,68.056908 132.491653,56.754398 149.484299,46.795158 
	C168.280853,35.778675 188.381393,28.212868 209.634491,23.804348 
	C219.699356,21.716600 229.911942,19.840595 240.142822,19.171347 
	C255.361725,18.175810 270.776031,16.997536 285.887207,18.351671 
	C303.555084,19.934916 321.232880,23.183540 338.440918,27.545736 
	C351.634125,30.890177 364.476227,36.304867 376.813354,42.185726 
	C397.017273,51.816509 415.162476,64.736954 429.996124,81.660927 
	C440.960236,94.170044 449.798981,108.273270 455.898376,123.775650 
	C460.899536,136.486832 465.430237,149.453171 469.043091,162.615601 
	C471.404480,171.218613 472.272278,180.338760 472.878418,189.290298 
	C473.706543,201.519836 473.649689,213.809326 473.572510,226.426880 
	C472.133881,224.813797 470.880432,222.927307 470.106232,220.861252 
	C468.944214,217.760223 468.591675,214.282593 467.066864,211.403671 
	C460.777130,199.528351 454.188538,187.811035 447.679626,176.052338 
	C445.838257,172.725754 443.894470,169.455872 442.430054,166.096771 
	C446.681610,166.107849 450.506653,166.348816 454.318512,166.214615 
	C459.171417,166.043747 461.972260,163.230026 462.737579,158.543365 
	C463.419067,154.369568 460.537476,149.792831 456.400482,148.248871 
	C455.007202,147.728851 453.512573,147.444641 452.041992,147.172867 
	C423.733276,141.941620 399.897156,128.527771 380.327118,107.569084 
	C376.772675,103.762421 373.035645,102.014252 367.873352,102.599770 
	C366.215149,101.056694 364.852325,99.447212 363.116486,98.650375 
	C354.651123,94.764404 346.231750,90.710472 337.530029,87.419510 
	C307.150909,75.930229 275.625641,73.997314 243.605682,76.919830 
	C219.601746,79.110718 196.991211,86.200333 175.491486,96.890137 
	C173.210175,98.024429 171.672791,100.654922 169.430237,102.617722 
	C165.801514,104.295181 161.762756,105.215088 159.388702,107.715530 
	C143.597458,124.347527 124.993210,136.381927 103.125359,143.234177 
	C96.963722,145.164917 90.554482,146.291733 84.304222,147.957657 
	C79.278496,149.297180 76.534088,153.345001 76.927208,158.375702 
	C77.295624,163.090317 80.062469,165.698471 85.569397,166.234619 
	C88.028831,166.474060 90.523705,166.349457 92.910278,166.711792 
	C91.450325,169.503082 90.222740,172.063385 88.692146,174.427521 
	C78.634644,189.962250 68.748146,205.563568 64.411591,223.916611 
	C64.141907,225.057983 62.936714,225.978317 62.166763,227.001480 
z"/>
<path fill="#DBE4E8" opacity="1.000000" stroke="none" 
	d="
M62.100082,227.463913 
	C62.936714,225.978317 64.141907,225.057983 64.411591,223.916611 
	C68.748146,205.563568 78.634644,189.962250 88.692146,174.427521 
	C90.222740,172.063385 91.450325,169.503082 93.358810,166.620453 
	C97.531593,165.801620 101.206284,165.623962 104.788963,164.954147 
	C134.905197,159.323593 158.580139,143.866852 175.246841,118.080482 
	C179.962967,110.783829 177.826340,105.416351 169.790268,102.591309 
	C171.672791,100.654922 173.210175,98.024429 175.491486,96.890137 
	C196.991211,86.200333 219.601746,79.110718 243.605682,76.919830 
	C275.625641,73.997314 307.150909,75.930229 337.530029,87.419510 
	C346.231750,90.710472 354.651123,94.764404 363.116486,98.650375 
	C364.852325,99.447212 366.215149,101.056694 367.594482,102.804733 
	C361.460205,107.228546 360.270844,112.162132 364.074829,118.064064 
	C366.050232,121.128967 368.149231,124.141899 370.460480,126.958282 
	C389.043060,149.601959 412.973022,162.543320 441.997650,166.159988 
	C443.894470,169.455872 445.838257,172.725754 447.679626,176.052338 
	C454.188538,187.811035 460.777130,199.528351 467.066864,211.403671 
	C468.591675,214.282593 468.944214,217.760223 470.106232,220.861252 
	C470.880432,222.927307 472.133881,224.813797 473.503296,226.891113 
	C473.875732,229.056091 473.917755,231.110580 473.732117,233.760437 
	C473.318634,234.581360 473.161499,234.825424 473.033081,235.087967 
	C471.124756,250.850052 468.847931,266.580048 467.471954,282.388458 
	C466.835449,289.701385 467.301453,297.267456 468.415192,304.543091 
	C470.795593,320.093719 474.953979,335.387634 474.026489,351.350403 
	C473.268280,364.400665 467.356415,374.764526 457.610260,383.004761 
	C451.873505,387.855133 445.664551,392.147034 439.366516,396.397949 
	C440.020477,394.594025 440.990479,393.091187 441.928497,391.568634 
	C444.164825,387.938599 447.250092,384.567993 448.477783,380.621429 
	C459.178772,346.221649 461.568085,311.163361 455.368622,275.660156 
	C448.788025,237.974487 433.623688,204.157730 408.655670,174.973587 
	C392.394348,155.966370 373.748932,139.813263 351.421387,128.221405 
	C321.530396,112.702774 289.948029,105.575249 256.122772,107.847672 
	C232.842285,109.411674 210.763840,114.936928 189.916855,125.127464 
	C166.010468,136.813522 145.469528,152.955414 128.167007,173.258408 
	C103.780212,201.874176 87.287895,234.181290 81.029800,271.376007 
	C75.836777,268.234314 71.003227,268.484589 66.165443,271.162445 
	C64.798981,261.038757 63.272190,250.932907 62.142628,240.782867 
	C61.671097,236.545776 62.044289,232.214691 62.100082,227.463913 
z"/>
<path fill="#DCE4E8" opacity="1.000000" stroke="none" 
	d="
M434.042023,399.114594 
	C429.956329,401.075806 425.870667,403.036987 421.484009,404.714447 
	C423.392792,400.739471 426.046875,397.240326 427.739166,393.325470 
	C437.760284,370.143494 442.910248,345.792938 443.936005,320.626862 
	C444.803680,299.339905 441.869629,278.420166 435.957275,257.978943 
	C425.887054,223.162842 408.124420,193.068741 381.148926,168.493042 
	C361.731323,150.802826 339.792664,137.831085 314.590424,130.341812 
	C290.277130,123.116714 265.665863,121.070160 240.614304,125.596336 
	C198.930862,133.127487 164.865540,153.650604 137.581299,185.840073 
	C116.218102,211.044006 102.797989,240.046066 95.885704,272.209503 
	C94.530289,278.516388 93.141190,284.816040 91.505547,290.882080 
	C88.466599,284.771637 85.689705,278.898102 83.283241,272.963867 
	C84.592720,271.313843 85.997246,269.833923 86.400177,268.118713 
	C91.496986,246.422485 98.943993,225.661880 110.278526,206.378433 
	C129.390060,173.863983 155.224380,148.205215 188.938812,131.180435 
	C216.908173,117.056740 246.624390,110.739059 278.246124,112.764290 
	C300.225952,114.171997 321.043274,119.325378 340.794983,128.518311 
	C381.088501,147.271927 410.771851,177.410934 430.670105,216.760315 
	C447.701660,250.440735 455.317139,286.373810 453.244843,324.411469 
	C452.294250,341.859894 449.460236,358.789703 444.802246,375.486664 
	C442.814819,382.610748 441.504517,390.207214 435.300812,395.463867 
	C434.456329,396.179382 434.441162,397.873535 434.042023,399.114594 
z"/>
<path fill="#29B5F6" opacity="1.000000" stroke="none" 
	d="
M82.912811,273.024597 
	C85.689705,278.898102 88.466599,284.771637 91.577011,291.236755 
	C92.900909,293.963135 93.891296,296.097900 94.881676,298.232697 
	C99.710289,309.817169 104.635452,321.362610 109.336441,332.998627 
	C112.983276,342.025421 116.350128,351.165344 119.519562,360.720398 
	C115.850052,364.128204 112.502419,367.070618 109.071945,369.622681 
	C106.509285,362.240509 104.467422,355.044586 101.348213,348.350677 
	C99.974640,345.402893 96.410568,343.475891 93.841019,341.085449 
	C92.143265,344.081360 89.430183,346.917725 88.929802,350.101776 
	C87.109993,361.681763 86.030586,373.378082 84.289566,384.923767 
	C82.612885,384.556488 81.308182,384.026367 80.025948,384.076050 
	C62.115883,384.770081 49.807255,375.270081 39.489521,362.020782 
	C37.070198,358.914062 34.438469,355.972809 31.904449,352.955444 
	C35.930561,341.895050 39.761662,330.758698 44.032135,319.793488 
	C49.376888,306.069824 54.981995,292.444122 60.719601,278.879761 
	C61.832798,276.248047 64.070297,274.091888 65.977310,271.439392 
	C71.003227,268.484589 75.836777,268.234314 81.114563,271.554199 
	C82.013870,272.288605 82.463341,272.656616 82.912811,273.024597 
z"/>
<path fill="#DCE4E8" opacity="1.000000" stroke="none" 
	d="
M83.283241,272.963867 
	C82.463341,272.656616 82.013870,272.288605 81.479630,271.742432 
	C87.287895,234.181290 103.780212,201.874176 128.167007,173.258408 
	C145.469528,152.955414 166.010468,136.813522 189.916855,125.127464 
	C210.763840,114.936928 232.842285,109.411674 256.122772,107.847672 
	C289.948029,105.575249 321.530396,112.702774 351.421387,128.221405 
	C373.748932,139.813263 392.394348,155.966370 408.655670,174.973587 
	C433.623688,204.157730 448.788025,237.974487 455.368622,275.660156 
	C461.568085,311.163361 459.178772,346.221649 448.477783,380.621429 
	C447.250092,384.567993 444.164825,387.938599 441.928497,391.568634 
	C440.990479,393.091187 440.020477,394.594025 439.031189,396.451233 
	C437.576996,397.532349 436.156616,398.268066 434.389130,399.059204 
	C434.441162,397.873535 434.456329,396.179382 435.300812,395.463867 
	C441.504517,390.207214 442.814819,382.610748 444.802246,375.486664 
	C449.460236,358.789703 452.294250,341.859894 453.244843,324.411469 
	C455.317139,286.373810 447.701660,250.440735 430.670105,216.760315 
	C410.771851,177.410934 381.088501,147.271927 340.794983,128.518311 
	C321.043274,119.325378 300.225952,114.171997 278.246124,112.764290 
	C246.624390,110.739059 216.908173,117.056740 188.938812,131.180435 
	C155.224380,148.205215 129.390060,173.863983 110.278526,206.378433 
	C98.943993,225.661880 91.496986,246.422485 86.400177,268.118713 
	C85.997246,269.833923 84.592720,271.313843 83.283241,272.963867 
z"/>
<path fill="#DCE4E8" opacity="1.000000" stroke="none" 
	d="
M95.075684,297.908386 
	C93.891296,296.097900 92.900909,293.963135 91.839066,291.473694 
	C93.141190,284.816040 94.530289,278.516388 95.885704,272.209503 
	C102.797989,240.046066 116.218102,211.044006 137.581299,185.840073 
	C164.865540,153.650604 198.930862,133.127487 240.614304,125.596336 
	C265.665863,121.070160 290.277130,123.116714 314.590424,130.341812 
	C339.792664,137.831085 361.731323,150.802826 381.148926,168.493042 
	C408.124420,193.068741 425.887054,223.162842 435.957275,257.978943 
	C441.869629,278.420166 444.803680,299.339905 443.936005,320.626862 
	C442.910248,345.792938 437.760284,370.143494 427.739166,393.325470 
	C426.046875,397.240326 423.392792,400.739471 421.110657,404.774323 
	C417.929199,407.335205 414.820129,409.552460 411.210571,412.011597 
	C410.468170,412.411316 410.242889,412.590057 410.034180,412.789703 
	C409.251740,413.459442 408.469299,414.129150 407.121399,414.909882 
	C406.370209,415.013916 406.184479,415.006958 405.998779,415.000000 
	C406.514801,414.007324 406.769196,412.599640 407.586243,412.084595 
	C418.700714,405.078430 422.951050,393.603516 427.074066,382.131317 
	C433.128265,365.285431 436.757996,347.942139 438.118866,330.031342 
	C441.867645,280.692566 429.799347,235.785080 399.999329,196.252472 
	C374.661255,162.639160 341.521179,140.167465 299.901398,131.568680 
	C265.964661,124.557281 232.943756,128.059174 201.459015,142.817413 
	C156.679413,163.807510 126.656319,198.406097 109.077286,244.251556 
	C103.202545,259.572662 99.372154,275.367340 97.814285,291.728638 
	C97.622490,293.742950 96.149147,295.635223 95.075684,297.908386 
z"/>
<path fill="#249FEE" opacity="1.000000" stroke="none" 
	d="
M123.836098,385.008514 
	C122.875298,392.073853 121.914505,399.139191 120.896027,406.601746 
	C120.427437,407.589203 120.016533,408.179413 118.983948,408.925171 
	C115.862335,410.303192 113.276367,411.377777 110.877220,412.773529 
	C99.777336,419.230896 88.068649,423.380585 75.003059,422.259735 
	C57.585354,420.765472 43.677307,412.342621 31.605671,400.214722 
	C29.834146,398.434906 27.330471,397.383850 25.165552,395.995636 
	C25.123362,389.615692 25.081173,383.235748 25.449093,376.461121 
	C27.340219,377.288513 29.108444,378.287292 30.258610,379.766602 
	C44.388092,397.939545 62.170685,408.548950 86.125877,407.290741 
	C91.939583,415.060913 101.151970,414.572052 105.758492,406.160614 
	C107.792671,402.446228 108.629341,398.076050 110.367409,393.973022 
	C112.696671,392.581726 114.661362,391.210938 116.641487,389.862793 
	C119.032867,388.234711 121.437317,386.625763 123.836098,385.008514 
z"/>
<path fill="#26A8F1" opacity="1.000000" stroke="none" 
	d="
M85.925415,407.009399 
	C62.170685,408.548950 44.388092,397.939545 30.258610,379.766602 
	C29.108444,378.287292 27.340219,377.288513 25.512688,376.030640 
	C27.212543,368.456390 29.258909,360.917969 31.604866,353.167480 
	C34.438469,355.972809 37.070198,358.914062 39.489521,362.020782 
	C49.807255,375.270081 62.115883,384.770081 80.025948,384.076050 
	C81.308182,384.026367 82.612885,384.556488 84.343536,385.342224 
	C85.161758,392.914795 85.543587,399.962097 85.925415,407.009399 
z"/>
<path fill="#8BC0D1" opacity="1.000000" stroke="none" 
	d="
M249.425476,515.920288 
	C249.101898,515.709839 249.109573,515.519836 249.204300,515.396912 
	C258.759583,502.999481 259.308167,488.489929 259.141052,473.749298 
	C259.073547,467.796387 259.540283,461.837433 259.777893,454.980133 
	C259.888885,450.773804 259.747284,447.439728 260.142365,444.170532 
	C260.653595,439.940582 262.926544,437.132965 267.561798,437.027710 
	C272.082001,436.925049 274.833221,439.124969 275.324951,443.626709 
	C275.772858,447.726837 275.875000,451.864716 276.129547,455.985962 
	C276.400818,469.086273 276.623474,482.187958 277.001648,495.285187 
	C277.051941,497.025970 277.892181,498.743958 278.678741,501.120636 
	C281.591278,506.525146 284.191650,511.281525 286.792023,516.037903 
	C283.711395,515.018860 280.526520,514.236267 277.571198,512.933044 
	C270.831726,509.961060 264.244202,510.801239 257.624298,513.173035 
	C255.015854,514.107544 252.406372,515.039062 249.425476,515.920288 
z"/>
<path fill="#2299EB" opacity="1.000000" stroke="none" 
	d="
M25.128290,396.374023 
	C27.330471,397.383850 29.834146,398.434906 31.605671,400.214722 
	C43.677307,412.342621 57.585354,420.765472 75.003059,422.259735 
	C88.068649,423.380585 99.777336,419.230896 110.877220,412.773529 
	C113.276367,411.377777 115.862335,410.303192 118.739304,409.062134 
	C111.498611,424.968109 99.208252,435.269104 81.686150,437.900604 
	C53.691017,442.104919 33.141556,422.085022 26.087826,400.041779 
	C25.738686,398.950714 25.422537,397.849091 25.128290,396.374023 
z"/>
<path fill="#DBE4E8" opacity="1.000000" stroke="none" 
	d="
M287.044861,516.369141 
	C284.191650,511.281525 281.591278,506.525146 278.915222,501.415527 
	C298.910156,500.166016 317.688141,494.198364 336.022552,486.489258 
	C337.093933,486.038818 338.171417,485.602875 339.750854,485.430664 
	C341.519562,489.155945 342.783478,492.610718 344.047363,496.065521 
	C338.466614,500.474396 332.798187,504.777466 327.323486,509.314270 
	C316.136322,518.584900 303.311340,519.518860 289.746063,517.032288 
	C288.936859,516.883911 288.114105,516.809326 287.044861,516.369141 
z"/>
<path fill="#8BBFD1" opacity="1.000000" stroke="none" 
	d="
M182.250366,476.109253 
	C184.486816,466.287476 186.683365,456.456268 189.000671,446.653595 
	C189.369507,445.093353 190.163483,443.594727 190.964386,442.183044 
	C193.157135,438.318085 196.541565,436.902557 200.673035,438.465607 
	C204.678741,439.981049 205.131210,443.599121 204.546036,447.223206 
	C202.958832,457.053009 201.210342,466.857208 199.469238,476.661530 
	C198.366547,482.870789 197.162552,489.062073 195.942993,495.664856 
	C188.400192,495.391998 180.887939,494.938751 173.452133,493.925018 
	C170.648300,493.542755 168.021332,491.863251 165.339203,490.163025 
	C167.039627,488.887726 168.709076,488.210266 170.390503,487.564026 
	C175.965210,485.421387 181.133423,482.864563 182.250366,476.109253 
z"/>
<path fill="#8BC0D1" opacity="1.000000" stroke="none" 
	d="
M344.511780,496.040283 
	C342.783478,492.610718 341.519562,489.155945 340.101929,485.350342 
	C337.809631,472.281860 335.622253,459.572083 333.562988,446.841583 
	C332.963745,443.137115 333.617981,439.756897 337.739868,438.308319 
	C341.846436,436.865143 345.873322,438.307739 347.375366,443.001587 
	C350.051605,451.364655 352.482239,459.912842 353.825745,468.568298 
	C355.416840,478.818970 359.359009,486.216370 370.356537,488.223114 
	C371.065460,488.352417 371.549347,489.714844 372.080841,490.807800 
	C365.625854,495.474640 358.383575,496.182159 350.929443,496.009369 
	C348.946106,495.963379 346.960663,496.010620 344.511780,496.040283 
z"/>
<path fill="#DBE4E8" opacity="1.000000" stroke="none" 
	d="
M181.882889,476.018433 
	C181.133423,482.864563 175.965210,485.421387 170.390503,487.564026 
	C168.709076,488.210266 167.039627,488.887726 165.162949,489.858215 
	C154.445007,485.204590 144.480225,479.189148 142.592041,466.643829 
	C141.507690,459.439362 142.914932,451.859894 143.542480,444.204590 
	C152.683823,456.147644 164.469864,465.018158 176.678635,473.402985 
	C178.166901,474.425079 179.897263,475.094666 181.882889,476.018433 
z"/>
<path fill="#DCE4E8" opacity="1.000000" stroke="none" 
	d="
M405.637817,415.030579 
	C406.184479,415.006958 406.370209,415.013916 406.834473,415.031708 
	C400.963196,420.897675 396.602966,427.776306 394.914429,436.615448 
	C394.274414,436.251038 393.330109,435.552551 393.220886,434.741638 
	C392.588654,430.046539 400.692719,416.980225 405.637817,415.030579 
z"/>
<path fill="#D8E2E6" opacity="1.000000" stroke="none" 
	d="
M473.259949,234.990295 
	C473.161499,234.825424 473.318634,234.581360 473.650940,234.194138 
	C473.928162,234.403824 473.824615,234.690521 473.259949,234.990295 
z"/>
<path fill="#DEE5E9" opacity="1.000000" stroke="none" 
	d="
M410.278412,412.798828 
	C410.242889,412.590057 410.468170,412.411316 410.894958,412.142334 
	C411.004669,412.369385 410.818909,412.628326 410.278412,412.798828 
z"/>
<path fill="#E1E7EA" opacity="1.000000" stroke="none" 
	d="
M276.517609,455.898071 
	C275.875000,451.864716 275.772858,447.726837 275.324951,443.626709 
	C274.833221,439.124969 272.082001,436.925049 267.561798,437.027710 
	C262.926544,437.132965 260.653595,439.940582 260.142365,444.170532 
	C259.747284,447.439728 259.888885,450.773804 259.713318,454.536560 
	C239.696442,454.920776 221.726746,448.467468 205.194504,437.774567 
	C197.270416,432.649353 188.996582,427.725708 182.134048,421.360077 
	C158.633667,399.561188 144.673584,372.233002 139.268234,340.831207 
	C137.281097,329.287079 137.623016,317.331940 137.111389,305.555237 
	C137.038345,303.873962 138.149155,302.141296 139.203003,300.266052 
	C153.848083,320.023804 178.434601,323.915527 196.131424,308.872253 
	C205.770767,300.678223 210.127243,289.742798 211.601227,277.435913 
	C214.513840,253.117355 201.664566,222.399048 169.001999,223.831116 
	C170.485703,220.920258 171.397797,217.475433 173.541229,215.180862 
	C195.771729,191.383026 222.633606,176.262665 255.409882,172.972946 
	C293.062256,169.193817 325.433014,181.309509 353.012268,206.677505 
	C358.155029,211.407928 362.230347,217.298767 366.412811,223.076157 
	C349.420990,223.080093 336.894257,230.303680 329.511780,244.917038 
	C320.625183,262.507751 320.902924,280.639343 330.302002,298.036407 
	C338.627991,313.447296 355.553436,320.710999 372.179779,316.929596 
	C382.467072,314.589874 389.853088,308.168823 395.995514,299.998627 
	C400.685120,306.038239 399.187897,313.143250 398.828796,319.773987 
	C397.833282,338.153839 394.054871,356.005096 386.815613,373.028198 
	C379.576324,390.051422 369.969849,405.735809 356.664825,418.488464 
	C335.095428,439.162445 309.596161,452.425293 279.329285,455.223175 
	C278.510345,455.298859 277.713043,455.609253 276.517609,455.898071 
M293.780273,328.810303 
	C290.233765,322.066925 287.317657,314.887085 283.012726,308.668793 
	C273.326538,294.677490 262.447205,294.793732 252.365982,308.522247 
	C245.186020,318.299866 240.978531,329.466705 237.761795,341.059875 
	C234.942383,351.221100 232.932632,361.439087 234.942413,372.037048 
	C236.888885,382.301178 243.307419,386.445282 252.988022,382.946075 
	C258.216888,381.056030 263.023315,377.997162 267.902893,375.525085 
	C272.231049,377.622528 276.542938,380.218719 281.191437,381.863586 
	C292.248444,385.776093 299.421021,381.122375 300.904358,369.483063 
	C301.113953,367.838501 301.118011,366.164673 301.164703,364.502899 
	C301.507599,352.295685 297.987823,340.878510 293.780273,328.810303 
z"/>
<path fill="#434343" opacity="1.000000" stroke="none" 
	d="
M168.574799,223.902557 
	C201.664566,222.399048 214.513840,253.117355 211.601227,277.435913 
	C210.127243,289.742798 205.770767,300.678223 196.131424,308.872253 
	C178.434601,323.915527 153.848083,320.023804 139.403000,299.917664 
	C134.207138,290.098480 130.369949,280.080444 131.069473,269.081696 
	C132.099579,252.885056 137.233276,238.329956 151.623596,229.230118 
	C156.349670,226.241531 162.596298,225.657547 168.574799,223.902557 
z"/>
<path fill="#434343" opacity="1.000000" stroke="none" 
	d="
M396.068115,299.652893 
	C389.853088,308.168823 382.467072,314.589874 372.179779,316.929596 
	C355.553436,320.710999 338.627991,313.447296 330.302002,298.036407 
	C320.902924,280.639343 320.625183,262.507751 329.511780,244.917038 
	C336.894257,230.303680 349.420990,223.080093 366.452515,223.447998 
	C389.169617,226.409927 401.732300,245.119736 403.135773,264.931976 
	C404.005341,277.207886 402.478485,288.660767 396.068115,299.652893 
z"/>
<path fill="#27AAF1" opacity="1.000000" stroke="none" 
	d="
M123.901421,384.560425 
	C121.437317,386.625763 119.032867,388.234711 116.641487,389.862793 
	C114.661362,391.210938 112.696671,392.581726 110.353058,393.504181 
	C109.705574,385.381592 109.430176,377.697327 109.154785,370.013031 
	C112.502419,367.070618 115.850052,364.128204 119.517197,361.096191 
	C121.213379,368.708496 122.590057,376.410431 123.901421,384.560425 
z"/>
<path fill="#444444" opacity="1.000000" stroke="none" 
	d="
M169.430237,102.617722 
	C177.826340,105.416351 179.962967,110.783829 175.246841,118.080482 
	C158.580139,143.866852 134.905197,159.323593 104.788963,164.954147 
	C101.206284,165.623962 97.531593,165.801620 93.451019,166.298737 
	C90.523705,166.349457 88.028831,166.474060 85.569397,166.234619 
	C80.062469,165.698471 77.295624,163.090317 76.927208,158.375702 
	C76.534088,153.345001 79.278496,149.297180 84.304222,147.957657 
	C90.554482,146.291733 96.963722,145.164917 103.125359,143.234177 
	C124.993210,136.381927 143.597458,124.347527 159.388702,107.715530 
	C161.762756,105.215088 165.801514,104.295181 169.430237,102.617722 
z"/>
<path fill="#444444" opacity="1.000000" stroke="none" 
	d="
M442.430054,166.096771 
	C412.973022,162.543320 389.043060,149.601959 370.460480,126.958282 
	C368.149231,124.141899 366.050232,121.128967 364.074829,118.064064 
	C360.270844,112.162132 361.460205,107.228546 367.717896,103.112915 
	C373.035645,102.014252 376.772675,103.762421 380.327118,107.569084 
	C399.897156,128.527771 423.733276,141.941620 452.041992,147.172867 
	C453.512573,147.444641 455.007202,147.728851 456.400482,148.248871 
	C460.537476,149.792831 463.419067,154.369568 462.737579,158.543365 
	C461.972260,163.230026 459.171417,166.043747 454.318512,166.214615 
	C450.506653,166.348816 446.681610,166.107849 442.430054,166.096771 
z"/>
<path fill="#80D3FA" opacity="1.000000" stroke="none" 
	d="
M109.071938,369.622681 
	C109.430176,377.697327 109.705574,385.381592 109.995323,393.534729 
	C108.629341,398.076050 107.792671,402.446228 105.758492,406.160614 
	C101.151970,414.572052 91.939583,415.060913 86.125877,407.290741 
	C85.543587,399.962097 85.161758,392.914795 84.725967,385.449036 
	C86.030586,373.378082 87.109993,361.681763 88.929802,350.101776 
	C89.430183,346.917725 92.143265,344.081360 93.841019,341.085449 
	C96.410568,343.475891 99.974640,345.402893 101.348213,348.350677 
	C104.467422,355.044586 106.509285,362.240509 109.071938,369.622681 
z"/>
<path fill="#434343" opacity="1.000000" stroke="none" 
	d="
M293.887146,329.184998 
	C297.987823,340.878510 301.507599,352.295685 301.164703,364.502899 
	C301.118011,366.164673 301.113953,367.838501 300.904358,369.483063 
	C299.421021,381.122375 292.248444,385.776093 281.191437,381.863586 
	C276.542938,380.218719 272.231049,377.622528 267.902893,375.525085 
	C263.023315,377.997162 258.216888,381.056030 252.988022,382.946075 
	C243.307419,386.445282 236.888885,382.301178 234.942413,372.037048 
	C232.932632,361.439087 234.942383,351.221100 237.761795,341.059875 
	C240.978531,329.466705 245.186020,318.299866 252.365982,308.522247 
	C262.447205,294.793732 273.326538,294.677490 283.012726,308.668793 
	C287.317657,314.887085 290.233765,322.066925 293.887146,329.184998 
z"/>
</svg>