<svg version="1.1" id="Layer_1" xmlns="http://www.w3.org/2000/svg" xmlns:xlink="http://www.w3.org/1999/xlink" x="0px" y="0px"
	 width="100%" viewBox="0 0 534 534" enable-background="new 0 0 534 534" xml:space="preserve">
<path fill="#47704c00" opacity="1.000000" stroke="none" 
	d="
M1.000000,209.000000 
	C1.000000,139.349518 1.000000,70.199036 1.000000,1.024278 
	C178.942154,1.024278 356.884308,1.024278 534.913208,1.024278 
	C534.913208,178.900482 534.913208,356.800995 534.913208,534.850769 
	C357.000092,534.850769 179.000061,534.850769 1.000000,534.850769 
	C1.000000,426.449066 1.000000,317.974518 1.000000,209.000000 
M475.012360,214.009521 
	C475.012360,214.009521 474.994873,213.949783 474.284637,214.148026 
	C470.208099,216.962250 469.939667,221.041138 473.481140,226.357391 
	C476.404541,230.745880 478.324524,231.069122 483.695679,227.509232 
	C486.419647,220.803482 482.834717,213.998871 475.525299,213.132050 
	C475.333557,213.425262 475.141846,213.718491 475.012360,214.009521 
M76.396202,108.627319 
	C69.606445,107.684258 64.345497,112.897041 66.090813,119.749077 
	C69.573975,123.226372 73.010986,122.816475 77.323120,118.409477 
	C80.976761,114.675476 80.912140,112.696907 76.396202,108.627319 
M324.495605,116.767731 
	C327.252411,122.513550 330.009216,128.259369 332.071533,133.974564 
	C322.013672,127.518173 310.843811,123.982513 299.159576,122.337700 
	C294.537170,121.686996 289.679993,122.704224 284.085999,123.007339 
	C281.406952,123.398796 278.727936,123.790245 275.256653,124.068581 
	C258.786469,127.887825 244.507248,135.303467 233.733368,148.540787 
	C226.953690,136.314621 220.175323,124.087730 213.393448,111.862785 
	C211.641968,108.705605 210.327209,104.333359 205.726990,105.369072 
	C200.904663,106.454788 201.944962,111.110001 202.060760,114.587036 
	C202.586288,130.369049 203.329391,146.143814 203.236343,161.769318 
	C196.048782,160.934067 188.722305,158.821716 181.708557,159.584564 
	C172.798996,160.553619 164.143051,163.854385 154.697998,165.832230 
	C140.046600,160.454147 125.597710,154.404724 110.681328,149.905060 
	C98.181999,146.134521 85.152245,145.475418 72.272888,149.417511 
	C57.078243,154.068283 50.021088,167.060699 51.357178,180.714249 
	C52.938324,196.872009 60.362217,210.862732 69.498230,223.990585 
	C73.942734,230.377045 78.485298,236.695267 82.293320,242.873154 
	C77.917809,240.507416 73.590912,238.045685 69.154907,235.799393 
	C63.130310,232.748688 61.057495,234.093719 61.009472,240.922562 
	C60.979118,245.238892 61.003803,249.555588 61.003803,254.150604 
	C59.967850,253.721573 59.043663,253.414307 58.189137,252.972351 
	C53.623249,250.611008 49.115238,248.134125 44.508057,245.857346 
	C40.483364,243.868423 37.781525,245.858185 35.924126,249.298172 
	C34.024517,252.816330 35.381218,255.136093 38.785347,256.938141 
	C47.875740,261.750366 56.802654,266.872803 65.916611,271.638519 
	C71.652122,274.637665 74.879539,272.620331 74.978157,266.286041 
	C75.051544,261.571960 74.992615,256.855835 74.992615,250.851395 
	C79.530830,253.388214 82.784943,255.207245 86.039581,257.957520 
	C86.746666,266.598145 87.453743,275.238800 87.416832,284.067535 
	C73.336243,289.250793 59.461277,294.759125 48.000896,304.958740 
	C40.557892,311.582947 38.158928,321.678589 44.127350,329.515411 
	C47.663013,334.157898 53.199421,337.750610 58.525829,340.459076 
	C70.498314,346.546936 83.879295,346.710114 97.082588,348.785980 
	C102.566315,367.571625 109.868660,374.543365 125.449890,376.855011 
	C124.640450,380.891144 123.831009,384.927307 122.101845,389.054413 
	C120.275375,389.060028 118.448235,389.035645 116.622536,389.076080 
	C103.186539,389.373657 92.979469,396.482758 87.442909,409.483337 
	C84.856628,415.945496 83.881638,422.367859 86.614594,429.172455 
	C87.566917,431.543518 87.641281,434.567352 87.208183,437.140106 
	C85.735893,445.885925 85.999863,454.277496 91.548073,461.624451 
	C93.787483,464.589874 96.762283,467.000000 98.700256,469.995514 
	C94.861015,471.885834 91.132294,474.059753 87.159645,475.607697 
	C78.758896,478.881104 70.229332,481.823669 61.755344,484.909454 
	C55.996342,487.006561 55.104977,489.062408 57.557728,494.539490 
	C60.828110,501.842377 69.356102,505.842957 77.461105,503.449463 
	C90.323418,499.651031 100.985275,491.910400 111.574989,484.016968 
	C117.003334,479.970734 119.825989,474.839386 120.649956,467.930603 
	C121.725822,467.908112 122.996857,467.497620 123.846436,467.924988 
	C130.206696,471.124298 136.937134,472.311188 144.296814,472.730743 
	C144.821320,473.116364 145.292786,473.704346 145.878159,473.857727 
	C157.980560,477.028961 167.860931,472.542908 176.724289,464.752167 
	C180.017593,461.857391 182.446594,458.600220 180.757675,453.941406 
	C182.476593,454.390259 184.195496,454.839142 185.773361,455.948547 
	C180.973862,464.457458 176.186478,472.973267 171.369385,481.472198 
	C169.224182,485.257019 169.884796,488.949310 173.151367,491.052032 
	C176.663818,493.313019 180.588776,492.454071 183.052368,488.824585 
	C183.795242,487.730133 184.374680,486.525543 185.042725,485.379425 
	C190.379883,476.222870 195.720352,467.068237 201.989105,457.927551 
	C222.642853,459.289276 241.646332,454.376373 259.186462,443.710876 
	C260.787476,452.722473 262.375397,461.736450 263.992920,470.745087 
	C265.934692,481.559570 267.738892,492.404144 270.023041,503.146301 
	C270.390167,504.872742 272.815033,507.063507 274.536530,507.310303 
	C275.876465,507.502411 277.899994,505.223175 279.061218,503.634186 
	C279.981750,502.374481 280.104095,500.507812 280.497772,498.890411 
	C284.397186,482.870178 288.279236,466.845734 292.973175,450.866364 
	C301.444519,452.192474 309.884094,454.312042 318.394867,454.652466 
	C330.175842,455.123779 341.716522,452.559143 353.270081,449.489136 
	C358.537323,458.508911 363.786438,467.539337 369.077179,476.545319 
	C374.037201,484.988403 378.979858,493.442810 384.056030,501.815918 
	C386.092773,505.175507 389.065125,506.673676 392.908051,504.714600 
	C396.443237,502.912384 397.685944,499.117035 395.708008,495.470551 
	C386.213104,477.966187 376.611786,460.519531 367.614685,442.686066 
	C369.706451,441.412781 371.798218,440.139496 374.364502,439.360168 
	C386.654846,449.712982 400.020538,458.423706 414.567261,465.243286 
	C423.566895,469.462341 432.947754,472.140839 443.089447,470.978058 
	C452.199799,469.933502 457.708954,463.793884 458.051331,454.702026 
	C458.387848,445.767090 454.783875,438.062744 450.668793,430.657623 
	C440.682281,412.686707 428.080841,396.565277 414.676331,381.032349 
	C411.807526,377.708008 409.560730,373.846893 407.832458,370.016724 
	C425.886993,367.050171 440.822998,358.791595 452.519867,343.960571 
	C455.774536,343.579803 456.044281,344.647217 454.344513,347.233154 
	C451.058441,352.232361 447.602631,357.182190 444.982483,362.527588 
	C443.867676,364.801910 443.647064,368.718170 444.922058,370.598694 
	C446.044006,372.253540 449.879181,372.848175 452.408966,372.635620 
	C463.974579,371.663849 475.504120,370.257751 487.043427,368.979095 
	C496.113098,367.974091 505.184875,366.982544 514.242493,365.876617 
	C519.041870,365.290649 519.277161,361.775146 518.883911,358.030975 
	C518.491577,354.295746 516.095276,352.795197 512.656311,353.129639 
	C501.757751,354.189545 490.878876,355.450714 479.984039,356.551239 
	C474.874969,357.067383 469.746735,357.393829 463.591675,357.889648 
	C467.268433,348.409027 470.419434,340.284027 474.036896,330.956299 
	C468.334198,330.956299 463.597717,330.956299 459.012604,330.211517 
	C460.692505,321.151917 462.372406,312.092346 464.812561,302.854767 
	C477.305664,300.359650 489.585175,297.289062 499.530792,288.634369 
	C510.886078,278.752930 511.249115,263.228851 499.287170,255.957108 
	C491.987854,251.519791 484.095367,247.168594 475.894623,245.298035 
	C461.038391,241.909424 445.752686,240.403763 430.039978,237.802261 
	C424.490326,235.681519 418.940674,233.560776 414.471558,231.852951 
	C415.436523,225.881927 416.318268,220.425888 417.704895,214.572708 
	C424.217285,208.136246 430.748688,201.718857 437.237335,195.258545 
	C445.378693,187.152802 453.529724,179.055496 461.549591,170.830719 
	C462.547882,169.806900 462.770569,168.026871 463.352631,166.597244 
	C461.856689,166.336288 460.289062,165.654037 458.878357,165.894043 
	C454.783478,166.590683 450.763336,167.713852 446.691559,168.562836 
	C442.614807,169.412903 438.511139,170.134109 433.271027,171.130035 
	C434.859070,168.294617 435.595367,166.624176 436.638519,165.174576 
	C443.927795,155.045074 451.269409,144.953156 458.617401,134.866074 
	C462.536011,129.486694 466.611450,124.216209 470.350647,118.716087 
	C471.092224,117.625275 470.623505,115.711647 470.712891,114.177460 
	C469.209625,114.201263 467.651184,113.990280 466.221283,114.326263 
	C465.157104,114.576309 464.252808,115.525055 463.288422,116.179024 
	C437.803955,133.460480 412.320953,150.744034 386.099701,167.950882 
	C380.392944,166.912689 374.686188,165.874496 369.063934,164.044739 
	C371.111359,151.740250 373.289276,139.454865 375.095032,127.114998 
	C375.452026,124.675446 374.377563,122.026436 373.963257,119.474030 
	C371.670959,120.786064 369.030151,121.726311 367.155426,123.483780 
	C362.566040,127.786125 358.330475,132.465881 353.328644,136.719391 
	C347.867218,127.819748 342.405792,118.920105 336.644104,109.445465 
	C335.390472,107.938293 334.136841,106.431114 332.833771,104.242935 
	C331.567078,102.172966 330.300385,100.103004 328.864349,97.395790 
	C327.741302,95.923851 326.618286,94.451920 325.401001,92.221809 
	C322.428833,87.141212 319.525024,82.019127 316.471619,76.987823 
	C307.354553,61.964958 298.178864,46.977680 288.867065,31.293091 
	C287.849854,27.722521 286.686920,24.185711 285.850098,20.573351 
	C284.641266,15.355084 281.139801,13.509175 276.371765,15.877107 
	C274.740112,16.687424 273.139557,17.597965 271.640503,18.630667 
	C267.047577,21.794722 266.848175,27.622005 271.944916,29.750784 
	C276.211121,31.532650 277.525299,35.069595 280.183258,38.708492 
	C291.462616,58.615334 302.742004,78.522171 314.187836,99.051048 
	C315.189972,100.819298 316.192108,102.587547 317.612671,104.809906 
	C318.782288,106.788437 319.951904,108.766975 321.366455,111.399597 
	C322.311066,112.986153 323.255646,114.572716 324.495605,116.767731 
M55.132084,83.085945 
	C55.233147,82.430122 55.534485,81.727341 55.394016,81.128143 
	C55.091602,79.838112 54.905609,78.110924 54.021248,77.491119 
	C53.252651,76.952438 51.205620,77.280205 50.441803,77.993828 
	C49.825081,78.570023 50.155411,80.306816 50.296803,81.501373 
	C50.411583,82.471077 50.869720,83.400139 51.082661,85.168839 
	C51.726120,91.883041 52.271561,98.609749 53.124283,105.297272 
	C53.244892,106.243172 54.862759,106.998154 55.787621,107.841507 
	C56.519753,106.955635 57.960129,105.992561 57.873302,105.195946 
	C57.095264,98.057518 56.048435,90.948395 55.132084,83.085945 
M515.224121,208.003082 
	C508.978119,206.764938 502.738190,205.494919 496.483612,204.301743 
	C493.248444,203.684586 490.013336,203.241150 490.595093,208.754105 
	C498.955048,210.111221 507.305817,211.466843 516.388611,213.044296 
	C516.996155,213.308731 517.585632,213.734222 518.214905,213.804550 
	C519.584778,213.957657 521.443909,214.488403 522.231689,213.826965 
	C523.111755,213.088028 523.630615,210.939316 523.178040,209.891769 
	C522.791016,208.995926 520.842041,208.657318 519.520752,208.318970 
	C518.417297,208.036407 517.222351,208.111237 515.224121,208.003082 
M54.258476,113.544518 
	C56.471992,125.991241 46.053318,130.232834 38.725426,136.453613 
	C40.989902,140.236481 43.878292,142.543335 47.493851,140.311844 
	C55.987026,135.069962 64.017914,127.007652 57.733841,114.275322 
	C56.809414,113.890656 55.884983,113.505997 54.258476,113.544518 
M483.970917,205.320099 
	C483.909546,204.513412 483.848175,203.706726 483.514984,202.245010 
	C473.479156,201.292862 470.381042,193.789459 467.878052,185.710052 
	C467.734253,185.245865 467.471069,184.789719 467.163788,184.410583 
	C466.234619,183.264038 465.327545,181.334229 464.279175,181.243576 
	C462.970795,181.130402 460.628754,182.288986 460.327576,183.350800 
	C459.620789,185.842529 458.902496,189.071152 459.919006,191.159241 
	C462.113892,195.667862 465.126007,199.867920 468.317871,203.774109 
	C470.949127,206.994186 480.480652,208.069901 483.970917,205.320099 
M362.437805,113.452400 
	C372.676086,119.834892 376.904510,119.826035 384.203796,110.951050 
	C388.246002,106.036293 390.952576,99.582947 392.789001,93.386787 
	C396.486908,80.909851 392.600647,76.526474 379.351624,72.503937 
	C377.148132,72.902229 374.601044,72.722000 372.797333,73.793365 
	C361.674744,80.399963 357.529327,91.203438 356.571686,103.313866 
	C356.284271,106.948608 357.022552,111.490013 362.437805,113.452400 
M124.347160,100.695099 
	C117.882050,97.100838 111.416931,93.506577 103.726883,89.231308 
	C108.841202,87.533516 112.854431,86.540337 116.543404,84.842583 
	C118.580055,83.905251 120.885216,82.040985 121.494041,80.100372 
	C121.837624,79.005211 119.302711,76.324028 117.521606,75.355042 
	C105.109772,68.602600 92.562241,62.099117 80.045029,55.540981 
	C72.384407,51.527359 64.741570,47.476021 57.007072,43.608974 
	C53.822681,42.016857 50.465370,41.729469 48.238857,45.267376 
	C45.826954,49.099850 47.848976,51.890713 50.901093,54.199165 
	C51.821716,54.895477 52.884216,55.416893 53.916805,55.950546 
	C64.848717,61.600277 75.808044,67.197426 86.712402,72.899727 
	C89.990456,74.613937 93.120941,76.610321 97.296188,79.047928 
	C92.419128,80.392456 88.663177,81.092438 85.203758,82.514008 
	C83.288979,83.300842 80.588188,85.257599 80.544022,86.754929 
	C80.485176,88.749245 82.170708,91.694855 83.965462,92.702255 
	C98.892052,101.080696 114.016403,109.106812 128.977417,117.959198 
	C127.855675,120.908432 126.658669,123.831612 125.626991,126.812019 
	C123.026283,134.325226 125.197365,137.164520 132.900726,135.355362 
	C140.694000,133.525070 147.655716,133.750168 153.664948,139.676712 
	C154.238983,140.242874 155.084991,140.532791 155.803574,140.952927 
	C162.561157,144.904037 165.458969,143.859802 165.675873,135.988724 
	C165.922348,127.044533 168.913452,120.770599 176.830948,116.141251 
	C182.540802,112.802719 182.165771,109.005074 175.941376,107.271614 
	C166.867981,104.744736 162.816925,99.585709 162.802872,90.350479 
	C162.799988,88.453987 161.025040,85.737923 159.342026,84.952080 
	C158.198456,84.418106 155.148239,86.126198 154.054932,87.632927 
	C148.177322,95.733078 141.403763,98.400070 131.490936,94.470741 
	C125.557144,92.118660 123.671562,94.692513 124.347160,100.695099 
M456.589478,479.998413 
	C457.673401,482.035217 458.339966,484.520874 459.937042,486.005768 
	C462.465881,488.356995 465.515778,490.214478 468.531921,491.957825 
	C472.208771,494.083099 473.510864,496.833954 472.613892,501.083496 
	C472.006531,503.961029 471.971252,507.058167 472.247681,510.003845 
	C472.932648,517.303101 474.929932,518.227722 480.997650,514.331299 
	C482.812958,513.165588 484.779877,512.047852 486.188934,510.471527 
	C491.117706,504.957733 496.360138,505.060242 502.634857,508.232697 
	C505.644592,509.754456 509.496918,509.609650 512.967651,510.219574 
	C512.747375,506.555115 513.305969,502.618347 512.140442,499.284302 
	C509.887054,492.838470 509.994629,487.462280 515.399292,482.635468 
	C517.082092,481.132660 518.153931,478.893616 519.333252,476.890228 
	C521.778076,472.737061 520.881897,470.715698 516.047791,470.218597 
	C512.257874,469.828918 508.392548,469.828552 504.584381,470.054443 
	C500.405792,470.302307 497.702423,468.829865 495.858521,464.976746 
	C494.362671,461.850891 492.366241,458.917908 490.281860,456.131256 
	C487.100922,451.878632 484.313843,452.210297 482.448517,457.095001 
	C481.149719,460.496155 480.092621,464.044037 479.431641,467.619537 
	C478.721344,471.461914 476.612305,473.131805 472.957214,474.107788 
	C467.553864,475.550568 462.317810,477.619843 456.589478,479.998413 
M407.999329,133.501602 
	C419.790283,115.799133 431.541565,98.070007 443.406677,80.417389 
	C445.687073,77.024719 445.477081,74.186050 442.328430,71.740227 
	C439.153778,69.274200 435.894775,69.169250 433.012634,72.305305 
	C432.012787,73.393242 431.235992,74.691856 430.397949,75.921921 
	C423.948578,85.388214 417.523834,94.871277 411.062744,104.329536 
	C404.321747,114.197510 397.485168,124.000862 390.818878,133.918854 
	C387.864044,138.315063 388.626892,142.206299 392.545471,144.655960 
	C396.178253,146.926971 399.645050,145.897583 402.633331,141.573837 
	C404.333435,139.113937 405.930450,136.582764 407.999329,133.501602 
z"/>
<path fill="#565B57" opacity="1.000000" stroke="none" 
	d="
M430.646271,238.112030 
	C445.752686,240.403763 461.038391,241.909424 475.894623,245.298035 
	C484.095367,247.168594 491.987854,251.519791 499.287170,255.957108 
	C511.249115,263.228851 510.886078,278.752930 499.530792,288.634369 
	C489.585175,297.289062 477.305664,300.359650 464.256470,302.560974 
	C463.538696,300.130646 463.193573,297.989624 463.245697,295.858307 
	C463.538849,283.871429 461.265350,272.473846 455.229370,262.043854 
	C454.221680,260.302551 452.007721,258.169861 450.279999,258.104706 
	C434.525391,257.510468 418.754974,257.334351 402.528534,256.946472 
	C366.693634,257.206421 331.530182,260.390289 295.288727,264.240234 
	C307.438751,275.032837 318.707764,285.042847 330.143188,295.339294 
	C334.857208,299.756714 339.404846,303.887695 344.112793,308.312317 
	C349.943665,313.970398 355.614166,319.334778 361.497101,324.958740 
	C364.729706,328.186127 367.749847,331.153931 370.918579,334.422302 
	C373.292755,336.867004 375.518341,339.011169 377.905334,341.451904 
	C386.086578,350.375488 394.052338,359.054169 402.184875,367.573608 
	C403.397247,368.843658 405.393707,369.365204 407.027405,370.233032 
	C409.560730,373.846893 411.807526,377.708008 414.676331,381.032349 
	C428.080841,396.565277 440.682281,412.686707 450.668793,430.657623 
	C454.783875,438.062744 458.387848,445.767090 458.051331,454.702026 
	C457.708954,463.793884 452.199799,469.933502 443.089447,470.978058 
	C432.947754,472.140839 423.566895,469.462341 414.567261,465.243286 
	C400.020538,458.423706 386.654846,449.712982 374.263550,438.803009 
	C378.425323,434.466705 382.688049,430.687592 387.050903,427.242188 
	C390.084778,430.199951 392.861816,433.029053 395.980072,435.411560 
	C407.937531,444.547821 420.541748,452.612030 435.182739,456.770325 
	C437.850677,457.528046 440.900116,456.942566 443.773438,456.977203 
	C443.314331,454.301361 443.558472,451.212830 442.272766,449.022064 
	C437.061127,440.141510 431.863647,431.177948 425.746307,422.922760 
	C418.346436,412.936829 410.021179,403.636597 402.020386,393.690979 
	C401.699493,392.739532 401.606445,391.991089 401.187897,391.554901 
	C385.616608,375.326996 370.015198,359.127991 354.248779,342.595764 
	C353.347198,341.609589 352.614777,340.952728 351.718811,340.056458 
	C349.026123,337.523285 346.497009,335.229553 343.990265,332.964661 
	C344.012665,332.993530 344.064026,333.045471 343.979401,332.816040 
	C343.689606,332.298431 343.410126,332.151459 342.930878,331.918762 
	C342.386932,331.151581 341.968414,330.611420 341.263336,329.853394 
	C337.023285,326.048126 333.069855,322.460663 328.941376,318.591125 
	C324.181091,314.214020 319.595825,310.119049 314.799194,305.765472 
	C300.551788,293.549011 286.556366,281.542633 272.418671,269.706207 
	C270.962769,268.487305 268.538910,267.469360 266.764648,267.728882 
	C239.176361,271.763641 211.621155,276.024719 183.679260,280.231720 
	C180.871353,280.802795 178.442474,281.375671 175.591919,281.909180 
	C168.439224,283.223969 161.708221,284.578094 154.566086,285.919891 
	C148.431702,287.252808 142.708435,288.598053 136.576111,289.921326 
	C126.771973,292.254761 117.376915,294.610138 107.587555,296.962219 
	C102.832047,298.329102 98.470856,299.699249 93.761971,301.195404 
	C83.240265,305.361450 72.967278,309.177917 62.964973,313.605835 
	C60.597324,314.653961 57.376358,318.069061 57.690716,319.836365 
	C58.121338,322.257294 61.524845,324.175201 63.723526,326.234680 
	C64.176041,326.658508 64.932037,326.760559 65.550690,327.004456 
	C75.942986,331.102234 86.819725,332.057190 97.893784,332.402466 
	C97.597824,337.892212 97.263206,342.961517 96.928581,348.030823 
	C83.879295,346.710114 70.498314,346.546936 58.525829,340.459076 
	C53.199421,337.750610 47.663013,334.157898 44.127350,329.515411 
	C38.158928,321.678589 40.557892,311.582947 48.000896,304.958740 
	C59.461277,294.759125 73.336243,289.250793 88.156029,283.958313 
	C93.276855,282.294739 97.658485,280.740356 102.435745,279.165955 
	C112.542831,276.389252 122.254295,273.632629 132.357178,270.875366 
	C139.164474,269.254852 145.580368,267.635010 152.408722,266.037384 
	C183.737457,260.272461 214.653732,254.485260 246.477737,248.528168 
	C237.122894,241.770340 228.168640,235.301880 219.012360,228.562561 
	C213.862030,224.884537 208.913727,221.477371 203.751450,217.809814 
	C192.608658,210.565170 181.884720,203.229721 170.690887,196.699753 
	C160.388504,190.689804 149.580795,185.546143 138.779953,179.753601 
	C136.310501,178.935349 133.466141,177.249878 131.918686,178.055496 
	C127.974998,180.108643 124.610474,183.274216 120.731827,186.173889 
	C114.648872,192.937759 108.848282,199.522400 102.740280,206.241974 
	C100.660271,209.168701 98.266449,211.748535 97.228241,214.790970 
	C93.713264,225.091431 90.678436,235.555740 87.214546,245.834595 
	C86.305725,245.115433 85.642471,244.519119 84.752121,243.759323 
	C84.003082,243.398636 83.481140,243.201431 82.982132,243.003082 
	C83.005058,243.001938 82.983475,243.044388 82.983475,243.044388 
	C78.485298,236.695267 73.942734,230.377045 69.498230,223.990585 
	C60.362217,210.862732 52.938324,196.872009 51.357178,180.714249 
	C50.021088,167.060699 57.078243,154.068283 72.272888,149.417511 
	C85.152245,145.475418 98.181999,146.134521 110.681328,149.905060 
	C125.597710,154.404724 140.046600,160.454147 155.229218,166.243744 
	C160.217087,168.952957 164.673721,171.250687 169.463867,173.772781 
	C185.192551,183.355423 200.587723,192.713684 216.162323,202.353622 
	C221.033432,205.810135 225.725113,208.985001 230.624329,212.447098 
	C243.980286,222.940079 257.045380,233.257050 270.363617,243.236191 
	C272.452484,244.801361 275.753296,245.647614 278.387299,245.444626 
	C299.622742,243.808273 320.812622,241.553970 342.056793,240.064819 
	C359.315704,238.855011 376.630524,238.441864 394.383240,237.784851 
	C403.342773,238.015930 411.839264,238.165131 420.336456,238.245743 
	C423.772339,238.278336 427.209625,238.161072 430.646271,238.112030 
z"/>
<path fill="#E4E4E4" opacity="1.000000" stroke="none" 
	d="
M215.982880,202.071960 
	C200.587723,192.713684 185.192551,183.355423 170.053482,173.679077 
	C188.517303,172.069061 205.654449,175.975983 221.960464,183.963867 
	C228.829300,187.328735 229.937546,186.904709 232.263092,179.647919 
	C235.787369,168.650635 239.557755,157.585449 247.944122,149.367416 
	C255.009781,142.443588 263.285156,136.765640 270.869141,130.351852 
	C272.889832,128.642929 274.337921,126.256874 276.048889,124.181702 
	C278.727936,123.790245 281.406952,123.398796 284.891663,123.052841 
	C298.516296,126.290611 310.766235,130.644867 321.575348,138.639221 
	C334.829651,148.442047 342.309845,160.760376 340.396851,177.762253 
	C339.884094,182.319290 342.112732,183.820480 346.778198,182.953125 
	C353.273315,181.745560 359.861603,180.068771 366.386719,180.165466 
	C390.886261,180.528534 409.715210,202.855026 397.327454,229.438187 
	C396.073608,232.128845 395.050629,234.927078 393.920532,237.675400 
	C376.630524,238.441864 359.315704,238.855011 342.056793,240.064819 
	C320.812622,241.553970 299.622742,243.808273 278.387299,245.444626 
	C275.753296,245.647614 272.452484,244.801361 270.363617,243.236191 
	C257.045380,233.257050 243.980286,222.940079 231.013855,212.375153 
	C234.099472,210.450912 237.143768,209.095932 239.871964,207.268936 
	C243.483246,204.850525 243.791840,201.895752 240.378525,199.175659 
	C238.322678,197.537369 235.419037,196.385696 232.795181,196.152161 
	C226.437012,195.586197 220.735245,197.676086 215.982880,202.071960 
M286.659241,184.698502 
	C302.829468,187.970779 314.558228,197.187256 323.007874,211.191193 
	C324.423401,213.537216 327.664093,214.781967 330.061462,216.535583 
	C331.645844,213.616394 333.333099,210.745544 334.743317,207.744507 
	C335.102783,206.979584 334.565338,205.803513 334.470764,204.813400 
	C332.696930,186.245377 313.652740,170.187759 294.508453,169.055786 
	C287.700623,168.653259 281.162567,169.901703 275.722595,174.330185 
	C271.641815,177.652161 272.483948,181.766113 277.490601,183.188217 
	C280.178833,183.951767 283.048676,184.075989 286.659241,184.698502 
z"/>
<path fill="#C8C8C8" opacity="1.000000" stroke="none" 
	d="
M354.417877,342.925049 
	C370.015198,359.127991 385.616608,375.326996 401.187897,391.554901 
	C401.606445,391.991089 401.699493,392.739532 401.905273,394.058899 
	C398.821259,406.380829 394.481812,417.385376 386.950806,426.908447 
	C382.688049,430.687592 378.425323,434.466705 374.026245,438.556030 
	C371.798218,440.139496 369.706451,441.412781 366.959778,442.877380 
	C361.849609,445.000031 357.394348,446.931335 352.939056,448.862640 
	C341.716522,452.559143 330.175842,455.123779 318.394867,454.652466 
	C309.884094,454.312042 301.444519,452.192474 292.511475,450.443604 
	C295.296661,435.663849 298.543549,421.306885 302.141724,406.877411 
	C307.284821,403.867096 312.076691,400.929321 317.186340,398.126892 
	C321.764435,401.390289 325.769684,404.968262 330.335968,407.556458 
	C341.179047,413.702454 346.867249,411.825256 353.102112,400.561798 
	C356.587067,396.179016 354.894989,391.822113 352.318848,388.871735 
	C347.374390,383.209015 341.477142,378.378204 336.041260,372.822754 
	C338.195343,365.799072 340.345123,359.173492 342.354218,352.505524 
	C344.463623,345.504669 346.741913,343.627167 354.417877,342.925049 
z"/>
<path fill="#C8C8C8" opacity="1.000000" stroke="none" 
	d="
M97.005585,348.408386 
	C97.263206,342.961517 97.597824,337.892212 97.981476,332.037842 
	C99.576218,328.171417 101.263786,325.149719 102.597961,321.979309 
	C103.133141,320.707550 103.458336,318.831482 102.907585,317.705780 
	C100.152039,312.073669 97.074196,306.599274 94.109665,301.069427 
	C98.470856,299.699249 102.832047,298.329102 107.737335,297.280457 
	C115.322166,313.487244 125.465195,326.923553 140.205475,336.350098 
	C144.756912,339.260773 146.123764,342.532043 146.121735,347.743805 
	C146.114151,367.167297 154.947739,382.559967 169.205109,395.094727 
	C180.803375,405.291687 194.654953,411.355560 209.059174,416.459351 
	C202.191360,428.739868 195.440506,440.694214 188.603409,452.598969 
	C187.994003,453.660095 186.824051,454.399292 185.914429,455.287994 
	C184.195496,454.839142 182.476593,454.390259 180.154800,453.679596 
	C177.685028,452.628357 175.818130,451.838928 173.599182,450.948303 
	C171.841614,450.583008 170.436081,450.318909 169.005310,449.599518 
	C169.800964,438.631165 165.948868,430.409119 157.159744,424.438538 
	C155.919617,423.596100 154.865692,421.955414 154.464752,420.482910 
	C150.516037,405.981049 142.409592,395.174622 127.898117,389.476990 
	C128.410004,384.830353 128.908554,380.609924 129.452286,376.007141 
	C128.300156,376.069489 127.050858,376.137085 125.801559,376.204712 
	C109.868660,374.543365 102.566315,367.571625 97.005585,348.408386 
z"/>
<path fill="#C8C8C8" opacity="1.000000" stroke="none" 
	d="
M407.429932,370.124878 
	C405.393707,369.365204 403.397247,368.843658 402.184875,367.573608 
	C394.052338,359.054169 386.086578,350.375488 378.284363,341.348389 
	C380.550751,340.279877 382.663208,339.760559 384.637329,338.917328 
	C393.542755,335.113586 402.204285,330.951813 407.226257,321.525330 
	C409.328613,320.558899 411.198242,319.834106 413.457031,319.078735 
	C417.458221,318.707916 421.091431,317.946136 424.677277,318.126434 
	C430.020203,318.395050 433.109009,315.081940 431.508423,310.056732 
	C430.905060,308.162445 430.402130,306.162506 429.385529,304.496246 
	C428.538116,303.107300 426.909882,301.093414 425.798889,301.196899 
	C423.518036,301.409332 419.898865,302.402161 419.436676,303.885712 
	C418.426544,307.127777 416.405731,307.382324 413.932373,307.284332 
	C415.152466,296.574005 415.391357,286.281647 411.766754,276.447632 
	C409.317139,269.801575 405.947388,263.494659 402.989197,257.036041 
	C418.754974,257.334351 434.525391,257.510468 450.279999,258.104706 
	C452.007721,258.169861 454.221680,260.302551 455.229370,262.043854 
	C461.265350,272.473846 463.538849,283.871429 463.245697,295.858307 
	C463.193573,297.989624 463.538696,300.130646 463.876343,302.649963 
	C462.372406,312.092346 460.692505,321.151917 458.559570,330.743958 
	C456.151245,331.526978 454.202698,331.899597 452.239563,332.008057 
	C440.630951,332.649292 429.016418,333.183990 417.409546,333.853455 
	C413.178040,334.097565 411.787811,336.985016 411.901947,340.728149 
	C412.025238,344.770081 415.165619,344.251709 417.768799,344.183075 
	C426.570007,343.951111 435.367371,343.556885 444.169342,343.381561 
	C446.750153,343.330139 449.341339,343.800446 451.927765,344.031616 
	C440.822998,358.791595 425.886993,367.050171 407.429932,370.124878 
z"/>
<path fill="#E3E3E3" opacity="1.000000" stroke="none" 
	d="
M127.884789,389.903168 
	C142.409592,395.174622 150.516037,405.981049 154.464752,420.482910 
	C154.865692,421.955414 155.919617,423.596100 157.159744,424.438538 
	C165.948868,430.409119 169.800964,438.631165 168.978409,449.965942 
	C167.533920,453.849121 166.091095,456.910553 164.368378,460.125977 
	C161.382675,462.246735 158.676819,464.213501 155.641449,465.965118 
	C145.639084,464.851624 137.313568,461.522247 131.373840,453.274170 
	C130.803833,452.482635 127.694939,452.667267 126.358315,453.433868 
	C121.663956,456.126221 117.018982,456.825256 112.078575,454.451080 
	C104.809334,450.957764 101.025597,445.354248 100.877914,437.086090 
	C100.819221,433.799835 100.504295,429.594055 98.525955,427.447388 
	C93.508308,422.002747 90.143417,415.924652 88.001808,408.993591 
	C92.979469,396.482758 103.186539,389.373657 116.622536,389.076080 
	C118.448235,389.035645 120.275375,389.060028 122.897614,389.128540 
	C125.090523,389.436188 126.487656,389.669678 127.884789,389.903168 
z"/>
<path fill="#424243" opacity="1.000000" stroke="none" 
	d="
M386.837708,168.027252 
	C412.320953,150.744034 437.803955,133.460480 463.288422,116.179024 
	C464.252808,115.525055 465.157104,114.576309 466.221283,114.326263 
	C467.651184,113.990280 469.209625,114.201263 470.712891,114.177460 
	C470.623505,115.711647 471.092224,117.625275 470.350647,118.716087 
	C466.611450,124.216209 462.536011,129.486694 458.617401,134.866074 
	C451.269409,144.953156 443.927795,155.045074 436.638519,165.174576 
	C435.595367,166.624176 434.859070,168.294617 433.271027,171.130035 
	C438.511139,170.134109 442.614807,169.412903 446.691559,168.562836 
	C450.763336,167.713852 454.783478,166.590683 458.878357,165.894043 
	C460.289062,165.654037 461.856689,166.336288 463.352631,166.597244 
	C462.770569,168.026871 462.547882,169.806900 461.549591,170.830719 
	C453.529724,179.055496 445.378693,187.152802 437.237335,195.258545 
	C430.748688,201.718857 424.217285,208.136246 417.379211,214.345139 
	C416.861450,212.304916 416.817383,210.462067 416.454468,208.684296 
	C412.770142,190.635971 403.468079,176.656265 386.837708,168.027252 
z"/>
<path fill="#434343" opacity="1.000000" stroke="none" 
	d="
M301.790466,406.949951 
	C298.543549,421.306885 295.296661,435.663849 292.108032,450.421631 
	C288.279236,466.845734 284.397186,482.870178 280.497772,498.890411 
	C280.104095,500.507812 279.981750,502.374481 279.061218,503.634186 
	C277.899994,505.223175 275.876465,507.502411 274.536530,507.310303 
	C272.815033,507.063507 270.390167,504.872742 270.023041,503.146301 
	C267.738892,492.404144 265.934692,481.559570 263.992920,470.745087 
	C262.375397,461.736450 260.787476,452.722473 259.169006,442.902344 
	C258.077332,435.389893 257.003052,428.685974 255.974060,421.589172 
	C256.577789,418.658569 253.193069,415.422607 258.569946,413.750916 
	C270.496307,410.042999 282.190979,405.566132 293.894836,401.175446 
	C300.426697,398.725037 302.302063,399.939636 301.790466,406.949951 
z"/>
<path fill="#C8C7C7" opacity="1.000000" stroke="none" 
	d="
M386.468689,167.989059 
	C403.468079,176.656265 412.770142,190.635971 416.454468,208.684296 
	C416.817383,210.462067 416.861450,212.304916 417.126770,214.543701 
	C416.318268,220.425888 415.436523,225.881927 414.471558,231.852951 
	C418.940674,233.560776 424.490326,235.681519 430.343140,237.957138 
	C427.209625,238.161072 423.772339,238.278336 420.336456,238.245743 
	C411.839264,238.165131 403.342773,238.015930 394.383240,237.784851 
	C395.050629,234.927078 396.073608,232.128845 397.327454,229.438187 
	C409.715210,202.855026 390.886261,180.528534 366.386719,180.165466 
	C359.861603,180.068771 353.273315,181.745560 346.778198,182.953125 
	C342.112732,183.820480 339.884094,182.319290 340.396851,177.762253 
	C342.309845,160.760376 334.829651,148.442047 321.575348,138.639221 
	C310.766235,130.644867 298.516296,126.290611 285.313507,123.030167 
	C289.679993,122.704224 294.537170,121.686996 299.159576,122.337700 
	C310.843811,123.982513 322.013672,127.518173 332.564087,134.298889 
	C335.016785,136.502258 336.976990,138.381302 338.996063,140.193024 
	C339.054962,140.125732 338.939301,139.990341 339.001465,140.308807 
	C339.373138,140.926193 339.682678,141.225143 340.029022,141.662796 
	C340.174103,141.978165 340.331573,142.073303 340.717224,142.374069 
	C342.369171,144.634003 343.842163,146.606796 345.538086,148.907471 
	C348.427887,155.056839 351.094788,160.878326 353.627930,166.407761 
	C358.766510,165.881744 363.872986,165.359024 368.979431,164.836304 
	C374.686188,165.874496 380.392944,166.912689 386.468689,167.989059 
z"/>
<path fill="#424242" opacity="1.000000" stroke="none" 
	d="
M456.799988,479.710388 
	C462.317810,477.619843 467.553864,475.550568 472.957214,474.107788 
	C476.612305,473.131805 478.721344,471.461914 479.431641,467.619537 
	C480.092621,464.044037 481.149719,460.496155 482.448517,457.095001 
	C484.313843,452.210297 487.100922,451.878632 490.281860,456.131256 
	C492.366241,458.917908 494.362671,461.850891 495.858521,464.976746 
	C497.702423,468.829865 500.405792,470.302307 504.584381,470.054443 
	C508.392548,469.828552 512.257874,469.828918 516.047791,470.218597 
	C520.881897,470.715698 521.778076,472.737061 519.333252,476.890228 
	C518.153931,478.893616 517.082092,481.132660 515.399292,482.635468 
	C509.994629,487.462280 509.887054,492.838470 512.140442,499.284302 
	C513.305969,502.618347 512.747375,506.555115 512.967651,510.219574 
	C509.496918,509.609650 505.644592,509.754456 502.634857,508.232697 
	C496.360138,505.060242 491.117706,504.957733 486.188934,510.471527 
	C484.779877,512.047852 482.812958,513.165588 480.997650,514.331299 
	C474.929932,518.227722 472.932648,517.303101 472.247681,510.003845 
	C471.971252,507.058167 472.006531,503.961029 472.613892,501.083496 
	C473.510864,496.833954 472.208771,494.083099 468.531921,491.957825 
	C465.515778,490.214478 462.465881,488.356995 459.937042,486.005768 
	C458.339966,484.520874 457.673401,482.035217 456.799988,479.710388 
z"/>
<path fill="#424242" opacity="1.000000" stroke="none" 
	d="
M124.962509,100.986343 
	C123.671562,94.692513 125.557144,92.118660 131.490936,94.470741 
	C141.403763,98.400070 148.177322,95.733078 154.054932,87.632927 
	C155.148239,86.126198 158.198456,84.418106 159.342026,84.952080 
	C161.025040,85.737923 162.799988,88.453987 162.802872,90.350479 
	C162.816925,99.585709 166.867981,104.744736 175.941376,107.271614 
	C182.165771,109.005074 182.540802,112.802719 176.830948,116.141251 
	C168.913452,120.770599 165.922348,127.044533 165.675873,135.988724 
	C165.458969,143.859802 162.561157,144.904037 155.803574,140.952927 
	C155.084991,140.532791 154.238983,140.242874 153.664948,139.676712 
	C147.655716,133.750168 140.694000,133.525070 132.900726,135.355362 
	C125.197365,137.164520 123.026283,134.325226 125.626991,126.812019 
	C126.658669,123.831612 127.855675,120.908432 129.269989,117.287033 
	C128.029190,111.405365 126.495850,106.195854 124.962509,100.986343 
z"/>
<path fill="#787878" opacity="1.000000" stroke="none" 
	d="
M452.223816,343.996094 
	C449.341339,343.800446 446.750153,343.330139 444.169342,343.381561 
	C435.367371,343.556885 426.570007,343.951111 417.768799,344.183075 
	C415.165619,344.251709 412.025238,344.770081 411.901947,340.728149 
	C411.787811,336.985016 413.178040,334.097565 417.409546,333.853455 
	C429.016418,333.183990 440.630951,332.649292 452.239563,332.008057 
	C454.202698,331.899597 456.151245,331.526978 458.483887,331.116364 
	C463.597717,330.956299 468.334198,330.956299 474.036896,330.956299 
	C470.419434,340.284027 467.268433,348.409027 463.591675,357.889648 
	C469.746735,357.393829 474.874969,357.067383 479.984039,356.551239 
	C490.878876,355.450714 501.757751,354.189545 512.656311,353.129639 
	C516.095276,352.795197 518.491577,354.295746 518.883911,358.030975 
	C519.277161,361.775146 519.041870,365.290649 514.242493,365.876617 
	C505.184875,366.982544 496.113098,367.974091 487.043427,368.979095 
	C475.504120,370.257751 463.974579,371.663849 452.408966,372.635620 
	C449.879181,372.848175 446.044006,372.253540 444.922058,370.598694 
	C443.647064,368.718170 443.867676,364.801910 444.982483,362.527588 
	C447.602631,357.182190 451.058441,352.232361 454.344513,347.233154 
	C456.044281,344.647217 455.774536,343.579803 452.223816,343.996094 
z"/>
<path fill="#787878" opacity="1.000000" stroke="none" 
	d="
M124.654831,100.840721 
	C126.495850,106.195854 128.029190,111.405365 129.321777,116.927116 
	C114.016403,109.106812 98.892052,101.080696 83.965462,92.702255 
	C82.170708,91.694855 80.485176,88.749245 80.544022,86.754929 
	C80.588188,85.257599 83.288979,83.300842 85.203758,82.514008 
	C88.663177,81.092438 92.419128,80.392456 97.296188,79.047928 
	C93.120941,76.610321 89.990456,74.613937 86.712402,72.899727 
	C75.808044,67.197426 64.848717,61.600277 53.916805,55.950546 
	C52.884216,55.416893 51.821716,54.895477 50.901093,54.199165 
	C47.848976,51.890713 45.826954,49.099850 48.238857,45.267376 
	C50.465370,41.729469 53.822681,42.016857 57.007072,43.608974 
	C64.741570,47.476021 72.384407,51.527359 80.045029,55.540981 
	C92.562241,62.099117 105.109772,68.602600 117.521606,75.355042 
	C119.302711,76.324028 121.837624,79.005211 121.494041,80.100372 
	C120.885216,82.040985 118.580055,83.905251 116.543404,84.842583 
	C112.854431,86.540337 108.841202,87.533516 103.726883,89.231308 
	C111.416931,93.506577 117.882050,97.100838 124.654831,100.840721 
z"/>
<path fill="#C7C7C7" opacity="1.000000" stroke="none" 
	d="
M275.652771,124.125137 
	C274.337921,126.256874 272.889832,128.642929 270.869141,130.351852 
	C263.285156,136.765640 255.009781,142.443588 247.944122,149.367416 
	C239.557755,157.585449 235.787369,168.650635 232.263092,179.647919 
	C229.937546,186.904709 228.829300,187.328735 221.960464,183.963867 
	C205.654449,175.975983 188.517303,172.069061 169.719971,173.454712 
	C164.673721,171.250687 160.217087,168.952957 155.569092,166.402512 
	C164.143051,163.854385 172.798996,160.553619 181.708557,159.584564 
	C188.722305,158.821716 196.048782,160.934067 203.925339,162.037384 
	C210.775787,164.978775 216.937241,167.652069 223.169525,170.356110 
	C226.905060,163.119431 230.517365,156.121490 234.129669,149.123550 
	C244.507248,135.303467 258.786469,127.887825 275.652771,124.125137 
z"/>
<path fill="#C8C8C8" opacity="1.000000" stroke="none" 
	d="
M255.928772,421.982056 
	C257.003052,428.685974 258.077332,435.389893 259.044128,442.521881 
	C241.646332,454.376373 222.642853,459.289276 201.482864,457.554871 
	C207.853104,444.769897 214.729584,432.357605 222.061935,419.953583 
	C233.654785,420.635254 244.791779,421.308655 255.928772,421.982056 
z"/>
<path fill="#797979" opacity="1.000000" stroke="none" 
	d="
M221.606079,419.945343 
	C214.729584,432.357605 207.853104,444.769897 201.018219,457.547607 
	C195.720352,467.068237 190.379883,476.222870 185.042725,485.379425 
	C184.374680,486.525543 183.795242,487.730133 183.052368,488.824585 
	C180.588776,492.454071 176.663818,493.313019 173.151367,491.052032 
	C169.884796,488.949310 169.224182,485.257019 171.369385,481.472198 
	C176.186478,472.973267 180.973862,464.457458 185.843903,455.618286 
	C186.824051,454.399292 187.994003,453.660095 188.603409,452.598969 
	C195.440506,440.694214 202.191360,428.739868 209.322083,416.244690 
	C213.233780,409.528381 216.760727,403.349731 220.356033,397.211151 
	C222.070679,394.283600 224.569397,392.944946 227.884918,394.369843 
	C230.992935,395.705597 231.692688,398.381744 230.973846,401.404083 
	C230.598877,402.980682 229.811600,404.484833 229.053452,405.939880 
	C226.610260,410.628815 224.094101,415.279755 221.606079,419.945343 
z"/>
<path fill="#C8C7C7" opacity="1.000000" stroke="none" 
	d="
M87.722359,409.238464 
	C90.143417,415.924652 93.508308,422.002747 98.525955,427.447388 
	C100.504295,429.594055 100.819221,433.799835 100.877914,437.086090 
	C101.025597,445.354248 104.809334,450.957764 112.078575,454.451080 
	C117.018982,456.825256 121.663956,456.126221 126.358315,453.433868 
	C127.694939,452.667267 130.803833,452.482635 131.373840,453.274170 
	C137.313568,461.522247 145.639084,464.851624 155.407227,466.202087 
	C151.663193,468.452515 147.823853,470.250824 143.984497,472.049133 
	C136.937134,472.311188 130.206696,471.124298 123.846436,467.924988 
	C122.996857,467.497620 121.725822,467.908112 119.937065,468.091614 
	C114.193123,468.761322 109.166008,469.315460 104.128677,469.751678 
	C102.567520,469.886841 100.978615,469.701477 99.402420,469.662842 
	C96.762283,467.000000 93.787483,464.589874 91.548073,461.624451 
	C85.999863,454.277496 85.735893,445.885925 87.208183,437.140106 
	C87.641281,434.567352 87.566917,431.543518 86.614594,429.172455 
	C83.881638,422.367859 84.856628,415.945496 87.722359,409.238464 
z"/>
<path fill="#424243" opacity="1.000000" stroke="none" 
	d="
M233.931519,148.832169 
	C230.517365,156.121490 226.905060,163.119431 223.169525,170.356110 
	C216.937241,167.652069 210.775787,164.978775 204.304260,162.113327 
	C203.329391,146.143814 202.586288,130.369049 202.060760,114.587036 
	C201.944962,111.110001 200.904663,106.454788 205.726990,105.369072 
	C210.327209,104.333359 211.641968,108.705605 213.393448,111.862785 
	C220.175323,124.087730 226.953690,136.314621 233.931519,148.832169 
z"/>
<path fill="#FFA728" opacity="1.000000" stroke="none" 
	d="
M99.051331,469.829163 
	C100.978615,469.701477 102.567520,469.886841 104.128677,469.751678 
	C109.166008,469.315460 114.193123,468.761322 119.605942,468.200470 
	C119.825989,474.839386 117.003334,479.970734 111.574989,484.016968 
	C100.985275,491.910400 90.323418,499.651031 77.461105,503.449463 
	C69.356102,505.842957 60.828110,501.842377 57.557728,494.539490 
	C55.104977,489.062408 55.996342,487.006561 61.755344,484.909454 
	C70.229332,481.823669 78.758896,478.881104 87.159645,475.607697 
	C91.132294,474.059753 94.861015,471.885834 99.051331,469.829163 
z"/>
<path fill="#787878" opacity="1.000000" stroke="none" 
	d="
M84.979218,243.922791 
	C85.642471,244.519119 86.305725,245.115433 87.392624,246.156723 
	C91.117149,248.530914 94.418053,250.460129 97.964798,252.620255 
	C100.029755,253.935471 102.158089,254.719498 103.582924,256.186707 
	C105.072220,257.720306 106.809570,259.927032 106.777092,261.810883 
	C106.727966,264.660522 104.469322,266.350220 100.998596,265.480591 
	C95.851006,262.502350 90.945030,259.764313 86.039055,257.026276 
	C82.784943,255.207245 79.530830,253.388214 74.992615,250.851395 
	C74.992615,256.855835 75.051544,261.571960 74.978157,266.286041 
	C74.879539,272.620331 71.652122,274.637665 65.916611,271.638519 
	C56.802654,266.872803 47.875740,261.750366 38.785347,256.938141 
	C35.381218,255.136093 34.024517,252.816330 35.924126,249.298172 
	C37.781525,245.858185 40.483364,243.868423 44.508057,245.857346 
	C49.115238,248.134125 53.623249,250.611008 58.189137,252.972351 
	C59.043663,253.414307 59.967850,253.721573 61.003803,254.150604 
	C61.003803,249.555588 60.979118,245.238892 61.009472,240.922562 
	C61.057495,234.093719 63.130310,232.748688 69.154907,235.799393 
	C73.590912,238.045685 77.917809,240.507416 82.638397,242.958771 
	C82.983475,243.044388 83.005058,243.001938 83.191498,243.195435 
	C83.911697,243.566895 84.445457,243.744843 84.979218,243.922791 
z"/>
<path fill="#787878" opacity="1.000000" stroke="none" 
	d="
M407.786621,133.792648 
	C405.930450,136.582764 404.333435,139.113937 402.633331,141.573837 
	C399.645050,145.897583 396.178253,146.926971 392.545471,144.655960 
	C388.626892,142.206299 387.864044,138.315063 390.818878,133.918854 
	C397.485168,124.000862 404.321747,114.197510 411.062744,104.329536 
	C417.523834,94.871277 423.948578,85.388214 430.397949,75.921921 
	C431.235992,74.691856 432.012787,73.393242 433.012634,72.305305 
	C435.894775,69.169250 439.153778,69.274200 442.328430,71.740227 
	C445.477081,74.186050 445.687073,77.024719 443.406677,80.417389 
	C431.541565,98.070007 419.790283,115.799133 407.786621,133.792648 
z"/>
<path fill="#787878" opacity="1.000000" stroke="none" 
	d="
M353.104553,449.175903 
	C357.394348,446.931335 361.849609,445.000031 366.676575,443.060547 
	C376.611786,460.519531 386.213104,477.966187 395.708008,495.470551 
	C397.685944,499.117035 396.443237,502.912384 392.908051,504.714600 
	C389.065125,506.673676 386.092773,505.175507 384.056030,501.815918 
	C378.979858,493.442810 374.037201,484.988403 369.077179,476.545319 
	C363.786438,467.539337 358.537323,458.508911 353.104553,449.175903 
z"/>
<path fill="#FB2B29" opacity="1.000000" stroke="none" 
	d="
M314.021362,98.429024 
	C302.742004,78.522171 291.462616,58.615334 280.335876,38.179184 
	C283.334320,35.758755 286.180176,33.867634 289.026031,31.976509 
	C298.178864,46.977680 307.354553,61.964958 316.471619,76.987823 
	C319.525024,82.019127 322.428833,87.141212 325.098938,92.742279 
	C321.205048,94.984848 317.613220,96.706940 314.021362,98.429024 
z"/>
<path fill="#434343" opacity="1.000000" stroke="none" 
	d="
M369.021667,164.440521 
	C363.872986,165.359024 358.766510,165.881744 353.627930,166.407761 
	C351.094788,160.878326 348.427887,155.056839 345.792664,148.680267 
	C348.533752,144.414719 351.243164,140.704239 353.952545,136.993759 
	C358.330475,132.465881 362.566040,127.786125 367.155426,123.483780 
	C369.030151,121.726311 371.670959,120.786064 373.963257,119.474030 
	C374.377563,122.026436 375.452026,124.675446 375.095032,127.114998 
	C373.289276,139.454865 371.111359,151.740250 369.021667,164.440521 
z"/>
<path fill="#5F6367" opacity="1.000000" stroke="none" 
	d="
M361.873535,113.027740 
	C357.022552,111.490013 356.284271,106.948608 356.571686,103.313866 
	C357.529327,91.203438 361.674744,80.399963 372.797333,73.793365 
	C374.601044,72.722000 377.148132,72.902229 379.779907,73.036430 
	C383.677826,78.822067 383.952881,84.535988 382.144470,90.310623 
	C378.832275,100.887161 373.289185,109.615295 361.873535,113.027740 
z"/>
<path fill="#9A9A9A" opacity="1.000000" stroke="none" 
	d="
M362.155670,113.240067 
	C373.289185,109.615295 378.832275,100.887161 382.144470,90.310623 
	C383.952881,84.535988 383.677826,78.822067 380.088867,73.211731 
	C392.600647,76.526474 396.486908,80.909851 392.789001,93.386787 
	C390.952576,99.582947 388.246002,106.036293 384.203796,110.951050 
	C376.904510,119.826035 372.676086,119.834892 362.155670,113.240067 
z"/>
<path fill="#9A9A9A" opacity="1.000000" stroke="none" 
	d="
M144.140656,472.389954 
	C147.823853,470.250824 151.663193,468.452515 155.736755,466.417236 
	C158.676819,464.213501 161.382675,462.246735 164.745300,460.110809 
	C169.581177,458.255676 173.296356,456.123749 173.951233,451.049500 
	C175.818130,451.838928 177.685028,452.628357 179.772003,453.670288 
	C182.446594,458.600220 180.017593,461.857391 176.724289,464.752167 
	C167.860931,472.542908 157.980560,477.028961 145.878159,473.857727 
	C145.292786,473.704346 144.821320,473.116364 144.140656,472.389954 
z"/>
<path fill="#C7C7C7" opacity="1.000000" stroke="none" 
	d="
M86.039322,257.491882 
	C90.945030,259.764313 95.851006,262.502350 100.787140,265.790222 
	C101.224907,270.622040 101.632515,274.904022 102.040115,279.186005 
	C97.658485,280.740356 93.276855,282.294739 88.528030,283.864258 
	C87.453743,275.238800 86.746666,266.598145 86.039322,257.491882 
z"/>
<path fill="#5F6165" opacity="1.000000" stroke="none" 
	d="
M288.946533,31.634800 
	C286.180176,33.867634 283.334320,35.758755 280.203125,37.854015 
	C277.525299,35.069595 276.211121,31.532650 271.944916,29.750784 
	C266.848175,27.622005 267.047577,21.794722 271.640503,18.630667 
	C273.139557,17.597965 274.740112,16.687424 276.371765,15.877107 
	C281.139801,13.509175 284.641266,15.355084 285.850098,20.573351 
	C286.686920,24.185711 287.849854,27.722521 288.946533,31.634800 
z"/>
<path fill="#FFA728" opacity="1.000000" stroke="none" 
	d="
M483.859833,206.124115 
	C480.480652,208.069901 470.949127,206.994186 468.317871,203.774109 
	C465.126007,199.867920 462.113892,195.667862 459.919006,191.159241 
	C458.902496,189.071152 459.620789,185.842529 460.327576,183.350800 
	C460.628754,182.288986 462.970795,181.130402 464.279175,181.243576 
	C465.327545,181.334229 466.234619,183.264038 467.163788,184.410583 
	C467.471069,184.789719 467.734253,185.245865 467.878052,185.710052 
	C470.381042,193.789459 473.479156,201.292862 483.249329,202.590240 
	C479.586304,202.501923 476.188904,202.068375 472.791534,201.634827 
	C472.651184,202.376678 472.510864,203.118530 472.370514,203.860397 
	C476.200287,204.614960 480.030060,205.369537 483.859833,206.124115 
z"/>
<path fill="#FFA728" opacity="1.000000" stroke="none" 
	d="
M58.023449,114.858994 
	C64.017914,127.007652 55.987026,135.069962 47.493851,140.311844 
	C43.878292,142.543335 40.989902,140.236481 38.725426,136.453613 
	C46.053318,130.232834 56.471992,125.991241 54.620399,113.779266 
	C55.195305,117.329346 55.408279,120.644669 55.621258,123.959999 
	C56.421989,123.927048 57.222717,123.894089 58.023449,123.861137 
	C58.023449,120.860420 58.023449,117.859711 58.023449,114.858994 
z"/>
<path fill="#FDA529" opacity="1.000000" stroke="none" 
	d="
M353.640594,136.856567 
	C351.243164,140.704239 348.533752,144.414719 345.569763,148.352386 
	C343.842163,146.606796 342.369171,144.634003 341.160400,142.355896 
	C347.937866,141.564606 349.340546,139.531998 346.374817,133.909851 
	C342.423340,126.418953 338.066437,119.141914 334.072357,111.536888 
	C335.155487,110.873985 336.049927,110.447220 336.944366,110.020447 
	C342.405792,118.920105 347.867218,127.819748 353.640594,136.856567 
z"/>
<path fill="#FB2B29" opacity="1.000000" stroke="none" 
	d="
M515.656555,212.822479 
	C507.305817,211.466843 498.955048,210.111221 490.595093,208.754105 
	C490.013336,203.241150 493.248444,203.684586 496.483612,204.301743 
	C502.738190,205.494919 508.978119,206.764938 515.656128,208.416229 
	C515.944275,210.160400 515.800415,211.491440 515.656555,212.822479 
z"/>
<path fill="#FB2B29" opacity="1.000000" stroke="none" 
	d="
M55.080650,83.830650 
	C56.048435,90.948395 57.095264,98.057518 57.873302,105.195946 
	C57.960129,105.992561 56.519753,106.955635 55.787621,107.841507 
	C54.862759,106.998154 53.244892,106.243172 53.124283,105.297272 
	C52.271561,98.609749 51.726120,91.883041 51.525055,84.784332 
	C53.005180,84.210106 54.042915,84.020378 55.080650,83.830650 
z"/>
<path fill="#D8D8D8" opacity="1.000000" stroke="none" 
	d="
M321.121521,110.745514 
	C319.951904,108.766975 318.782288,106.788437 317.724548,104.443161 
	C321.568848,102.061951 325.301270,100.047493 329.033722,98.033035 
	C330.300385,100.103004 331.567078,102.172966 332.551514,104.738747 
	C328.553345,107.071548 324.837433,108.908539 321.121521,110.745514 
z"/>
<path fill="#606568" opacity="1.000000" stroke="none" 
	d="
M476.051392,212.999359 
	C482.834717,213.998871 486.419647,220.803482 483.067657,227.681580 
	C475.620941,225.541458 475.284729,219.758026 474.994873,213.949783 
	C474.994873,213.949783 475.012360,214.009521 475.252106,213.962341 
	C475.678345,213.609909 475.864868,213.304642 476.051392,212.999359 
z"/>
<path fill="#FDA529" opacity="1.000000" stroke="none" 
	d="
M338.937195,140.260330 
	C336.976990,138.381302 335.016785,136.502258 332.911316,134.314209 
	C330.009216,128.259369 327.252411,122.513550 324.679810,116.416840 
	C325.905914,115.706657 326.947754,115.347382 328.070801,115.340164 
	C329.636993,118.853989 331.196747,121.983231 332.589783,125.184998 
	C334.764923,130.184296 336.827118,135.232712 338.937195,140.260330 
z"/>
<path fill="#5F6367" opacity="1.000000" stroke="none" 
	d="
M65.927795,118.999878 
	C64.345497,112.897041 69.606445,107.684258 76.675552,109.191544 
	C75.737816,115.811890 72.695381,118.362389 65.927795,118.999878 
z"/>
<path fill="#616569" opacity="1.000000" stroke="none" 
	d="
M327.989624,114.988098 
	C326.947754,115.347382 325.905914,115.706657 324.532166,116.112610 
	C323.255646,114.572716 322.311066,112.986153 321.243988,111.072556 
	C324.837433,108.908539 328.553345,107.071548 332.576233,105.079247 
	C334.136841,106.431114 335.390472,107.938293 336.794250,109.732956 
	C336.049927,110.447220 335.155487,110.873985 333.741943,111.633041 
	C331.478424,112.972916 329.734009,113.980507 327.989624,114.988098 
z"/>
<path fill="#5F6165" opacity="1.000000" stroke="none" 
	d="
M328.949036,97.714417 
	C325.301270,100.047493 321.568848,102.061951 317.515320,104.216103 
	C316.192108,102.587547 315.189972,100.819298 314.104614,98.740036 
	C317.613220,96.706940 321.205048,94.984848 325.146057,93.121368 
	C326.618286,94.451920 327.741302,95.923851 328.949036,97.714417 
z"/>
<path fill="#9A9A9A" opacity="1.000000" stroke="none" 
	d="
M474.639771,214.048904 
	C475.284729,219.758026 475.620941,225.541458 482.801666,227.920761 
	C478.324524,231.069122 476.404541,230.745880 473.481140,226.357391 
	C469.939667,221.041138 470.208099,216.962250 474.639771,214.048904 
z"/>
<path fill="#9A9A9A" opacity="1.000000" stroke="none" 
	d="
M66.009308,119.374481 
	C72.695381,118.362389 75.737816,115.811890 76.985245,109.374573 
	C80.912140,112.696907 80.976761,114.675476 77.323120,118.409477 
	C73.010986,122.816475 69.573975,123.226372 66.009308,119.374481 
z"/>
<path fill="#FB2E2E" opacity="1.000000" stroke="none" 
	d="
M127.898117,389.476990 
	C126.487656,389.669678 125.090523,389.436188 123.357475,389.083069 
	C123.831009,384.927307 124.640450,380.891144 125.625725,376.529846 
	C127.050858,376.137085 128.300156,376.069489 129.452286,376.007141 
	C128.908554,380.609924 128.410004,384.830353 127.898117,389.476990 
z"/>
<path fill="#5F6165" opacity="1.000000" stroke="none" 
	d="
M516.022583,212.933380 
	C515.800415,211.491440 515.944275,210.160400 516.078003,208.428574 
	C517.222351,208.111237 518.417297,208.036407 519.520752,208.318970 
	C520.842041,208.657318 522.791016,208.995926 523.178040,209.891769 
	C523.630615,210.939316 523.111755,213.088028 522.231689,213.826965 
	C521.443909,214.488403 519.584778,213.957657 518.214905,213.804550 
	C517.585632,213.734222 516.996155,213.308731 516.022583,212.933380 
z"/>
<path fill="#5F6165" opacity="1.000000" stroke="none" 
	d="
M55.106369,83.458298 
	C54.042915,84.020378 53.005180,84.210106 51.571510,84.373528 
	C50.869720,83.400139 50.411583,82.471077 50.296803,81.501373 
	C50.155411,80.306816 49.825081,78.570023 50.441803,77.993828 
	C51.205620,77.280205 53.252651,76.952438 54.021248,77.491119 
	C54.905609,78.110924 55.091602,79.838112 55.394016,81.128143 
	C55.534485,81.727341 55.233147,82.430122 55.106369,83.458298 
z"/>
<path fill="#F08B34" opacity="1.000000" stroke="none" 
	d="
M483.915375,205.722107 
	C480.030060,205.369537 476.200287,204.614960 472.370514,203.860397 
	C472.510864,203.118530 472.651184,202.376678 472.791534,201.634827 
	C476.188904,202.068375 479.586304,202.501923 483.385223,202.917755 
	C483.848175,203.706726 483.909546,204.513412 483.915375,205.722107 
z"/>
<path fill="#F08B34" opacity="1.000000" stroke="none" 
	d="
M57.878647,114.567154 
	C58.023449,117.859711 58.023449,120.860420 58.023449,123.861137 
	C57.222717,123.894089 56.421989,123.927048 55.621258,123.959999 
	C55.408279,120.644669 55.195305,117.329346 54.971443,113.567673 
	C55.884983,113.505997 56.809414,113.890656 57.878647,114.567154 
z"/>
<path fill="#9A9A9A" opacity="1.000000" stroke="none" 
	d="
M475.788330,213.065704 
	C475.864868,213.304642 475.678345,213.609909 475.221008,213.963440 
	C475.141846,213.718491 475.333557,213.425262 475.788330,213.065704 
z"/>
<path fill="#E3E3E3" opacity="1.000000" stroke="none" 
	d="
M222.061935,419.953583 
	C224.094101,415.279755 226.610260,410.628815 229.053452,405.939880 
	C229.811600,404.484833 230.598877,402.980682 230.973846,401.404083 
	C231.692688,398.381744 230.992935,395.705597 227.884918,394.369843 
	C224.569397,392.944946 222.070679,394.283600 220.356033,397.211151 
	C216.760727,403.349731 213.233780,409.528381 209.415848,415.905212 
	C194.654953,411.355560 180.803375,405.291687 169.205109,395.094727 
	C154.947739,382.559967 146.114151,367.167297 146.121735,347.743805 
	C146.123764,342.532043 144.756912,339.260773 140.205475,336.350098 
	C125.465195,326.923553 115.322166,313.487244 108.131653,297.283783 
	C117.376915,294.610138 126.771973,292.254761 136.710419,290.255554 
	C141.133530,296.548218 144.567322,302.859985 149.100830,308.246124 
	C151.058319,310.571808 155.289062,310.984131 158.487152,312.265625 
	C158.640167,308.964233 159.337524,305.575623 158.825531,302.380829 
	C157.936768,296.834808 156.300201,291.408630 154.977219,285.932220 
	C161.708221,284.578094 168.439224,283.223969 175.586212,282.356750 
	C175.965149,297.622314 182.028076,308.907043 195.000946,316.505981 
	C183.593277,334.812256 172.211182,352.749115 161.069885,370.834320 
	C159.883148,372.760681 160.104492,375.554443 159.672607,377.945831 
	C161.978134,377.838226 164.527359,378.339294 166.551483,377.528839 
	C186.710144,369.457764 206.782166,361.170258 227.200378,353.101501 
	C243.337234,362.602814 259.577667,363.511627 276.618683,355.792053 
	C283.455139,358.231903 289.669495,362.253113 297.019501,359.656067 
	C306.876190,356.173309 316.670990,352.515289 326.820312,348.920471 
	C328.823486,348.288116 330.498657,347.667847 332.540039,347.038635 
	C335.239014,346.105164 337.571838,345.180542 340.270081,344.204529 
	C342.422852,343.468964 344.210175,342.784851 346.384888,342.080231 
	C348.475586,341.471802 350.178986,340.883850 351.882355,340.295868 
	C352.614777,340.952728 353.347198,341.609589 354.248779,342.595764 
	C346.741913,343.627167 344.463623,345.504669 342.354218,352.505524 
	C340.345123,359.173492 338.195343,365.799072 335.654297,372.752930 
	C333.499359,372.473724 331.838745,371.638885 330.087402,371.345581 
	C326.058319,370.670868 321.864441,369.743042 318.619995,374.088013 
	C309.763824,384.111938 309.656036,385.337585 316.323944,396.620880 
	C316.571045,397.039032 316.689911,397.532928 316.868530,397.991547 
	C312.076691,400.929321 307.284821,403.867096 302.141724,406.877411 
	C302.302063,399.939636 300.426697,398.725037 293.894836,401.175446 
	C282.190979,405.566132 270.496307,410.042999 258.569946,413.750916 
	C253.193069,415.422607 256.577789,418.658569 255.974045,421.589172 
	C244.791779,421.308655 233.654785,420.635254 222.061935,419.953583 
z"/>
<path fill="#E3E3E3" opacity="1.000000" stroke="none" 
	d="
M102.435745,279.165955 
	C101.632515,274.904022 101.224907,270.622040 101.028763,266.030426 
	C104.469322,266.350220 106.727966,264.660522 106.777092,261.810883 
	C106.809570,259.927032 105.072220,257.720306 103.582924,256.186707 
	C102.158089,254.719498 100.029755,253.935471 98.022827,252.126556 
	C98.217178,242.955185 98.198677,234.464966 99.108200,226.075348 
	C99.836662,219.355865 101.692299,212.758560 103.047684,206.107040 
	C108.848282,199.522400 114.648872,192.937759 121.127884,186.167435 
	C127.536095,183.994797 133.265884,182.007828 138.995682,180.020859 
	C149.580795,185.546143 160.388504,190.689804 170.690887,196.699753 
	C181.884720,203.229721 192.608658,210.565170 203.734680,218.229340 
	C204.223343,225.091400 204.115189,231.333893 205.034714,237.421143 
	C205.334686,239.406906 208.313110,240.988052 210.066559,242.754272 
	C211.726410,241.104431 213.752808,239.683228 214.958649,237.750168 
	C216.690704,234.973465 217.824951,231.823868 219.214386,228.833435 
	C228.168640,235.301880 237.122894,241.770340 246.477737,248.528168 
	C214.653732,254.485260 183.737457,260.272461 152.407272,265.572418 
	C153.200012,255.889999 154.244171,246.669220 155.685394,237.510925 
	C156.354187,233.261139 158.128265,229.180756 158.739853,224.928452 
	C159.026810,222.933167 158.372742,219.717880 157.010712,218.863037 
	C155.531219,217.934479 151.994263,218.290192 150.645691,219.511597 
	C146.157654,223.576401 141.388702,227.757416 138.292068,232.846008 
	C131.200729,244.499008 129.608215,257.452881 131.965759,270.876007 
	C122.254295,273.632629 112.542831,276.389252 102.435745,279.165955 
z"/>
<path fill="#E3E3E3" opacity="1.000000" stroke="none" 
	d="
M184.058304,280.233521 
	C211.621155,276.024719 239.176361,271.763641 266.764648,267.728882 
	C268.538910,267.469360 270.962769,268.487305 272.418671,269.706207 
	C286.556366,281.542633 300.551788,293.549011 314.642151,306.066833 
	C311.639954,308.555176 308.446777,310.303436 305.578491,312.479919 
	C303.875275,313.772308 301.172485,316.485229 301.554321,317.258820 
	C302.576813,319.330444 304.775452,321.434326 306.961121,322.163177 
	C309.659485,323.063049 312.912079,323.109528 315.753174,322.587860 
	C320.282257,321.756317 324.669281,320.151215 329.116394,318.873199 
	C333.069855,322.460663 337.023285,326.048126 341.056641,330.154114 
	C339.763733,331.117584 338.390930,331.562500 336.645142,332.025360 
	C333.856506,332.992950 331.440826,333.942627 328.661438,334.902222 
	C326.506256,335.490662 324.714813,336.069153 322.521423,336.705566 
	C317.616730,337.932556 313.060120,338.928223 308.622253,340.306335 
	C298.966095,343.304993 290.326111,341.858551 282.526733,335.233368 
	C273.026550,327.163452 263.285583,319.374451 253.868515,311.210480 
	C250.379822,308.186005 247.827820,308.631439 244.964203,311.764893 
	C239.347046,317.911346 240.137451,324.793549 242.073349,331.848267 
	C240.436600,330.806702 238.926285,330.007233 237.924728,328.789398 
	C233.156296,322.991058 230.521484,316.352570 229.879639,308.795776 
	C229.007492,298.527527 226.653961,296.842651 216.490891,298.415527 
	C215.998566,298.491730 215.514816,298.625671 215.021744,298.694489 
	C201.957855,300.518005 188.920410,292.742737 184.058304,280.233521 
z"/>
<path fill="#E3E3E3" opacity="1.000000" stroke="none" 
	d="
M402.528534,256.946472 
	C405.947388,263.494659 409.317139,269.801575 411.766754,276.447632 
	C415.391357,286.281647 415.152466,296.574005 413.647339,307.430481 
	C412.198761,308.493896 411.029053,308.976471 409.474243,309.564880 
	C393.154266,314.680206 377.219482,319.689667 361.284668,324.699158 
	C355.614166,319.334778 349.943665,313.970398 344.288818,308.020691 
	C347.226501,301.682861 351.253052,296.203613 352.763000,290.101624 
	C354.303101,283.877686 353.631073,277.029633 353.326630,270.482758 
	C353.255035,268.943390 350.977997,266.797668 349.313354,266.313263 
	C348.350128,266.032990 346.120514,268.258667 345.275574,269.802460 
	C343.525604,272.999786 342.725037,276.749817 340.799988,279.810913 
	C337.487946,285.077515 333.614594,289.991119 329.976807,295.052856 
	C318.707764,285.042847 307.438751,275.032837 295.288727,264.240234 
	C331.530182,260.390289 366.693634,257.206421 402.528534,256.946472 
z"/>
<path fill="#C9C8C8" opacity="1.000000" stroke="none" 
	d="
M183.679260,280.231689 
	C188.920410,292.742737 201.957855,300.518005 215.021744,298.694489 
	C215.514816,298.625671 215.998566,298.491730 216.490891,298.415527 
	C226.653961,296.842651 229.007492,298.527527 229.879639,308.795776 
	C230.521484,316.352570 233.156296,322.991058 237.924728,328.789398 
	C238.926285,330.007233 240.436600,330.806702 241.970184,331.943298 
	C242.227875,332.087646 242.009033,331.916199 242.172470,332.117737 
	C242.592560,332.551727 242.849197,332.784119 243.374268,333.205658 
	C247.044769,336.529419 250.101547,340.193817 253.923218,342.684692 
	C261.135284,347.385315 268.787598,351.410492 276.256927,355.716370 
	C259.577667,363.511627 243.337234,362.602814 227.103867,352.786469 
	C215.229996,343.724548 210.069778,331.576599 207.874435,318.105560 
	C203.252823,317.408936 199.174454,316.794159 195.096100,316.179413 
	C182.028076,308.907043 175.965149,297.622314 176.007904,282.396088 
	C178.442474,281.375671 180.871353,280.802795 183.679260,280.231689 
z"/>
<path fill="#47704C" opacity="1.000000" stroke="none" 
	d="
M387.050934,427.242188 
	C394.481812,417.385376 398.821259,406.380829 401.981323,394.407532 
	C410.021179,403.636597 418.346436,412.936829 425.746307,422.922760 
	C431.863647,431.177948 437.061127,440.141510 442.272766,449.022064 
	C443.558472,451.212830 443.314331,454.301361 443.773438,456.977203 
	C440.900116,456.942566 437.850677,457.528046 435.182739,456.770325 
	C420.541748,452.612030 407.937531,444.547821 395.980072,435.411560 
	C392.861816,433.029053 390.084778,430.199951 387.050934,427.242188 
z"/>
<path fill="#C8C8C8" opacity="1.000000" stroke="none" 
	d="
M132.357178,270.875366 
	C129.608215,257.452881 131.200729,244.499008 138.292068,232.846008 
	C141.388702,227.757416 146.157654,223.576401 150.645691,219.511597 
	C151.994263,218.290192 155.531219,217.934479 157.010712,218.863037 
	C158.372742,219.717880 159.026810,222.933167 158.739853,224.928452 
	C158.128265,229.180756 156.354187,233.261139 155.685394,237.510925 
	C154.244171,246.669220 153.200012,255.889999 151.994812,265.550171 
	C145.580368,267.635010 139.164474,269.254852 132.357178,270.875366 
z"/>
<path fill="#47704C" opacity="1.000000" stroke="none" 
	d="
M93.761978,301.195404 
	C97.074196,306.599274 100.152039,312.073669 102.907585,317.705780 
	C103.458336,318.831482 103.133141,320.707550 102.597961,321.979309 
	C101.263786,325.149719 99.576218,328.171417 97.942810,331.617401 
	C86.819725,332.057190 75.942986,331.102234 65.550690,327.004456 
	C64.932037,326.760559 64.176041,326.658508 63.723526,326.234680 
	C61.524845,324.175201 58.121338,322.257294 57.690716,319.836365 
	C57.376358,318.069061 60.597324,314.653961 62.964973,313.605835 
	C72.967278,309.177917 83.240265,305.361450 93.761978,301.195404 
z"/>
<path fill="#BCACBF" opacity="1.000000" stroke="none" 
	d="
M330.143188,295.339294 
	C333.614594,289.991119 337.487946,285.077515 340.799988,279.810913 
	C342.725037,276.749817 343.525604,272.999786 345.275574,269.802460 
	C346.120514,268.258667 348.350128,266.032990 349.313354,266.313263 
	C350.977997,266.797668 353.255035,268.943390 353.326630,270.482758 
	C353.631073,277.029633 354.303101,283.877686 352.763000,290.101624 
	C351.253052,296.203613 347.226501,301.682861 344.128448,307.727051 
	C339.404846,303.887695 334.857208,299.756714 330.143188,295.339294 
z"/>
<path fill="#FB2E2E" opacity="1.000000" stroke="none" 
	d="
M361.497101,324.958740 
	C377.219482,319.689667 393.154266,314.680206 409.547607,309.965576 
	C411.026703,313.210022 412.047272,316.159668 413.067871,319.109314 
	C411.198242,319.834106 409.328613,320.558899 406.835052,321.568481 
	C394.397400,325.942810 382.583710,330.032288 370.770020,334.121765 
	C367.749847,331.153931 364.729706,328.186127 361.497101,324.958740 
z"/>
<path fill="#C8C8C8" opacity="1.000000" stroke="none" 
	d="
M154.566086,285.919891 
	C156.300201,291.408630 157.936768,296.834808 158.825531,302.380829 
	C159.337524,305.575623 158.640167,308.964233 158.487152,312.265625 
	C155.289062,310.984131 151.058319,310.571808 149.100830,308.246124 
	C144.567322,302.859985 141.133530,296.548218 137.119507,290.277527 
	C142.708435,288.598053 148.431702,287.252808 154.566086,285.919891 
z"/>
<path fill="#C6C6C6" opacity="1.000000" stroke="none" 
	d="
M102.740280,206.241974 
	C101.692299,212.758560 99.836662,219.355865 99.108200,226.075348 
	C98.198677,234.464966 98.217178,242.955185 97.776985,251.895660 
	C94.418053,250.460129 91.117149,248.530914 87.638184,246.279572 
	C90.678436,235.555740 93.713264,225.091431 97.228241,214.790970 
	C98.266449,211.748535 100.660271,209.168701 102.740280,206.241974 
z"/>
<path fill="#C8C8C8" opacity="1.000000" stroke="none" 
	d="
M216.162323,202.353622 
	C220.735245,197.676086 226.437012,195.586197 232.795181,196.152161 
	C235.419037,196.385696 238.322678,197.537369 240.378525,199.175659 
	C243.791840,201.895752 243.483246,204.850525 239.871964,207.268936 
	C237.143768,209.095932 234.099472,210.450912 230.806335,212.087921 
	C225.725113,208.985001 221.033432,205.810135 216.162323,202.353622 
z"/>
<path fill="#BCACBF" opacity="1.000000" stroke="none" 
	d="
M328.941376,318.591125 
	C324.669281,320.151215 320.282257,321.756317 315.753174,322.587860 
	C312.912079,323.109528 309.659485,323.063049 306.961121,322.163177 
	C304.775452,321.434326 302.576813,319.330444 301.554321,317.258820 
	C301.172485,316.485229 303.875275,313.772308 305.578491,312.479919 
	C308.446777,310.303436 311.639954,308.555176 314.853516,306.325439 
	C319.595825,310.119049 324.181091,314.214020 328.941376,318.591125 
z"/>
<path fill="#E3E3E3" opacity="1.000000" stroke="none" 
	d="
M370.918579,334.422302 
	C382.583710,330.032288 394.397400,325.942810 406.602295,321.810150 
	C402.204285,330.951813 393.542755,335.113586 384.637329,338.917328 
	C382.663208,339.760559 380.550751,340.279877 378.122955,341.051819 
	C375.518341,339.011169 373.292755,336.867004 370.918579,334.422302 
z"/>
<path fill="#C8C8C8" opacity="1.000000" stroke="none" 
	d="
M219.012360,228.562561 
	C217.824951,231.823868 216.690704,234.973465 214.958649,237.750168 
	C213.752808,239.683228 211.726410,241.104431 210.066559,242.754272 
	C208.313110,240.988052 205.334686,239.406906 205.034714,237.421143 
	C204.115189,231.333893 204.223343,225.091400 203.948669,218.489746 
	C208.913727,221.477371 213.862030,224.884537 219.012360,228.562561 
z"/>
<path fill="#616569" opacity="1.000000" stroke="none" 
	d="
M337.018097,332.007416 
	C338.390930,331.562500 339.763733,331.117584 341.343262,330.371948 
	C341.968414,330.611420 342.386932,331.151581 343.017944,332.161316 
	C343.508301,332.769043 343.786163,332.907257 344.064026,333.045471 
	C344.064026,333.045471 344.012665,332.993530 343.848328,333.351685 
	C344.455139,336.506805 345.226318,339.303772 345.997528,342.100708 
	C344.210175,342.784851 342.422852,343.468964 340.219696,343.813599 
	C338.875275,339.651855 337.946686,335.829651 337.018097,332.007416 
z"/>
<path fill="#C6C6C6" opacity="1.000000" stroke="none" 
	d="
M138.779953,179.753601 
	C133.265884,182.007828 127.536095,183.994797 121.410248,185.988190 
	C124.610474,183.274216 127.974998,180.108643 131.918686,178.055496 
	C133.466141,177.249878 136.310501,178.935349 138.779953,179.753601 
z"/>
<path fill="#FB2E2E" opacity="1.000000" stroke="none" 
	d="
M346.384888,342.080261 
	C345.226318,339.303772 344.455139,336.506805 343.825928,333.322815 
	C346.497009,335.229553 349.026123,337.523285 351.718811,340.056458 
	C350.178986,340.883850 348.475586,341.471802 346.384888,342.080261 
z"/>
<path fill="#47704C" opacity="1.000000" stroke="none" 
	d="
M84.752121,243.759323 
	C84.445457,243.744843 83.911697,243.566895 83.168564,243.196579 
	C83.481140,243.201431 84.003082,243.398636 84.752121,243.759323 
z"/>
<path fill="#FB2E2E" opacity="1.000000" stroke="none" 
	d="
M343.979401,332.816071 
	C343.786163,332.907257 343.508301,332.769043 343.143402,332.388275 
	C343.410126,332.151459 343.689606,332.298431 343.979401,332.816071 
z"/>
<path fill="#C9C9C9" opacity="1.000000" stroke="none" 
	d="
M286.247894,184.593597 
	C283.048676,184.075989 280.178833,183.951767 277.490601,183.188217 
	C272.483948,181.766113 271.641815,177.652161 275.722595,174.330185 
	C281.162567,169.901703 287.700623,168.653259 294.508453,169.055786 
	C313.652740,170.187759 332.696930,186.245377 334.470764,204.813400 
	C334.565338,205.803513 335.102783,206.979584 334.743317,207.744507 
	C333.333099,210.745544 331.645844,213.616394 330.061462,216.535583 
	C327.664093,214.781967 324.423401,213.537216 323.007874,211.191193 
	C314.558228,197.187256 302.829468,187.970779 286.247894,184.593597 
z"/>
<path fill="#606568" opacity="1.000000" stroke="none" 
	d="
M318.903503,373.910187 
	C321.864441,369.743042 326.058319,370.670868 330.087402,371.345581 
	C331.838745,371.638885 333.499359,372.473724 335.588165,373.132446 
	C341.477142,378.378204 347.374390,383.209015 352.318848,388.871735 
	C354.894989,391.822113 356.587067,396.179016 352.701843,400.590149 
	C336.239288,403.802979 319.160156,389.907654 318.903503,373.910187 
z"/>
<path fill="#9A9A9A" opacity="1.000000" stroke="none" 
	d="
M318.619995,374.088013 
	C319.160156,389.907654 336.239288,403.802979 352.451477,400.850281 
	C346.867249,411.825256 341.179047,413.702454 330.335968,407.556458 
	C325.769684,404.968262 321.764435,401.390289 317.186340,398.126892 
	C316.689911,397.532928 316.571045,397.039032 316.323944,396.620880 
	C309.656036,385.337585 309.763824,384.111938 318.619995,374.088013 
z"/>
<path fill="#616569" opacity="1.000000" stroke="none" 
	d="
M173.599182,450.948303 
	C173.296356,456.123749 169.581177,458.255676 165.025162,459.956787 
	C166.091095,456.910553 167.533920,453.849121 169.003647,450.421265 
	C170.436081,450.318909 171.841614,450.583008 173.599182,450.948303 
z"/>
<path fill="#616569" opacity="1.000000" stroke="none" 
	d="
M413.457031,319.078735 
	C412.047272,316.159668 411.026703,313.210022 409.932739,309.859741 
	C411.029053,308.976471 412.198761,308.493896 413.653503,307.865234 
	C416.405731,307.382324 418.426544,307.127777 419.436676,303.885712 
	C419.898865,302.402161 423.518036,301.409332 425.798889,301.196899 
	C426.909882,301.093414 428.538116,303.107300 429.385529,304.496246 
	C430.402130,306.162506 430.905060,308.162445 431.508423,310.056732 
	C433.109009,315.081940 430.020203,318.395050 424.677277,318.126434 
	C421.091431,317.946136 417.458221,318.707916 413.457031,319.078735 
z"/>
<path fill="#F08B34" opacity="1.000000" stroke="none" 
	d="
M328.070801,115.340164 
	C329.734009,113.980507 331.478424,112.972916 333.553253,111.869171 
	C338.066437,119.141914 342.423340,126.418953 346.374817,133.909851 
	C349.340546,139.531998 347.937866,141.564606 340.981415,142.068756 
	C340.331573,142.073303 340.174103,141.978165 339.873596,141.391830 
	C339.433990,140.651566 339.186646,140.320953 338.939301,139.990341 
	C338.939301,139.990341 339.054962,140.125732 338.996094,140.193024 
	C336.827118,135.232712 334.764923,130.184296 332.589783,125.184998 
	C331.196747,121.983231 329.636993,118.853989 328.070801,115.340164 
z"/>
<path fill="#FDA529" opacity="1.000000" stroke="none" 
	d="
M339.001465,140.308807 
	C339.186646,140.320953 339.433990,140.651566 339.836792,141.253128 
	C339.682678,141.225143 339.373138,140.926193 339.001465,140.308807 
z"/>
<path fill="#444444" opacity="1.000000" stroke="none" 
	d="
M195.000946,316.505981 
	C199.174454,316.794159 203.252823,317.408936 207.874435,318.105560 
	C210.069778,331.576599 215.229996,343.724548 226.782135,352.628845 
	C206.782166,361.170258 186.710144,369.457764 166.551483,377.528839 
	C164.527359,378.339294 161.978134,377.838226 159.672607,377.945831 
	C160.104492,375.554443 159.883148,372.760681 161.069885,370.834320 
	C172.211182,352.749115 183.593277,334.812256 195.000946,316.505981 
z"/>
<path fill="#FEA92B" opacity="1.000000" stroke="none" 
	d="
M276.618683,355.792053 
	C268.787598,351.410492 261.135284,347.385315 253.923218,342.684692 
	C250.101547,340.193817 247.044769,336.529419 243.294220,332.921936 
	C242.633514,332.271454 242.321274,332.093842 242.009033,331.916199 
	C242.009033,331.916199 242.227875,332.087646 242.331039,331.992615 
	C240.137451,324.793549 239.347046,317.911346 244.964203,311.764893 
	C247.827820,308.631439 250.379822,308.186005 253.868515,311.210480 
	C263.285583,319.374451 273.026550,327.163452 282.526733,335.233368 
	C290.326111,341.858551 298.966095,343.304993 308.622253,340.306335 
	C313.060120,338.928223 317.616730,337.932556 322.621643,337.019592 
	C323.245392,337.697723 323.367004,338.119751 323.159760,338.791809 
	C320.989471,339.748566 319.190979,340.610992 317.298676,341.133514 
	C310.911926,342.897125 304.386749,344.237885 298.146210,346.406891 
	C296.184631,347.088684 294.953094,349.870911 293.387421,351.691772 
	C295.752045,352.657013 298.083252,353.724060 300.503662,354.519470 
	C301.149567,354.731720 302.072052,354.123779 302.861725,353.873840 
	C310.442200,351.474274 318.021484,349.070770 325.741882,346.938507 
	C326.085938,347.783264 326.289154,348.357910 326.492371,348.932526 
	C316.670990,352.515289 306.876190,356.173309 297.019501,359.656067 
	C289.669495,362.253113 283.455139,358.231903 276.618683,355.792053 
z"/>
<path fill="#D8D8D8" opacity="1.000000" stroke="none" 
	d="
M336.645142,332.025360 
	C337.946686,335.829651 338.875275,339.651855 339.854248,343.865021 
	C337.571838,345.180542 335.239014,346.105164 332.498871,346.641998 
	C331.069427,342.466919 330.047272,338.679596 329.025146,334.892273 
	C331.440826,333.942627 333.856506,332.992950 336.645142,332.025360 
z"/>
<path fill="#616569" opacity="1.000000" stroke="none" 
	d="
M328.661438,334.902222 
	C330.047272,338.679596 331.069427,342.466919 332.132690,346.650879 
	C330.498657,347.667847 328.823486,348.288116 326.820312,348.920471 
	C326.289154,348.357910 326.085938,347.783264 325.700439,346.553802 
	C324.841644,343.446564 324.165100,340.994171 323.488586,338.541779 
	C323.367004,338.119751 323.245392,337.697723 323.023590,336.961670 
	C324.714813,336.069153 326.506256,335.490662 328.661438,334.902222 
z"/>
<path fill="#E3E3E3" opacity="1.000000" stroke="none" 
	d="
M242.172470,332.117737 
	C242.321274,332.093842 242.633514,332.271454 243.025803,332.732819 
	C242.849197,332.784119 242.592560,332.551727 242.172470,332.117737 
z"/>
<path fill="#F08B34" opacity="1.000000" stroke="none" 
	d="
M323.159760,338.791809 
	C324.165100,340.994171 324.841644,343.446564 325.559631,346.283661 
	C318.021484,349.070770 310.442200,351.474274 302.861725,353.873840 
	C302.072052,354.123779 301.149567,354.731720 300.503662,354.519470 
	C298.083252,353.724060 295.752045,352.657013 293.387421,351.691772 
	C294.953094,349.870911 296.184631,347.088684 298.146210,346.406891 
	C304.386749,344.237885 310.911926,342.897125 317.298676,341.133514 
	C319.190979,340.610992 320.989471,339.748566 323.159760,338.791809 
z"/>
</svg>