<svg version="1.1" id="Layer_1" xmlns="http://www.w3.org/2000/svg" xmlns:xlink="http://www.w3.org/1999/xlink" x="0px" y="0px"
	 width="100%" viewBox="0 0 534 534" enable-background="new 0 0 534 534" xml:space="preserve">
<path fill="#47704c00" opacity="1.000000" stroke="none" 
	d="
M295.000000,535.000000 
	C196.689545,535.000000 98.879097,535.000000 1.034323,535.000000 
	C1.034323,357.064514 1.034323,179.129028 1.034323,1.096771 
	C178.893814,1.096771 356.787689,1.096771 534.840820,1.096771 
	C534.840820,178.999893 534.840820,356.999939 534.840820,535.000000 
	C455.128998,535.000000 375.314484,535.000000 295.000000,535.000000 
M520.639404,384.381500 
	C520.639404,384.381500 520.532410,384.352173 520.786072,383.506073 
	C520.156433,379.991119 519.526855,376.476166 519.014221,372.220642 
	C519.688232,370.551758 520.476562,368.919098 521.018860,367.208435 
	C527.025391,348.261993 526.664795,329.274994 521.110779,310.324371 
	C518.040283,299.847687 513.764160,289.954956 506.020813,281.981934 
	C506.020813,281.981934 506.083588,281.981659 505.989197,281.311462 
	C504.700836,279.863068 503.412506,278.414642 501.809357,276.367493 
	C497.517212,272.821320 493.225098,269.275177 488.939514,264.945312 
	C483.694366,245.043198 478.519623,225.122177 473.186920,205.243546 
	C465.914185,178.133087 458.517761,151.055786 451.184814,123.961433 
	C450.521332,121.510010 450.720245,119.725563 452.780457,117.429207 
	C464.981018,103.830009 460.626190,84.222878 444.198639,78.278290 
	C435.145264,75.002182 426.524109,76.820900 419.538147,83.202011 
	C413.449219,88.763756 411.063171,96.231140 412.959839,104.484673 
	C413.920258,108.663979 413.055908,111.540329 409.072052,113.321396 
	C407.104401,114.201073 405.218658,115.284210 403.209015,116.046501 
	C385.771881,122.660767 369.075226,117.860321 352.662323,112.176689 
	C336.172272,106.466324 319.878052,100.232246 302.454742,97.861313 
	C299.076630,97.401619 297.197021,95.806976 295.791473,92.336891 
	C292.190613,83.446930 288.002289,74.775902 283.650757,66.219833 
	C282.223907,63.414314 282.746246,61.942020 284.606384,59.741592 
	C292.286682,50.656353 292.212982,38.787476 284.708160,28.467161 
	C279.578491,21.413059 267.421814,18.592098 257.761139,22.234232 
	C245.027496,27.034901 236.002365,45.629688 249.911285,61.081734 
	C251.814484,63.196091 251.495590,64.309097 250.368378,66.548828 
	C246.345612,74.542007 242.214325,82.543633 239.097900,90.905014 
	C237.370422,95.539879 234.803772,97.142784 230.331879,98.094849 
	C220.117722,100.269417 209.960541,102.795105 199.911453,105.641472 
	C185.559464,109.706627 171.477982,114.828323 156.991028,118.282898 
	C145.672440,120.981934 134.531525,118.431885 124.314957,112.591942 
	C121.837784,111.175949 120.514648,109.545235 120.846214,106.279755 
	C121.226906,102.530380 121.172470,98.542717 120.301590,94.898857 
	C118.175323,86.002304 109.671623,78.999619 100.713898,78.057678 
	C90.575920,76.991638 80.721397,82.184616 76.697998,90.713188 
	C72.292427,100.051880 73.426628,110.993896 80.293770,117.571053 
	C83.654793,120.790138 83.769104,123.700272 82.650436,127.719353 
	C72.496796,164.198639 62.439194,200.704834 52.447369,237.228867 
	C49.471706,248.106079 46.792591,259.064423 43.609715,270.239960 
	C43.384575,270.449371 43.237823,270.703949 42.792263,271.585266 
	C37.553726,276.532349 31.950981,281.151764 27.148003,286.490662 
	C14.930264,300.071808 8.967099,316.322052 8.005602,334.472382 
	C7.295046,347.885651 10.711702,360.543579 14.954253,373.744995 
	C14.026300,377.258972 13.098347,380.772980 11.792013,384.890869 
	C11.586574,386.251770 11.381134,387.612671 11.088241,389.720337 
	C12.828115,396.821014 17.099302,402.347534 22.728935,406.597198 
	C48.272190,425.879211 76.787476,435.384460 109.036736,432.028595 
	C131.655884,429.674896 152.105484,421.608093 170.222717,407.961731 
	C176.084808,403.546295 182.167160,398.879761 184.080490,390.262085 
	C184.012756,388.532074 183.945023,386.802063 183.839249,384.304260 
	C182.861511,380.884735 181.883789,377.465210 181.192886,373.360046 
	C183.453583,365.871124 186.893967,358.515289 187.756439,350.868652 
	C190.476044,326.757385 184.909988,304.305695 170.604584,284.587677 
	C166.063385,278.328247 159.636658,273.436829 153.800568,267.355225 
	C152.879669,266.515778 151.958786,265.676331 150.886536,264.095642 
	C140.054840,224.480743 129.223129,184.865845 118.652596,146.206100 
	C129.657639,147.456558 140.619766,149.870499 151.535400,149.675980 
	C169.090637,149.363129 185.708115,143.773087 202.096893,137.611664 
	C211.481964,134.083313 221.233810,131.530594 231.242111,128.407074 
	C233.897202,142.208542 239.477570,152.690674 251.984711,158.960571 
	C252.013382,160.660233 252.042038,162.359894 252.043091,164.989029 
	C252.028824,231.135849 251.989609,297.282684 252.065430,363.429413 
	C252.069748,367.199066 250.901489,369.672150 248.207001,372.453857 
	C243.679993,377.127319 239.164856,382.267517 236.341583,388.041107 
	C230.520325,399.945526 231.132950,412.924927 232.780746,425.709808 
	C233.949860,434.780670 232.060760,442.256378 223.734390,447.095886 
	C220.150055,449.179199 216.498947,451.192993 212.722214,452.891632 
	C199.690109,458.752930 186.609558,464.508057 173.505814,470.207886 
	C167.200592,472.950500 163.202744,478.048187 161.686462,484.224976 
	C159.686325,492.372803 159.975388,499.870544 170.675003,503.144409 
	C198.428482,511.636322 227.045609,514.156128 255.739502,514.729065 
	C276.104797,515.135681 296.545349,513.369507 316.905853,511.920502 
	C333.333221,510.751373 349.432251,507.428375 365.121460,502.189850 
	C369.492798,500.730286 372.437347,497.824310 372.585632,493.809937 
	C372.755920,489.200134 371.979675,484.142914 370.097778,479.962952 
	C367.002594,473.088074 360.234924,469.950714 353.626953,467.023712 
	C339.953705,460.967163 326.260773,454.953735 312.636292,448.789124 
	C306.060150,445.813690 301.138123,441.075897 300.510590,433.554962 
	C300.130035,428.994293 300.821198,424.312073 301.319611,419.715790 
	C303.239105,402.014404 300.197327,385.808868 286.526428,373.238434 
	C282.928558,369.930206 281.919434,366.580170 281.925781,361.986969 
	C282.016663,296.340027 281.964569,230.692871 281.977234,164.176788 
	C281.993927,162.173203 282.010620,160.169617 282.715881,157.976715 
	C294.752380,152.305466 300.680878,142.290207 302.605743,129.197433 
	C305.349060,129.692627 307.849426,129.857407 310.159180,130.608383 
	C323.108002,134.818451 335.943207,139.387939 348.944794,143.423615 
	C370.047577,149.973846 391.331085,152.995972 412.886475,145.216461 
	C413.694641,144.924789 414.699921,145.179337 416.095276,145.179337 
	C404.654755,186.346619 393.328766,227.101730 381.387146,268.171936 
	C370.435364,275.811188 361.115906,285.038330 355.047852,297.032654 
	C342.293457,322.243408 343.352325,347.935211 352.542572,374.382324 
	C351.765625,377.711304 350.988678,381.040314 349.767059,384.875458 
	C349.601074,386.875824 349.435089,388.876221 349.143188,391.601379 
	C351.524750,395.330688 353.197662,399.874512 356.399872,402.660492 
	C382.144684,425.058807 412.148010,435.056946 446.238312,432.055756 
	C468.909668,430.059845 489.447906,422.061707 507.545624,408.361633 
	C513.779236,403.642731 520.192322,398.475769 522.031921,389.355133 
	C521.976746,388.271210 521.921631,387.187256 521.817444,385.503204 
	C521.435547,385.093903 521.053650,384.684631 520.639404,384.381500 
z"/>
<path fill="#4D889B" opacity="1.000000" stroke="none" 
	d="
M382.002777,267.856873 
	C393.328766,227.101730 404.654755,186.346619 416.095276,145.179337 
	C414.699921,145.179337 413.694641,144.924789 412.886475,145.216461 
	C391.331085,152.995972 370.047577,149.973846 348.944794,143.423615 
	C335.943207,139.387939 323.108002,134.818451 310.159180,130.608383 
	C307.849426,129.857407 305.349060,129.692627 302.605743,129.197433 
	C300.680878,142.290207 294.752380,152.305466 282.016663,158.176819 
	C271.497589,162.489822 261.723358,161.380585 251.967926,158.120453 
	C239.477570,152.690674 233.897202,142.208542 231.242111,128.407074 
	C221.233810,131.530594 211.481964,134.083313 202.096893,137.611664 
	C185.708115,143.773087 169.090637,149.363129 151.535400,149.675980 
	C140.619766,149.870499 129.657639,147.456558 118.652596,146.206100 
	C129.223129,184.865845 140.054840,224.480743 150.681915,264.528015 
	C150.286621,264.967865 150.095947,264.975403 149.694153,264.727234 
	C144.758560,261.829895 140.034119,259.188232 135.239929,256.112061 
	C134.908951,254.377014 134.724060,253.055588 134.375153,251.778992 
	C128.685318,230.960770 122.964394,210.151062 117.272484,189.333420 
	C113.477814,175.454758 109.717796,161.566620 105.811676,147.202469 
	C105.329063,148.031128 105.071899,148.266556 105.071739,148.502167 
	C105.048180,182.635284 105.043259,216.768402 104.781372,251.175262 
	C104.482796,252.926498 104.440376,254.403976 104.332474,256.227478 
	C104.301628,257.037964 104.336281,257.502502 104.292793,258.417816 
	C104.271545,261.911377 104.328445,264.954163 104.305054,268.441895 
	C104.281456,271.592407 104.338150,274.297882 104.311829,277.463074 
	C104.245125,282.629791 104.261421,287.336792 104.232605,292.496826 
	C104.203598,296.564362 104.219696,300.178833 104.207184,304.274109 
	C104.230453,315.095612 104.282349,325.436371 104.270699,336.255554 
	C104.292221,343.616730 104.377296,350.499420 104.387627,357.821289 
	C104.313492,367.280762 104.314095,376.301147 104.240005,385.667969 
	C104.251701,386.954865 104.338089,387.895325 104.327576,389.282562 
	C104.208527,391.902100 104.186371,394.074829 104.128723,396.631744 
	C104.151909,398.296753 104.210594,399.577606 104.195053,401.241577 
	C103.569717,405.035736 101.727394,407.012177 98.117592,406.994263 
	C94.141518,406.974548 92.748184,404.301666 92.044022,400.616516 
	C92.066017,398.987152 92.031998,397.731476 92.059937,395.967468 
	C92.073914,389.909729 92.025925,384.360291 91.991959,378.354187 
	C91.982773,365.816345 91.959541,353.735138 91.997276,341.210358 
	C92.020782,324.177521 91.983330,307.588318 92.029846,290.544983 
	C92.057632,286.393372 92.001457,282.695862 92.027924,278.587280 
	C92.055344,276.783966 92.000114,275.391815 92.026932,273.576599 
	C92.054596,271.434448 92.000214,269.715332 92.028847,267.548889 
	C92.054527,264.071686 91.997208,261.041840 92.021515,257.588623 
	C92.045212,255.445145 91.987289,253.725098 91.947876,251.536407 
	C91.966377,215.632401 91.966377,180.197067 91.966377,144.761719 
	C91.716064,144.720444 91.465752,144.679169 91.215439,144.637909 
	C80.509789,183.452087 69.804138,222.266266 58.934265,261.382690 
	C54.041477,264.642120 49.312916,267.599274 44.432854,270.413513 
	C44.281357,270.270599 43.977604,269.985596 43.977600,269.985596 
	C46.792591,259.064423 49.471706,248.106079 52.447369,237.228867 
	C62.439194,200.704834 72.496796,164.198639 82.650436,127.719353 
	C83.769104,123.700272 83.654793,120.790138 80.293770,117.571053 
	C73.426628,110.993896 72.292427,100.051880 76.697998,90.713188 
	C80.721397,82.184616 90.575920,76.991638 100.713898,78.057678 
	C109.671623,78.999619 118.175323,86.002304 120.301590,94.898857 
	C121.172470,98.542717 121.226906,102.530380 120.846214,106.279755 
	C120.514648,109.545235 121.837784,111.175949 124.314957,112.591942 
	C134.531525,118.431885 145.672440,120.981934 156.991028,118.282898 
	C171.477982,114.828323 185.559464,109.706627 199.911453,105.641472 
	C209.960541,102.795105 220.117722,100.269417 230.331879,98.094849 
	C234.803772,97.142784 237.370422,95.539879 239.097900,90.905014 
	C242.214325,82.543633 246.345612,74.542007 250.368378,66.548828 
	C251.495590,64.309097 251.814484,63.196091 249.911285,61.081734 
	C236.002365,45.629688 245.027496,27.034901 257.761139,22.234232 
	C267.421814,18.592098 279.578491,21.413059 284.708160,28.467161 
	C292.212982,38.787476 292.286682,50.656353 284.606384,59.741592 
	C282.746246,61.942020 282.223907,63.414314 283.650757,66.219833 
	C288.002289,74.775902 292.190613,83.446930 295.791473,92.336891 
	C297.197021,95.806976 299.076630,97.401619 302.454742,97.861313 
	C319.878052,100.232246 336.172272,106.466324 352.662323,112.176689 
	C369.075226,117.860321 385.771881,122.660767 403.209015,116.046501 
	C405.218658,115.284210 407.104401,114.201073 409.072052,113.321396 
	C413.055908,111.540329 413.920258,108.663979 412.959839,104.484673 
	C411.063171,96.231140 413.449219,88.763756 419.538147,83.202011 
	C426.524109,76.820900 435.145264,75.002182 444.198639,78.278290 
	C460.626190,84.222878 464.981018,103.830009 452.780457,117.429207 
	C450.720245,119.725563 450.521332,121.510010 451.184814,123.961433 
	C458.517761,151.055786 465.914185,178.133087 473.186920,205.243546 
	C478.519623,225.122177 483.694366,245.043198 488.610474,265.274567 
	C483.477295,262.749115 478.673218,259.894440 473.848694,256.656128 
	C463.839874,219.075317 453.851501,181.878143 443.863129,144.680984 
	C443.244843,144.735260 442.626587,144.789551 442.008301,144.843842 
	C442.008301,158.279007 441.995331,171.714172 442.011200,185.149323 
	C442.037170,207.117081 442.081940,229.084808 442.047150,251.444366 
	C442.004028,252.890915 442.032501,253.945618 441.982971,255.396790 
	C441.958344,256.864990 442.011749,257.936737 441.985168,259.452271 
	C441.954590,262.596405 442.003998,265.296753 441.972717,268.435974 
	C441.945557,271.249329 441.999023,273.623810 441.970947,276.453186 
	C441.943939,280.605255 441.998474,284.302460 441.974060,288.462646 
	C441.861237,304.347595 441.827454,319.769623 441.697754,335.570465 
	C441.592682,340.532043 441.583527,345.114777 441.512634,350.189026 
	C441.440063,357.175201 441.429260,363.669922 441.315369,370.588867 
	C441.240265,372.187408 441.268311,373.361664 441.248169,374.967834 
	C441.239838,380.704437 441.279694,386.009125 441.241516,391.686340 
	C441.151001,393.084961 441.138489,394.111023 441.099518,395.546448 
	C441.138458,397.590057 441.203857,399.224274 441.195068,401.241425 
	C440.575256,405.054901 438.683014,406.995331 435.096802,406.990784 
	C431.120148,406.985718 429.692688,404.346558 429.043976,400.616455 
	C429.065979,398.987091 429.031952,397.731476 429.059723,395.977966 
	C429.062622,384.378479 429.003693,373.276794 428.996124,361.723694 
	C429.104828,353.157959 429.162231,345.043610 429.266876,336.709137 
	C429.379669,336.176392 429.325195,335.886353 429.267395,335.186859 
	C429.469666,319.177551 429.555206,303.600281 429.728088,287.574036 
	C429.750031,284.080658 429.684662,281.036224 429.697021,277.568512 
	C429.718658,275.429108 429.662567,273.712952 429.689636,271.585754 
	C429.720093,269.782196 429.667389,268.389709 429.698181,266.549377 
	C429.730530,263.065857 429.679382,260.030182 429.698364,256.617432 
	C429.533997,254.796921 429.299469,253.353485 429.047729,251.448715 
	C429.030487,215.919983 429.030487,180.852570 429.030487,146.543488 
	C428.758362,147.354523 428.119812,149.009247 427.645386,150.709778 
	C422.421997,169.433121 417.178131,188.150986 412.032867,206.895874 
	C407.285004,224.193054 402.650330,241.521301 397.662170,259.011047 
	C392.239960,262.076447 387.121368,264.966644 382.002777,267.856873 
M263.975128,110.425400 
	C271.934937,99.705681 272.058258,87.377823 270.360779,75.063148 
	C269.934631,71.971458 266.539581,68.290550 263.551361,66.799339 
	C259.683380,64.869102 256.334900,68.197769 253.931198,71.257011 
	C246.476822,80.744377 241.803329,91.490471 240.345718,103.498314 
	C239.811249,107.901207 240.242676,112.358253 244.411469,115.091820 
	C248.821732,117.983742 253.605743,117.886139 258.144226,115.371414 
	C260.133575,114.269112 261.734100,112.465065 263.975128,110.425400 
M84.622818,107.753937 
	C88.807785,107.927910 89.799698,104.480171 91.783684,101.860580 
	C93.525948,99.560150 95.893494,97.263802 98.491112,96.187927 
	C102.647766,94.466347 106.089699,91.077950 105.521469,87.739151 
	C104.919922,84.204689 100.173187,81.833786 95.447861,82.707596 
	C86.517014,84.359093 79.540588,94.179901 81.215546,103.093765 
	C81.515221,104.688591 82.973404,106.065742 84.622818,107.753937 
M254.909607,30.457312 
	C254.164978,31.344927 253.334839,32.174934 252.691101,33.130508 
	C250.378662,36.563046 250.539337,40.001682 252.944641,43.309944 
	C255.278732,46.520245 258.596832,46.497219 261.946625,45.649841 
	C266.704681,44.446224 272.338562,37.084526 272.459381,32.189285 
	C272.556274,28.262581 269.644470,24.513618 265.815643,25.192596 
	C262.181671,25.837021 258.866028,28.276602 254.909607,30.457312 
M425.556183,101.941376 
	C429.947052,99.191422 434.654633,96.818565 438.583527,93.518608 
	C440.321625,92.058777 441.911926,87.427353 441.070404,86.497643 
	C439.149475,84.375496 435.574432,82.381195 432.874542,82.621124 
	C427.404175,83.107269 423.023376,86.421387 420.469757,91.577827 
	C417.898407,96.770149 419.168060,99.741013 425.556183,101.941376 
z"/>
<path fill="#4C889B" opacity="1.000000" stroke="none" 
	d="
M281.946899,165.045776 
	C281.964569,230.692871 282.016663,296.340027 281.925781,361.986969 
	C281.919434,366.580170 282.928558,369.930206 286.526428,373.238434 
	C300.197327,385.808868 303.239105,402.014404 301.319611,419.715790 
	C300.821198,424.312073 300.130035,428.994293 300.510590,433.554962 
	C301.138123,441.075897 306.060150,445.813690 312.636292,448.789124 
	C326.260773,454.953735 339.953705,460.967163 353.626953,467.023712 
	C360.234924,469.950714 367.002594,473.088074 370.097778,479.962952 
	C371.979675,484.142914 372.755920,489.200134 372.585632,493.809937 
	C372.437347,497.824310 369.492798,500.730286 365.121460,502.189850 
	C349.432251,507.428375 333.333221,510.751373 316.905853,511.920502 
	C296.545349,513.369507 276.104797,515.135681 255.739502,514.729065 
	C227.045609,514.156128 198.428482,511.636322 170.675003,503.144409 
	C159.975388,499.870544 159.686325,492.372803 161.686462,484.224976 
	C163.202744,478.048187 167.200592,472.950500 173.505814,470.207886 
	C186.609558,464.508057 199.690109,458.752930 212.722214,452.891632 
	C216.498947,451.192993 220.150055,449.179199 223.734390,447.095886 
	C232.060760,442.256378 233.949860,434.780670 232.780746,425.709808 
	C231.132950,412.924927 230.520325,399.945526 236.341583,388.041107 
	C239.164856,382.267517 243.679993,377.127319 248.207001,372.453857 
	C250.901489,369.672150 252.069748,367.199066 252.065430,363.429413 
	C251.989609,297.282684 252.028824,231.135849 252.289795,164.752838 
	C257.372589,177.068542 277.294128,176.967773 281.946899,165.045776 
M229.065536,491.465546 
	C245.215530,492.618378 261.317932,492.579559 277.183472,488.858551 
	C280.868622,487.994263 284.490326,486.586365 287.889954,484.916901 
	C289.186859,484.280060 289.778534,482.207153 290.691620,480.788727 
	C289.215240,479.899261 287.794830,478.886871 286.236389,478.177673 
	C285.562012,477.870789 284.601501,478.239441 283.773315,478.216614 
	C273.516235,477.934113 263.075684,478.735443 253.050186,477.058685 
	C240.985443,475.040894 229.307526,470.780273 217.399155,467.737000 
	C206.409241,464.928436 195.555954,464.923370 185.690170,471.449463 
	C183.718475,472.753754 181.486465,475.318726 181.442169,477.347534 
	C181.408081,478.907715 184.445251,480.823181 186.441437,482.053894 
	C188.236694,483.160675 190.425339,483.788116 192.524216,484.217529 
	C204.391068,486.645233 216.283173,488.949646 229.065536,491.465546 
M242.493073,400.743073 
	C243.453323,401.648682 244.302078,402.725983 245.391068,403.433411 
	C256.467529,410.628723 279.219971,403.748596 284.551025,391.702942 
	C286.369781,387.593445 285.216125,384.463837 281.510712,382.447388 
	C279.378235,381.286957 276.789124,380.133942 274.484070,380.273590 
	C266.588440,380.751923 258.588989,381.160187 250.892654,382.818268 
	C243.305008,384.452942 239.708435,392.551544 242.493073,400.743073 
z"/>
<path fill="#81AFC1" opacity="1.000000" stroke="none" 
	d="
M91.987999,400.990234 
	C92.748184,404.301666 94.141518,406.974548 98.117592,406.994263 
	C101.727394,407.012177 103.569717,405.035736 104.638306,401.272217 
	C131.632553,399.797089 158.279495,400.005341 183.731812,390.871552 
	C182.167160,398.879761 176.084808,403.546295 170.222717,407.961731 
	C152.105484,421.608093 131.655884,429.674896 109.036736,432.028595 
	C76.787476,435.384460 48.272190,425.879211 22.728935,406.597198 
	C17.099302,402.347534 12.828115,396.821014 11.405542,389.543884 
	C16.270515,391.248352 20.660818,393.837189 25.392767,394.889069 
	C47.305542,399.760132 69.659447,400.346771 91.987999,400.990234 
M35.129417,404.691254 
	C36.119175,407.014282 36.489113,410.047791 38.201920,411.541962 
	C47.490753,419.645050 58.518314,424.021301 70.798073,424.866180 
	C72.713242,424.997955 74.746254,423.416748 76.724770,422.627625 
	C75.289474,420.996216 74.117996,418.968109 72.370567,417.806030 
	C66.572891,413.950378 60.756649,410.038574 54.578014,406.868469 
	C50.243137,404.644409 45.370327,403.326904 40.599834,402.176361 
	C39.084526,401.810974 37.125206,403.286560 35.129417,404.691254 
z"/>
<path fill="#81AFC1" opacity="1.000000" stroke="none" 
	d="
M428.987976,400.990204 
	C429.692688,404.346558 431.120148,406.985718 435.096802,406.990784 
	C438.683014,406.995331 440.575256,405.054901 441.641357,401.272217 
	C456.383484,400.232239 470.663544,400.119873 484.809387,398.684906 
	C497.420563,397.405579 510.324524,396.482147 521.763306,389.895111 
	C520.192322,398.475769 513.779236,403.642731 507.545624,408.361633 
	C489.447906,422.061707 468.909668,430.059845 446.238312,432.055756 
	C412.148010,435.056946 382.144684,425.058807 356.399872,402.660492 
	C353.197662,399.874512 351.524750,395.330688 349.553802,391.333435 
	C355.520111,392.714081 360.984161,394.842072 366.647980,395.925323 
	C387.227417,399.861267 408.073059,400.951752 428.987976,400.990204 
M399.935455,423.759369 
	C403.057526,424.168640 406.183289,424.897308 409.300262,424.861450 
	C411.035522,424.841522 412.756165,423.548248 414.483368,422.828827 
	C413.334198,421.386810 412.451996,419.541168 410.989044,418.573425 
	C405.041779,414.639313 399.127289,410.558197 392.787750,407.346466 
	C388.000732,404.921204 382.641815,403.524872 377.413635,402.137299 
	C376.025360,401.768829 373.234955,402.711823 372.772827,403.780823 
	C372.122101,405.286072 372.725861,407.592438 373.394928,409.323669 
	C373.889648,410.603607 375.151825,411.895111 376.402618,412.524170 
	C383.924957,416.307098 391.542877,419.900055 399.935455,423.759369 
z"/>
<path fill="#F3A524" opacity="1.000000" stroke="none" 
	d="
M381.694946,268.014404 
	C387.121368,264.966644 392.239960,262.076447 398.030334,259.054504 
	C400.782410,258.253998 402.862732,257.585175 404.834473,257.245911 
	C404.019073,258.238770 403.424500,259.150238 402.588654,259.528503 
	C387.908875,266.172058 375.998413,275.980377 366.348969,289.009766 
	C348.084381,313.672028 345.792511,353.188049 361.632263,379.524750 
	C363.922577,383.332916 365.856659,387.355347 367.554199,391.266632 
	C362.914368,391.255493 360.239807,389.258606 358.968567,385.167084 
	C358.601257,383.984924 357.600800,382.999451 356.842651,381.581177 
	C355.542786,378.757263 354.290924,376.275970 353.039093,373.794678 
	C343.352325,347.935211 342.293457,322.243408 355.047852,297.032654 
	C361.115906,285.038330 370.435364,275.811188 381.694946,268.014404 
z"/>
<path fill="#EC9205" opacity="1.000000" stroke="none" 
	d="
M154.072784,267.919373 
	C159.636658,273.436829 166.063385,278.328247 170.604584,284.587677 
	C184.909988,304.305695 190.476044,326.757385 187.756439,350.868652 
	C186.893967,358.515289 183.453583,365.871124 180.767746,373.866791 
	C178.968964,376.826508 177.595322,379.279480 175.997559,382.028809 
	C173.142746,389.081360 168.258682,392.348450 161.119202,391.589722 
	C162.372437,389.856995 163.649902,388.523712 164.544754,386.970093 
	C169.119949,379.026459 173.596451,371.026001 178.337463,362.769470 
	C187.470398,336.423157 183.389694,312.025482 169.009766,288.643982 
	C168.300171,287.551666 167.672668,286.759521 167.027374,285.973114 
	C167.009552,285.978882 167.047394,285.954712 166.962372,285.619995 
	C165.725845,283.500000 164.698700,281.617828 163.398117,279.948792 
	C160.288513,275.958191 157.050110,272.067932 153.916061,268.082764 
	C153.968399,268.028381 154.072784,267.919373 154.072784,267.919373 
z"/>
<path fill="#F3A524" opacity="1.000000" stroke="none" 
	d="
M15.169004,373.002258 
	C10.711702,360.543579 7.295046,347.885651 8.005602,334.472382 
	C8.967099,316.322052 14.930264,300.071808 27.148003,286.490662 
	C31.950981,281.151764 37.553726,276.532349 43.203239,271.302734 
	C43.614212,271.020172 44.051044,271.113922 44.009338,271.467285 
	C41.035126,275.315430 38.204254,278.901703 35.153950,282.290466 
	C11.824512,308.208862 6.715706,345.470490 22.331596,376.616333 
	C24.780466,381.500641 27.455055,386.271729 29.631294,391.130920 
	C27.190180,390.076172 24.700020,389.395477 23.212509,387.787354 
	C21.506624,385.943146 20.689934,383.276398 19.343082,380.620850 
	C17.855812,377.850555 16.512407,375.426422 15.169004,373.002258 
z"/>
<path fill="#EC9205" opacity="1.000000" stroke="none" 
	d="
M506.038757,281.921539 
	C513.764160,289.954956 518.040283,299.847687 521.110779,310.324371 
	C526.664795,329.274994 527.025391,348.261993 521.018860,367.208435 
	C520.476562,368.919098 519.688232,370.551758 518.657471,372.756866 
	C516.870972,376.213928 515.441284,379.134796 513.747925,382.265686 
	C510.734070,388.820831 506.011108,392.127319 499.137695,391.590576 
	C500.173218,390.088409 500.990234,388.827118 501.951294,387.687286 
	C517.204224,369.597321 522.710327,348.691650 519.989746,325.401733 
	C519.662964,322.603973 519.301758,319.810272 518.940430,316.619690 
	C515.261230,306.469757 511.598114,296.714813 507.934631,286.960022 
	C507.303711,285.280121 506.670776,283.601013 506.038757,281.921539 
z"/>
<path fill="#F4A924" opacity="1.000000" stroke="none" 
	d="
M506.029785,281.951721 
	C506.670776,283.601013 507.303711,285.280121 507.934631,286.960022 
	C511.598114,296.714813 515.261230,306.469757 518.623718,316.486267 
	C517.459412,315.387421 516.279907,314.132874 515.782898,312.649628 
	C512.209534,301.985199 507.185455,292.143494 499.747650,283.632965 
	C484.465912,266.147156 465.291656,256.482025 442.060974,255.000336 
	C442.032501,253.945618 442.004028,252.890915 442.474426,251.427643 
	C444.740662,251.223953 446.534668,251.299118 448.270905,251.655624 
	C456.812042,253.409332 465.337891,255.237717 473.869110,257.039734 
	C478.673218,259.894440 483.477295,262.749115 488.607178,265.666443 
	C493.225098,269.275177 497.517212,272.821320 501.864563,276.907471 
	C503.307709,278.958862 504.695648,280.470276 506.083588,281.981659 
	C506.083588,281.981659 506.020813,281.981934 506.029785,281.951721 
z"/>
<path fill="#A3CCD6" opacity="1.000000" stroke="none" 
	d="
M498.986176,391.887970 
	C506.011108,392.127319 510.734070,388.820831 514.063477,382.424164 
	C516.605835,383.032440 518.569153,383.692322 520.532410,384.352173 
	C520.532410,384.352173 520.639404,384.381500 520.683350,384.614197 
	C521.107056,385.265686 521.486816,385.684509 521.866516,386.103333 
	C521.921631,387.187256 521.976746,388.271210 521.897583,389.625122 
	C510.324524,396.482147 497.420563,397.405579 484.809387,398.684906 
	C470.663544,400.119873 456.383484,400.232239 441.715546,400.889282 
	C441.203857,399.224274 441.138458,397.590057 441.219574,395.533569 
	C441.366089,395.111359 441.607269,395.120178 441.938782,395.433350 
	C448.449036,395.784943 454.627777,395.823364 461.255493,395.895996 
	C466.718384,395.486969 471.732269,395.043732 476.981201,394.654541 
	C477.958984,394.532227 478.701721,394.355896 479.923584,394.240509 
	C485.934143,393.544617 491.465576,392.787781 497.332214,392.066040 
	C498.106995,392.030090 498.546570,391.959015 498.986176,391.887970 
z"/>
<path fill="#A3CCD6" opacity="1.000000" stroke="none" 
	d="
M356.890656,381.923798 
	C357.600800,382.999451 358.601257,383.984924 358.968567,385.167084 
	C360.239807,389.258606 362.914368,391.255493 367.867065,391.464172 
	C370.063354,391.815338 371.545410,391.956970 373.345459,392.281525 
	C375.115356,392.611511 376.567169,392.758545 378.374329,393.037292 
	C380.506775,393.381470 382.283844,393.593933 384.485931,393.887573 
	C390.278046,394.361328 395.645172,394.753845 401.420776,395.236633 
	C410.885498,395.709930 419.941742,396.092865 428.997925,396.475830 
	C429.031952,397.731476 429.065979,398.987091 429.043976,400.616455 
	C408.073059,400.951752 387.227417,399.861267 366.647980,395.925323 
	C360.984161,394.842072 355.520111,392.714081 349.616760,390.971039 
	C349.435089,388.876221 349.601074,386.875824 350.335571,384.521179 
	C352.899628,383.419220 354.895142,382.671509 356.890656,381.923798 
z"/>
<path fill="#A3CCD6" opacity="1.000000" stroke="none" 
	d="
M160.966965,391.887543 
	C168.258682,392.348450 173.142746,389.081360 176.345306,382.107483 
	C179.237213,382.950592 181.557236,384.011322 183.877289,385.072052 
	C183.945023,386.802063 184.012756,388.532074 183.906158,390.566833 
	C158.279495,400.005341 131.632553,399.797089 104.712532,400.889069 
	C104.210594,399.577606 104.151909,398.296753 104.586212,396.651672 
	C113.378563,395.908844 121.677910,395.530273 130.415543,395.199463 
	C132.608490,395.125122 134.363144,395.003082 136.550598,394.919678 
	C137.853973,394.865875 138.724548,394.773468 139.971939,394.700439 
	C145.171036,394.105194 149.993317,393.490601 155.210068,392.897858 
	C157.391998,392.575653 159.179489,392.231598 160.966965,391.887543 
z"/>
<path fill="#A3CCD6" opacity="1.000000" stroke="none" 
	d="
M19.486950,380.967010 
	C20.689934,383.276398 21.506624,385.943146 23.212509,387.787354 
	C24.700020,389.395477 27.190180,390.076172 29.948593,391.313721 
	C32.109116,391.653381 33.558361,391.845978 35.379368,392.200500 
	C40.836922,392.920227 45.922718,393.478058 51.384293,394.206726 
	C55.454323,394.604980 59.148579,394.832489 63.186249,395.207031 
	C65.011124,395.430603 66.492584,395.507141 68.436775,395.673035 
	C76.598991,396.000214 84.298485,396.238007 91.997971,396.475830 
	C92.031998,397.731476 92.066017,398.987152 92.044022,400.616516 
	C69.659447,400.346771 47.305542,399.760132 25.392767,394.889069 
	C20.660818,393.837189 16.270515,391.248352 11.449268,389.170532 
	C11.381134,387.612671 11.586574,386.251770 12.329750,384.487915 
	C15.073976,383.045685 17.280462,382.006348 19.486950,380.967010 
z"/>
<path fill="#345F69" opacity="1.000000" stroke="none" 
	d="
M281.962067,164.611282 
	C277.294128,176.967773 257.372589,177.068542 252.303604,164.288101 
	C252.042038,162.359894 252.013382,160.660233 251.976318,158.540512 
	C261.723358,161.380585 271.497589,162.489822 281.672363,158.271469 
	C282.010620,160.169617 281.993927,162.173203 281.962067,164.611282 
z"/>
<path fill="#4D889B" opacity="1.000000" stroke="none" 
	d="
M19.343082,380.620850 
	C17.280462,382.006348 15.073976,383.045685 12.518941,384.185974 
	C13.098347,380.772980 14.026300,377.258972 15.061628,373.373627 
	C16.512407,375.426422 17.855812,377.850555 19.343082,380.620850 
z"/>
<path fill="#4D889B" opacity="1.000000" stroke="none" 
	d="
M520.659241,383.929138 
	C518.569153,383.692322 516.605835,383.032440 514.327026,382.214111 
	C515.441284,379.134796 516.870972,376.213928 518.598999,373.127136 
	C519.526855,376.476166 520.156433,379.991119 520.659241,383.929138 
z"/>
<path fill="#4D889B" opacity="1.000000" stroke="none" 
	d="
M183.858261,384.688171 
	C181.557236,384.011322 179.237213,382.950592 176.569427,381.811157 
	C177.595322,379.279480 178.968964,376.826508 180.624329,374.209595 
	C181.883789,377.465210 182.861511,380.884735 183.858261,384.688171 
z"/>
<path fill="#4D889B" opacity="1.000000" stroke="none" 
	d="
M356.842651,381.581177 
	C354.895142,382.671509 352.899628,383.419220 350.557922,384.268127 
	C350.988678,381.040314 351.765625,377.711304 352.790833,374.088501 
	C354.290924,376.275970 355.542786,378.757263 356.842651,381.581177 
z"/>
<path fill="#EC9205" opacity="1.000000" stroke="none" 
	d="
M506.036377,281.646545 
	C504.695648,280.470276 503.307709,278.958862 502.021973,277.206848 
	C503.412506,278.414642 504.700836,279.863068 506.036377,281.646545 
z"/>
<path fill="#EC9205" opacity="1.000000" stroke="none" 
	d="
M149.905289,264.982971 
	C150.095947,264.975403 150.286621,264.967865 150.757599,264.898621 
	C151.958786,265.676331 152.879669,266.515778 153.936676,267.637299 
	C154.072784,267.919373 153.968399,268.028381 153.600708,267.982788 
	C152.123764,266.952423 151.014526,265.967712 149.905289,264.982971 
z"/>
<path fill="#4D889B" opacity="1.000000" stroke="none" 
	d="
M521.841980,385.803284 
	C521.486816,385.684509 521.107056,385.265686 520.699524,384.561096 
	C521.053650,384.684631 521.435547,385.093903 521.841980,385.803284 
z"/>
<path fill="#4D889B" opacity="1.000000" stroke="none" 
	d="
M44.051044,271.113922 
	C44.051044,271.113922 43.614212,271.020172 43.391834,271.011963 
	C43.237823,270.703949 43.384575,270.449371 43.793659,270.112793 
	C43.977604,269.985596 44.281357,270.270599 44.307785,270.560791 
	C44.334217,270.850983 44.051044,271.113922 44.051044,271.113922 
z"/>
<path fill="#FCDF30" opacity="1.000000" stroke="none" 
	d="
M91.945877,290.999084 
	C91.983330,307.588318 92.020782,324.177521 91.672852,341.349152 
	C84.209885,346.544983 78.791885,352.653625 74.536568,360.173340 
	C72.071007,361.846161 69.960640,363.475403 67.583084,365.317291 
	C66.536102,368.683136 65.756310,371.836304 64.645691,374.907410 
	C62.079174,372.680786 59.082355,370.924316 57.753086,368.317505 
	C54.034424,361.024902 51.005196,353.380737 47.900429,345.566345 
	C48.593407,344.604340 49.420666,344.005066 49.536888,343.290253 
	C51.398315,331.841400 57.183540,323.865021 68.704216,320.362518 
	C69.925888,319.991089 71.214828,316.629883 70.819588,315.076202 
	C70.442680,313.594635 67.878372,311.667175 66.321648,311.707550 
	C63.529774,311.779968 60.772369,313.180939 58.029495,313.663940 
	C62.012146,302.259247 78.763397,291.234863 91.945877,290.999084 
z"/>
<path fill="#FCDF30" opacity="1.000000" stroke="none" 
	d="
M429.640747,288.022980 
	C429.555206,303.600281 429.469666,319.177551 429.204254,335.457703 
	C428.998535,336.342682 428.972656,336.524872 428.599365,336.866760 
	C420.113922,339.358704 412.937958,343.395935 406.347412,349.157288 
	C403.606232,349.803558 401.256866,350.457581 398.739990,351.253906 
	C398.360840,351.601929 398.165680,351.822266 397.993164,352.018738 
	C397.999298,351.980194 398.076447,351.992126 397.793030,352.186523 
	C395.995728,355.249054 394.481812,358.117218 392.651093,360.863892 
	C390.593506,357.238800 387.839996,353.877838 387.322205,350.201965 
	C386.237549,342.501099 386.330048,334.634399 386.034058,326.509277 
	C390.943573,315.945831 398.631042,310.174286 410.292694,309.790924 
	C411.908905,309.737793 414.671997,306.826111 414.660492,305.254150 
	C414.648163,303.564972 412.254181,301.437531 410.399689,300.367035 
	C409.008545,299.563965 406.826385,300.131165 405.075348,299.747498 
	C406.359009,298.101807 407.321625,296.187439 408.809814,295.596313 
	C415.673370,292.870178 422.683289,290.512665 429.640747,288.022980 
z"/>
<path fill="#F8C42C" opacity="1.000000" stroke="none" 
	d="
M51.008514,394.035889 
	C45.922718,393.478058 40.836922,392.920227 35.349243,391.837341 
	C34.093647,389.729309 33.397438,388.034088 32.361725,386.580841 
	C22.600534,372.884460 17.398569,357.506927 17.124928,340.841675 
	C16.701498,315.053894 26.591362,293.399933 46.108902,276.589966 
	C59.163498,265.346344 74.389648,258.594208 91.939880,258.012024 
	C91.997208,261.041840 92.054527,264.071686 91.610641,267.553589 
	C73.601547,269.655090 58.663502,277.095306 46.929646,289.836945 
	C32.450199,305.559998 25.576488,324.288086 27.892803,346.045135 
	C29.456127,360.729431 34.675953,373.663574 44.290062,384.885925 
	C46.744896,387.751434 48.780365,390.976196 51.008514,394.035889 
z"/>
<path fill="#F8C32B" opacity="1.000000" stroke="none" 
	d="
M161.119202,391.589722 
	C159.179489,392.231598 157.391998,392.575653 155.261597,392.515503 
	C154.903702,389.429443 154.888718,386.747559 154.991852,383.725525 
	C155.981674,380.928619 156.853363,378.471832 158.076996,375.933624 
	C159.697174,374.411591 161.346924,373.161621 162.176239,371.501709 
	C174.129791,347.576965 173.230499,323.786072 159.274811,301.257233 
	C146.842285,281.187317 128.283722,269.839783 104.385353,267.996918 
	C104.328445,264.954163 104.271545,261.911377 104.719170,258.428314 
	C108.030464,258.212158 110.894127,258.153107 113.635307,258.703766 
	C144.823303,264.969116 165.687149,283.442352 176.292068,313.155579 
	C179.958389,323.427979 181.893036,334.304077 180.130127,345.467865 
	C179.210983,351.288391 178.766373,357.183807 178.107437,363.045410 
	C173.596451,371.026001 169.119949,379.026459 164.544754,386.970093 
	C163.649902,388.523712 162.372437,389.856995 161.119202,391.589722 
z"/>
<path fill="#47704C00" opacity="1.000000" stroke="none" 
	d="
M59.098495,261.080444 
	C69.804138,222.266266 80.509789,183.452087 91.215439,144.637909 
	C91.465752,144.679169 91.716064,144.720444 91.966377,144.761719 
	C91.966377,180.197067 91.966377,215.632401 91.520981,251.537933 
	C89.287209,252.221680 87.419273,252.174698 85.723755,252.692413 
	C76.824638,255.409698 67.969147,258.269897 59.098495,261.080444 
z"/>
<path fill="#47704C00" opacity="1.000000" stroke="none" 
	d="
M473.848694,256.656128 
	C465.337891,255.237717 456.812042,253.409332 448.270905,251.655624 
	C446.534668,251.299118 444.740662,251.223953 442.546021,251.035828 
	C442.081940,229.084808 442.037170,207.117081 442.011200,185.149323 
	C441.995331,171.714172 442.008301,158.279007 442.008301,144.843842 
	C442.626587,144.789551 443.244843,144.735260 443.863129,144.680984 
	C453.851501,181.878143 463.839874,219.075317 473.848694,256.656128 
z"/>
<path fill="#47704C00" opacity="1.000000" stroke="none" 
	d="
M404.943024,256.916351 
	C402.862732,257.585175 400.782410,258.253998 398.333954,258.879333 
	C402.650330,241.521301 407.285004,224.193054 412.032867,206.895874 
	C417.178131,188.150986 422.421997,169.433121 427.645386,150.709778 
	C428.119812,149.009247 428.758362,147.354523 429.030487,146.543488 
	C429.030487,180.852570 429.030487,215.919983 429.050171,251.544907 
	C429.069824,252.102432 429.069000,252.295166 428.630310,252.187225 
	C422.459351,253.110336 416.727051,254.141403 410.649597,255.112366 
	C409.495422,255.356430 408.686340,255.660583 407.654175,256.001495 
	C407.431030,256.038269 406.999695,256.174225 406.693878,256.124695 
	C405.897217,256.367706 405.406403,256.660278 404.942139,256.958923 
	C404.968658,256.964996 404.943024,256.916351 404.943024,256.916351 
z"/>
<path fill="#FCDF30" opacity="1.000000" stroke="none" 
	d="
M441.793640,335.191620 
	C441.827454,319.769623 441.861237,304.347595 442.395325,288.462952 
	C447.329681,288.598724 452.370514,287.674225 454.606812,292.918457 
	C453.297272,293.287231 452.386627,293.725830 451.447205,293.800049 
	C446.994324,294.151978 445.872742,297.048737 446.880280,300.622284 
	C447.902679,304.248566 450.857086,303.933075 454.164856,303.573090 
	C458.814178,303.067139 464.023590,302.385040 468.171112,303.953217 
	C473.223022,305.863342 477.421234,310.031219 481.992065,313.616760 
	C482.504578,316.081299 482.990936,318.157440 483.526611,320.220795 
	C486.779724,332.750610 488.590515,345.212280 481.580231,357.081879 
	C472.450195,341.777008 458.611542,335.769806 441.793640,335.191620 
z"/>
<path fill="#F8C32B" opacity="1.000000" stroke="none" 
	d="
M378.019012,392.905579 
	C376.567169,392.758545 375.115356,392.611511 373.310760,391.914093 
	C372.110260,389.777924 371.450867,388.051117 370.385590,386.628143 
	C359.846161,372.550049 354.673645,356.415405 354.287628,339.163116 
	C353.960693,324.552948 357.693359,310.443909 365.199890,297.646454 
	C379.527283,273.220428 400.952118,259.835480 429.182861,256.949371 
	C429.331085,256.966614 429.628235,256.994507 429.628235,256.994507 
	C429.679382,260.030182 429.730530,263.065857 429.278748,266.551147 
	C418.283112,266.935425 408.721985,270.422363 400.025208,275.766144 
	C371.361511,293.378693 358.945007,322.483063 366.242004,355.279999 
	C368.668182,366.184753 372.829620,376.572723 381.922363,384.334473 
	C380.569824,387.423645 379.294434,390.164612 378.019012,392.905579 
z"/>
<path fill="#47704C00" opacity="1.000000" stroke="none" 
	d="
M105.037521,250.901550 
	C105.043259,216.768402 105.048180,182.635284 105.071739,148.502167 
	C105.071899,148.266556 105.329063,148.031128 105.811676,147.202469 
	C109.717796,161.566620 113.477814,175.454758 117.272484,189.333420 
	C122.964394,210.151062 128.685318,230.960770 134.375153,251.778992 
	C134.724060,253.055588 134.908951,254.377014 134.830933,255.901611 
	C124.673645,254.384277 114.855583,252.642914 105.037521,250.901550 
z"/>
<path fill="#F8C52C" opacity="1.000000" stroke="none" 
	d="
M496.997070,392.030945 
	C491.465576,392.787781 485.934143,393.544617 480.099396,393.934448 
	C480.656860,391.980682 481.517609,390.393921 482.775269,388.817871 
	C484.880951,387.939789 487.074646,387.460999 488.225159,386.100250 
	C503.741486,367.748077 510.359161,346.855133 505.176788,322.991089 
	C501.549835,306.289581 492.932251,292.387177 479.302765,282.085419 
	C468.381653,273.830719 456.103394,268.368774 442.053375,267.997101 
	C442.003998,265.296753 441.954590,262.596405 442.419037,259.449982 
	C447.986145,259.930298 453.145966,260.473694 458.075562,261.844757 
	C492.054596,271.295227 514.665527,300.867371 515.830566,337.314056 
	C516.393860,354.933167 510.366913,370.995789 500.076996,385.400513 
	C498.684753,387.349518 498.006134,389.808258 496.997070,392.030945 
z"/>
<path fill="#FBDE30" opacity="1.000000" stroke="none" 
	d="
M104.334251,335.777100 
	C104.282349,325.436371 104.230453,315.095612 104.523010,304.169312 
	C114.298302,297.361450 123.879166,296.608032 133.713272,302.687988 
	C134.662842,303.275055 135.901321,303.394867 137.030975,304.112183 
	C138.064880,306.536591 138.926895,308.669586 140.106567,310.609375 
	C146.516525,321.149750 150.879242,332.136932 147.737946,344.669312 
	C134.798843,333.104584 120.195084,331.344635 104.334251,335.777100 
z"/>
<path fill="#F9CC2D" opacity="1.000000" stroke="none" 
	d="
M441.972717,268.435974 
	C456.103394,268.368774 468.381653,273.830719 479.302765,282.085419 
	C492.932251,292.387177 501.549835,306.289581 505.176788,322.991089 
	C510.359161,346.855133 503.741486,367.748077 488.225159,386.100250 
	C487.074646,387.460999 484.880951,387.939789 482.910553,388.442017 
	C483.721558,382.708069 484.794189,377.360687 486.209351,371.925690 
	C487.645477,370.667755 489.029144,369.659637 489.788361,368.302277 
	C498.598114,352.551239 500.284790,335.995300 494.588470,318.893890 
	C493.405426,315.342102 490.763611,312.276215 488.673767,308.666870 
	C487.364563,306.247803 486.175629,304.148285 484.959534,301.684753 
	C483.286743,298.714142 482.086395,295.639069 479.920105,293.580353 
	C469.315582,283.502533 456.805908,277.267700 442.052521,275.998322 
	C441.999023,273.623810 441.945557,271.249329 441.972717,268.435974 
z"/>
<path fill="#FAD52E" opacity="1.000000" stroke="none" 
	d="
M47.703896,345.875305 
	C51.005196,353.380737 54.034424,361.024902 57.753086,368.317505 
	C59.082355,370.924316 62.079174,372.680786 64.656906,375.285950 
	C65.019646,376.503540 65.040352,377.260498 65.049927,378.447144 
	C64.663483,381.911285 64.288177,384.945770 63.582188,387.896240 
	C61.090710,386.296814 58.688271,385.033234 56.806511,383.227173 
	C38.329678,365.493469 32.818928,339.262329 42.424465,315.356140 
	C50.651634,294.880432 72.100922,279.132538 91.945282,278.998383 
	C92.001457,282.695862 92.057632,286.393372 92.029846,290.544983 
	C78.763397,291.234863 62.012146,302.259247 57.822723,313.930481 
	C49.538082,318.600830 44.922462,325.762115 41.379162,333.496674 
	C37.644722,341.648468 40.298901,346.243011 47.703896,345.875305 
z"/>
<path fill="#80AFC1" opacity="1.000000" stroke="none" 
	d="
M263.743164,110.702530 
	C261.734100,112.465065 260.133575,114.269112 258.144226,115.371414 
	C253.605743,117.886139 248.821732,117.983742 244.411469,115.091820 
	C240.242676,112.358253 239.811249,107.901207 240.345718,103.498314 
	C241.803329,91.490471 246.476822,80.744377 253.931198,71.257011 
	C256.334900,68.197769 259.683380,64.869102 263.551361,66.799339 
	C266.539581,68.290550 269.934631,71.971458 270.360779,75.063148 
	C272.058258,87.377823 271.934937,99.705681 263.743164,110.702530 
z"/>
<path fill="#F9CC2D" opacity="1.000000" stroke="none" 
	d="
M104.305054,268.441895 
	C128.283722,269.839783 146.842285,281.187317 159.274811,301.257233 
	C173.230499,323.786072 174.129791,347.576965 162.176239,371.501709 
	C161.346924,373.161621 159.697174,374.411591 158.068512,375.468536 
	C157.385849,369.760742 157.063599,364.436584 157.048218,358.897461 
	C158.217056,356.757233 159.362335,354.907013 159.894897,352.894592 
	C163.291183,340.061066 161.476944,327.604370 156.951187,315.362549 
	C149.173752,294.325134 125.690002,277.165588 104.394836,277.003387 
	C104.338150,274.297882 104.281456,271.592407 104.305054,268.441895 
z"/>
<path fill="#FDEE74" opacity="1.000000" stroke="none" 
	d="
M398.907501,351.111633 
	C401.256866,350.457581 403.606232,349.803558 406.523712,349.461853 
	C414.534302,357.949188 410.081207,367.201141 408.648956,376.853729 
	C417.598358,373.744019 422.578217,366.990479 428.944794,362.175140 
	C429.003693,373.276794 429.062622,384.378479 429.059753,395.977966 
	C419.941742,396.092865 410.885498,395.709930 401.390320,394.859680 
	C398.158020,388.247314 395.364685,382.102234 392.689453,375.579742 
	C393.893311,371.472656 394.979065,367.742981 396.265198,363.689270 
	C397.002502,359.574219 397.539459,355.783173 398.076447,351.992126 
	C398.076447,351.992126 397.999298,351.980194 398.184631,351.900085 
	C398.597809,351.620789 398.776978,351.384674 398.907501,351.111633 
z"/>
<path fill="#F9CC2D" opacity="1.000000" stroke="none" 
	d="
M51.384293,394.206696 
	C48.780365,390.976196 46.744896,387.751434 44.290062,384.885925 
	C34.675953,373.663574 29.456127,360.729431 27.892803,346.045135 
	C25.576488,324.288086 32.450199,305.559998 46.929646,289.836945 
	C58.663502,277.095306 73.601547,269.655090 91.527634,268.000946 
	C92.000214,269.715332 92.054596,271.434448 91.630249,273.612122 
	C76.564468,276.172089 63.713867,281.999512 53.172459,292.372101 
	C28.020220,317.121582 27.036818,357.615173 51.114117,383.409271 
	C54.380371,386.908447 58.978287,389.164612 62.961174,392.379944 
	C62.922775,393.529022 62.882805,394.294525 62.842834,395.059998 
	C59.148579,394.832489 55.454323,394.604980 51.384293,394.206696 
z"/>
<path fill="#472F0F" opacity="1.000000" stroke="none" 
	d="
M156.741348,359.112457 
	C157.063599,364.436584 157.385849,369.760742 157.716568,375.549957 
	C156.853363,378.471832 155.981674,380.928619 154.679169,383.558472 
	C152.191162,382.809235 150.133957,381.886963 148.128479,380.588135 
	C148.838837,375.385162 149.497467,370.558716 150.092896,365.376373 
	C148.596481,360.094055 144.873856,360.385193 140.876938,360.601318 
	C140.512680,356.360504 140.257751,352.570557 139.926392,348.459930 
	C136.491333,343.642517 133.539429,343.458923 128.450745,347.637115 
	C126.441673,350.236389 124.728523,352.647217 122.935898,354.696045 
	C121.935806,351.933350 121.015182,349.532654 119.882332,346.829712 
	C115.662773,343.658112 112.400688,345.250671 109.866379,348.578888 
	C107.790894,351.304535 106.243729,354.432526 104.462372,357.382141 
	C104.377296,350.499420 104.292221,343.616730 104.270699,336.255554 
	C120.195084,331.344635 134.798843,333.104584 147.886810,344.971680 
	C150.111465,347.662292 151.890274,349.909027 153.756958,352.498535 
	C154.810333,354.931671 155.775848,357.022064 156.741348,359.112457 
z"/>
<path fill="#F9CC2D" opacity="1.000000" stroke="none" 
	d="
M381.999451,383.986237 
	C372.829620,376.572723 368.668182,366.184753 366.242004,355.279999 
	C358.945007,322.483063 371.361511,293.378693 400.025208,275.766144 
	C408.721985,270.422363 418.283112,266.935425 429.195251,266.998993 
	C429.667389,268.389709 429.720093,269.782196 429.303406,271.601379 
	C417.439453,273.616547 406.735626,277.140289 397.491364,284.139954 
	C374.667053,301.422333 366.196716,324.531250 371.345734,352.358215 
	C373.180237,362.272339 376.757599,371.971680 384.814606,379.251434 
	C384.488159,380.006897 384.257080,380.505310 383.883972,381.271484 
	C383.161102,382.354919 382.580261,383.170563 381.999451,383.986237 
z"/>
<path fill="#472F0F" opacity="1.000000" stroke="none" 
	d="
M485.866821,372.013275 
	C484.794189,377.360687 483.721558,382.708069 482.513611,388.431335 
	C481.517609,390.393921 480.656860,391.980682 479.620300,393.873505 
	C478.701721,394.355896 477.958984,394.532227 476.872101,394.315552 
	C475.013275,392.333771 473.498566,390.744934 472.291779,389.479065 
	C473.842682,385.406738 475.489807,381.081787 477.238495,376.383118 
	C477.536194,370.883057 474.505646,369.152130 469.933899,368.622986 
	C470.660400,363.835480 471.422760,359.430176 472.084259,354.668274 
	C469.066895,350.168732 465.497894,350.386383 461.283112,352.849152 
	C458.925079,354.572784 456.890411,356.206177 454.761139,357.397034 
	C454.474731,354.962006 454.282959,352.969513 454.031311,350.624542 
	C450.712006,345.082977 447.850616,344.950378 441.574341,349.697510 
	C441.583527,345.114777 441.592682,340.532043 441.697754,335.570465 
	C458.611542,335.769806 472.450195,341.777008 481.627625,357.438293 
	C483.257935,362.673981 484.562408,367.343628 485.866821,372.013275 
z"/>
<path fill="#F9CE2D" opacity="1.000000" stroke="none" 
	d="
M384.909973,378.994385 
	C376.757599,371.971680 373.180237,362.272339 371.345734,352.358215 
	C366.196716,324.531250 374.667053,301.422333 397.491364,284.139954 
	C406.735626,277.140289 417.439453,273.616547 429.220215,272.012421 
	C429.662567,273.712952 429.718658,275.429108 429.311157,277.582581 
	C417.275391,279.743408 406.578033,283.679077 397.613525,291.344818 
	C391.052704,296.955048 384.547272,302.786560 382.885559,312.341156 
	C379.883453,317.014893 375.501404,320.857574 377.526428,327.189789 
	C376.813873,328.246521 376.193909,329.082245 376.040588,329.996277 
	C373.312317,346.260193 377.578491,360.800873 386.945068,374.375000 
	C386.222473,376.134064 385.566223,377.564240 384.909973,378.994385 
z"/>
<path fill="#F7BB29" opacity="1.000000" stroke="none" 
	d="
M497.332214,392.066040 
	C498.006134,389.808258 498.684753,387.349518 500.076996,385.400513 
	C510.366913,370.995789 516.393860,354.933167 515.830566,337.314056 
	C514.665527,300.867371 492.054596,271.295227 458.075562,261.844757 
	C453.145966,260.473694 447.986145,259.930298 442.499023,259.006195 
	C442.011749,257.936737 441.958344,256.864990 441.982941,255.396790 
	C465.291656,256.482025 484.465912,266.147156 499.747650,283.632965 
	C507.185455,292.143494 512.209534,301.985199 515.782898,312.649628 
	C516.279907,314.132874 517.459412,315.387421 518.639771,316.881256 
	C519.301758,319.810272 519.662964,322.603973 519.989746,325.401733 
	C522.710327,348.691650 517.204224,369.597321 501.951294,387.687286 
	C500.990234,388.827118 500.173218,390.088409 499.137695,391.590576 
	C498.546570,391.959015 498.106995,392.030090 497.332214,392.066040 
z"/>
<path fill="#F4B329" opacity="1.000000" stroke="none" 
	d="
M58.934269,261.382690 
	C67.969147,258.269897 76.824638,255.409698 85.723755,252.692413 
	C87.419273,252.174698 89.287209,252.221680 91.502472,252.006577 
	C91.987289,253.725098 92.045212,255.445145 92.021507,257.588623 
	C74.389648,258.594208 59.163498,265.346344 46.108902,276.589966 
	C26.591362,293.399933 16.701498,315.053894 17.124928,340.841675 
	C17.398569,357.506927 22.600534,372.884460 32.361725,386.580841 
	C33.397438,388.034088 34.093647,389.729309 34.977486,391.675415 
	C33.558361,391.845978 32.109116,391.653381 30.342567,391.277985 
	C27.455055,386.271729 24.780466,381.500641 22.331596,376.616333 
	C6.715706,345.470490 11.824512,308.208862 35.153950,282.290466 
	C38.204254,278.901703 41.035126,275.315430 44.009338,271.467285 
	C44.051044,271.113922 44.334217,270.850983 44.459286,270.703705 
	C49.312916,267.599274 54.041477,264.642120 58.934269,261.382690 
z"/>
<path fill="#F9CE2D" opacity="1.000000" stroke="none" 
	d="
M62.959602,391.996338 
	C58.978287,389.164612 54.380371,386.908447 51.114117,383.409271 
	C27.036818,357.615173 28.020220,317.121582 53.172459,292.372101 
	C63.713867,281.999512 76.564468,276.172089 91.548203,274.035156 
	C92.000114,275.391815 92.055344,276.783966 92.027924,278.587280 
	C72.100922,279.132538 50.651634,294.880432 42.424465,315.356140 
	C32.818928,339.262329 38.329678,365.493469 56.806511,383.227173 
	C58.688271,385.033234 61.090710,386.296814 63.577698,388.244598 
	C63.589119,389.783478 63.274357,390.889893 62.959602,391.996338 
z"/>
<path fill="#F9D22E" opacity="1.000000" stroke="none" 
	d="
M157.048218,358.897461 
	C155.775848,357.022064 154.810333,354.931671 154.075439,352.271606 
	C154.820770,350.876160 155.618240,350.110504 155.808380,349.215820 
	C159.435043,332.149506 154.493164,317.114258 144.645905,303.334808 
	C143.862900,302.239136 142.213821,301.762390 140.987640,300.593994 
	C140.169113,298.203979 139.874969,295.391022 138.377563,294.404572 
	C135.285233,292.367462 131.644073,291.003693 128.063065,289.900513 
	C119.904755,287.387177 112.030670,289.346436 104.277710,292.043823 
	C104.261421,287.336792 104.245125,282.629791 104.311829,277.463074 
	C125.690002,277.165588 149.173752,294.325134 156.951187,315.362549 
	C161.476944,327.604370 163.291183,340.061066 159.894897,352.894592 
	C159.362335,354.907013 158.217056,356.757233 157.048218,358.897461 
z"/>
<path fill="#FDEE74" opacity="1.000000" stroke="none" 
	d="
M129.977264,395.151703 
	C121.677910,395.530273 113.378563,395.908844 104.621719,396.267517 
	C104.186371,394.074829 104.208527,391.902100 104.625031,389.200684 
	C106.422951,387.070343 107.994171,385.585175 109.201729,383.847351 
	C115.188454,375.231659 120.810760,366.414001 123.582848,356.106384 
	C125.817200,358.578278 127.825653,360.888550 129.631256,363.347809 
	C130.964859,365.164185 132.033997,367.174774 133.116226,369.438477 
	C128.372543,377.655792 123.733589,385.533417 119.094635,393.411072 
	C119.446770,393.660919 119.798904,393.910736 120.151047,394.160583 
	C126.080444,390.176941 128.453629,383.154510 133.139191,378.344635 
	C132.183563,384.188782 131.080414,389.670258 129.977264,395.151703 
z"/>
<path fill="#FDEE74" opacity="1.000000" stroke="none" 
	d="
M67.850273,365.104645 
	C69.960640,363.475403 72.071007,361.846161 74.782974,360.399628 
	C84.814896,366.237061 83.163628,376.165192 84.497498,386.551117 
	C87.620636,383.319489 89.799286,381.065186 91.977936,378.810883 
	C92.025925,384.360291 92.073914,389.909729 92.059937,395.967468 
	C84.298485,396.238007 76.598991,396.000214 68.449821,395.271515 
	C68.311394,388.861481 68.622650,382.942383 68.955811,376.590576 
	C68.601906,372.473480 68.226089,368.789062 67.850273,365.104645 
z"/>
<path fill="#472F0F" opacity="1.000000" stroke="none" 
	d="
M428.996124,361.723694 
	C422.578217,366.990479 417.598358,373.744019 408.648956,376.853729 
	C410.081207,367.201141 414.534302,357.949188 406.915527,349.469604 
	C412.937958,343.395935 420.113922,339.358704 428.650391,336.943512 
	C429.048798,336.860535 429.219604,336.929291 429.219604,336.929291 
	C429.162231,345.043610 429.104828,353.157959 428.996124,361.723694 
z"/>
<path fill="#F4B329" opacity="1.000000" stroke="none" 
	d="
M178.337463,362.769470 
	C178.766373,357.183807 179.210983,351.288391 180.130127,345.467865 
	C181.893036,334.304077 179.958389,323.427979 176.292068,313.155579 
	C165.687149,283.442352 144.823303,264.969116 113.635307,258.703766 
	C110.894127,258.153107 108.030464,258.212158 104.797318,257.977509 
	C104.336281,257.502502 104.301628,257.037964 104.551987,255.979401 
	C105.876350,255.012756 106.976364,254.198990 107.946129,254.332352 
	C129.595123,257.309540 148.176147,266.193787 162.699387,282.898499 
	C163.827728,284.196289 165.583328,284.948792 167.047394,285.954712 
	C167.047394,285.954712 167.009552,285.978882 167.050491,286.306824 
	C167.758240,287.404541 168.425064,288.174347 169.091888,288.944122 
	C183.389694,312.025482 187.470398,336.423157 178.337463,362.769470 
z"/>
<path fill="#F2D133" opacity="1.000000" stroke="none" 
	d="
M383.010681,312.026611 
	C384.547272,302.786560 391.052704,296.955048 397.613525,291.344818 
	C406.578033,283.679077 417.275391,279.743408 429.233429,278.005859 
	C429.684662,281.036224 429.750031,284.080658 429.728088,287.574036 
	C422.683289,290.512665 415.673370,292.870178 408.809814,295.596313 
	C407.321625,296.187439 406.359009,298.101807 404.748688,299.940491 
	C395.764282,301.614288 388.946075,306.005341 383.010681,312.026611 
z"/>
<path fill="#472F0F" opacity="1.000000" stroke="none" 
	d="
M91.991966,378.354187 
	C89.799286,381.065186 87.620636,383.319489 84.497498,386.551117 
	C83.163628,376.165192 84.814896,366.237061 75.138168,360.356079 
	C78.791885,352.653625 84.209885,346.544983 91.611893,341.792755 
	C91.959541,353.735138 91.982773,365.816345 91.991966,378.354187 
z"/>
<path fill="#F9D22E" opacity="1.000000" stroke="none" 
	d="
M441.970947,276.453186 
	C456.805908,277.267700 469.315582,283.502533 479.920105,293.580353 
	C482.086395,295.639069 483.286743,298.714142 484.638184,301.563232 
	C475.816528,294.706757 466.150208,291.327606 454.992493,292.820374 
	C452.370514,287.674225 447.329681,288.598724 442.474335,288.000000 
	C441.998474,284.302460 441.943939,280.605255 441.970947,276.453186 
z"/>
<path fill="#FBEC74" opacity="1.000000" stroke="none" 
	d="
M104.387619,357.821289 
	C106.243729,354.432526 107.790894,351.304535 109.866379,348.578888 
	C112.400688,345.250671 115.662773,343.658112 119.893974,347.217377 
	C119.678452,352.259216 120.365280,357.157654 118.572182,360.852661 
	C114.462738,369.321014 109.143028,377.202026 104.314705,385.321503 
	C104.314095,376.301147 104.313492,367.280762 104.387619,357.821289 
z"/>
<path fill="#3B270C" opacity="1.000000" stroke="none" 
	d="
M104.232605,292.496826 
	C112.030670,289.346436 119.904755,287.387177 128.063065,289.900513 
	C131.644073,291.003693 135.285233,292.367462 138.377563,294.404572 
	C139.874969,295.391022 140.169113,298.203979 140.733597,300.761444 
	C139.307983,302.132477 138.156845,302.932037 137.005692,303.731598 
	C135.901321,303.394867 134.662842,303.275055 133.713272,302.687988 
	C123.879166,296.608032 114.298302,297.361450 104.551636,303.688538 
	C104.219696,300.178833 104.203598,296.564362 104.232605,292.496826 
z"/>
<path fill="#80AFC1" opacity="1.000000" stroke="none" 
	d="
M84.259750,107.648666 
	C82.973404,106.065742 81.515221,104.688591 81.215546,103.093765 
	C79.540588,94.179901 86.517014,84.359093 95.447861,82.707596 
	C100.173187,81.833786 104.919922,84.204689 105.521469,87.739151 
	C106.089699,91.077950 102.647766,94.466347 98.491112,96.187927 
	C95.893494,97.263802 93.525948,99.560150 91.783684,101.860580 
	C89.799698,104.480171 88.807785,107.927910 84.259750,107.648666 
z"/>
<path fill="#80AFC1" opacity="1.000000" stroke="none" 
	d="
M255.160004,30.192051 
	C258.866028,28.276602 262.181671,25.837021 265.815643,25.192596 
	C269.644470,24.513618 272.556274,28.262581 272.459381,32.189285 
	C272.338562,37.084526 266.704681,44.446224 261.946625,45.649841 
	C258.596832,46.497219 255.278732,46.520245 252.944641,43.309944 
	C250.539337,40.001682 250.378662,36.563046 252.691101,33.130508 
	C253.334839,32.174934 254.164978,31.344927 255.160004,30.192051 
z"/>
<path fill="#FDEE74" opacity="1.000000" stroke="none" 
	d="
M441.319550,391.313812 
	C441.279694,386.009125 441.239838,380.704437 441.538513,374.777649 
	C446.188934,369.053192 450.500885,363.950836 455.108490,359.074615 
	C457.034393,364.352722 458.664642,369.404694 460.106567,374.722046 
	C453.718719,380.429535 447.519135,385.871674 441.319550,391.313812 
z"/>
<path fill="#80AFC1" opacity="1.000000" stroke="none" 
	d="
M425.167511,101.913239 
	C419.168060,99.741013 417.898407,96.770149 420.469757,91.577827 
	C423.023376,86.421387 427.404175,83.107269 432.874542,82.621124 
	C435.574432,82.381195 439.149475,84.375496 441.070404,86.497643 
	C441.911926,87.427353 440.321625,92.058777 438.583527,93.518608 
	C434.654633,96.818565 429.947052,99.191422 425.167511,101.913239 
z"/>
<path fill="#F3A524" opacity="1.000000" stroke="none" 
	d="
M166.962372,285.619995 
	C165.583328,284.948792 163.827728,284.196289 162.699387,282.898499 
	C148.176147,266.193787 129.595123,257.309540 107.946129,254.332352 
	C106.976364,254.198990 105.876350,255.012756 104.617485,255.633423 
	C104.440376,254.403976 104.482796,252.926498 104.781372,251.175278 
	C114.855583,252.642914 124.673645,254.384277 134.900696,256.336121 
	C140.034119,259.188232 144.758560,261.829895 149.694153,264.727234 
	C151.014526,265.967712 152.123764,266.952423 153.548370,268.037170 
	C157.050110,272.067932 160.288513,275.958191 163.398117,279.948792 
	C164.698700,281.617828 165.725845,283.500000 166.962372,285.619995 
z"/>
<path fill="#FBEC74" opacity="1.000000" stroke="none" 
	d="
M441.512634,350.189026 
	C447.850616,344.950378 450.712006,345.082977 453.883972,350.962708 
	C452.480591,359.702850 447.029816,364.987427 441.418457,370.164612 
	C441.429260,363.669922 441.440063,357.175201 441.512634,350.189026 
z"/>
<path fill="#EB7434" opacity="1.000000" stroke="none" 
	d="
M441.241516,391.686340 
	C447.519135,385.871674 453.718719,380.429535 460.382660,374.522217 
	C463.332489,371.077118 465.817963,368.097168 468.538666,364.870300 
	C469.911011,361.423889 471.048096,358.224396 472.185181,355.024902 
	C471.422760,359.430176 470.660400,363.835480 469.944153,368.582397 
	C469.990265,368.924011 470.072205,368.942566 469.897858,369.069946 
	C469.459564,369.330872 469.246918,369.521606 468.842316,370.001251 
	C467.373657,371.807800 466.148193,373.382599 464.631531,375.117218 
	C456.762665,381.891388 449.184967,388.505798 441.607269,395.120178 
	C441.607269,395.120178 441.366089,395.111359 441.246033,395.124237 
	C441.138489,394.111023 441.151001,393.084961 441.241516,391.686340 
z"/>
<path fill="#EB7434" opacity="1.000000" stroke="none" 
	d="
M104.240005,385.667969 
	C109.143028,377.202026 114.462738,369.321014 118.572182,360.852661 
	C120.365280,357.157654 119.678452,352.259216 120.106201,347.519653 
	C121.015182,349.532654 121.935806,351.933350 123.002457,354.932922 
	C123.148483,355.531799 123.269936,356.008667 123.269936,356.008667 
	C120.810760,366.414001 115.188454,375.231659 109.201729,383.847351 
	C107.994171,385.585175 106.422951,387.070343 104.721939,388.753906 
	C104.338089,387.895325 104.251701,386.954865 104.240005,385.667969 
z"/>
<path fill="#EB7434" opacity="1.000000" stroke="none" 
	d="
M441.315369,370.588867 
	C447.029816,364.987427 452.480591,359.702850 453.943848,351.315216 
	C454.282959,352.969513 454.474731,354.962006 454.793488,357.560974 
	C454.873688,358.392792 454.837830,358.619781 454.812866,358.848511 
	C450.500885,363.950836 446.188934,369.053192 441.586670,374.345703 
	C441.268311,373.361664 441.240265,372.187408 441.315369,370.588867 
z"/>
<path fill="#F2D133" opacity="1.000000" stroke="none" 
	d="
M429.698364,256.617432 
	C429.628235,256.994507 429.331085,256.966614 429.185822,256.565186 
	C429.050049,254.874207 429.059540,253.584686 429.069031,252.295166 
	C429.069000,252.295166 429.069824,252.102432 429.067383,252.006241 
	C429.299469,253.353485 429.533997,254.796921 429.698364,256.617432 
z"/>
<path fill="#F2D133" opacity="1.000000" stroke="none" 
	d="
M429.266846,336.709137 
	C429.219604,336.929291 429.048798,336.860535 428.997803,336.783783 
	C428.972656,336.524872 428.998535,336.342682 429.087524,335.889709 
	C429.325195,335.886353 429.379669,336.176392 429.266846,336.709137 
z"/>
<path fill="#80AFC1" opacity="1.000000" stroke="none" 
	d="
M228.616104,491.380798 
	C216.283173,488.949646 204.391068,486.645233 192.524216,484.217529 
	C190.425339,483.788116 188.236694,483.160675 186.441437,482.053894 
	C184.445251,480.823181 181.408081,478.907715 181.442169,477.347534 
	C181.486465,475.318726 183.718475,472.753754 185.690170,471.449463 
	C195.555954,464.923370 206.409241,464.928436 217.399155,467.737000 
	C229.307526,470.780273 240.985443,475.040894 253.050186,477.058685 
	C263.075684,478.735443 273.516235,477.934113 283.773315,478.216614 
	C284.601501,478.239441 285.562012,477.870789 286.236389,478.177673 
	C287.794830,478.886871 289.215240,479.899261 290.691620,480.788727 
	C289.778534,482.207153 289.186859,484.280060 287.889954,484.916901 
	C284.490326,486.586365 280.868622,487.994263 277.183472,488.858551 
	C261.317932,492.579559 245.215530,492.618378 228.616104,491.380798 
z"/>
<path fill="#80AFC1" opacity="1.000000" stroke="none" 
	d="
M242.295349,400.412659 
	C239.708435,392.551544 243.305008,384.452942 250.892654,382.818268 
	C258.588989,381.160187 266.588440,380.751923 274.484070,380.273590 
	C276.789124,380.133942 279.378235,381.286957 281.510712,382.447388 
	C285.216125,384.463837 286.369781,387.593445 284.551025,391.702942 
	C279.219971,403.748596 256.467529,410.628723 245.391068,403.433411 
	C244.302078,402.725983 243.453323,401.648682 242.295349,400.412659 
z"/>
<path fill="#A3CDD9" opacity="1.000000" stroke="none" 
	d="
M35.249245,404.305481 
	C37.125206,403.286560 39.084526,401.810974 40.599834,402.176361 
	C45.370327,403.326904 50.243137,404.644409 54.578014,406.868469 
	C60.756649,410.038574 66.572891,413.950378 72.370567,417.806030 
	C74.117996,418.968109 75.289474,420.996216 76.724777,422.627625 
	C74.746254,423.416748 72.713242,424.997955 70.798073,424.866180 
	C58.518314,424.021301 47.490753,419.645050 38.201920,411.541962 
	C36.489113,410.047791 36.119175,407.014282 35.249245,404.305481 
z"/>
<path fill="#A3CDD9" opacity="1.000000" stroke="none" 
	d="
M399.532104,423.658020 
	C391.542877,419.900055 383.924957,416.307098 376.402618,412.524170 
	C375.151825,411.895111 373.889648,410.603607 373.394928,409.323669 
	C372.725861,407.592438 372.122101,405.286072 372.772827,403.780823 
	C373.234955,402.711823 376.025360,401.768829 377.413635,402.137299 
	C382.641815,403.524872 388.000732,404.921204 392.787750,407.346466 
	C399.127289,410.558197 405.041779,414.639313 410.989044,418.573425 
	C412.451996,419.541168 413.334198,421.386810 414.483398,422.828796 
	C412.756165,423.548248 411.035522,424.841522 409.300262,424.861450 
	C406.183289,424.897308 403.057526,424.168640 399.532104,423.658020 
z"/>
<path fill="#F4B329" opacity="1.000000" stroke="none" 
	d="
M428.630341,252.187225 
	C429.059540,253.584686 429.050049,254.874207 429.037598,256.547913 
	C400.952118,259.835480 379.527283,273.220428 365.199890,297.646454 
	C357.693359,310.443909 353.960693,324.552948 354.287628,339.163116 
	C354.673645,356.415405 359.846161,372.550049 370.385590,386.628143 
	C371.450867,388.051117 372.110260,389.777924 372.992737,391.731171 
	C371.545410,391.956970 370.063354,391.815338 368.268463,391.476196 
	C365.856659,387.355347 363.922577,383.332916 361.632263,379.524750 
	C345.792511,353.188049 348.084381,313.672028 366.348969,289.009766 
	C375.998413,275.980377 387.908875,266.172058 402.588654,259.528503 
	C403.424500,259.150238 404.019073,258.238770 404.834473,257.245911 
	C404.943024,256.916351 404.968658,256.964996 405.221680,256.919250 
	C405.983063,256.640442 406.491364,256.407318 406.999695,256.174225 
	C406.999695,256.174225 407.431030,256.038269 407.982361,255.993225 
	C409.354034,255.689606 410.174408,255.431015 410.994751,255.172440 
	C416.727051,254.141403 422.459351,253.110336 428.630341,252.187225 
z"/>
<path fill="#F3A524" opacity="1.000000" stroke="none" 
	d="
M169.009766,288.643982 
	C168.425064,288.174347 167.758240,287.404541 167.068298,286.301056 
	C167.672668,286.759521 168.300171,287.551666 169.009766,288.643982 
z"/>
<path fill="#FFE966" opacity="1.000000" stroke="none" 
	d="
M441.938782,395.433350 
	C449.184967,388.505798 456.762665,381.891388 464.941650,375.261414 
	C465.733429,376.758087 466.302826,378.339111 466.043060,379.769653 
	C465.275360,383.998016 464.179871,388.166870 463.036377,392.607971 
	C462.175598,393.858521 461.491028,394.860138 460.806458,395.861755 
	C454.627777,395.823364 448.449036,395.784943 441.938782,395.433350 
z"/>
<path fill="#F09C3F" opacity="1.000000" stroke="none" 
	d="
M461.255493,395.895996 
	C461.491028,394.860138 462.175598,393.858521 463.304504,392.395081 
	C468.211548,386.874481 472.674225,381.815643 477.136902,376.756836 
	C475.489807,381.081787 473.842682,385.406738 472.291779,389.479065 
	C473.498566,390.744934 475.013275,392.333771 476.637054,394.261536 
	C471.732269,395.043732 466.718384,395.486969 461.255493,395.895996 
z"/>
<path fill="#FFE966" opacity="1.000000" stroke="none" 
	d="
M392.571381,375.957123 
	C395.364685,382.102234 398.158020,388.247314 400.981812,394.769379 
	C395.645172,394.753845 390.278046,394.361328 384.574677,393.555115 
	C385.898315,389.444397 387.558228,385.747345 389.422729,381.805695 
	C390.608673,379.693115 391.590027,377.825134 392.571381,375.957123 
z"/>
<path fill="#F3A524" opacity="1.000000" stroke="none" 
	d="
M389.218079,382.050293 
	C387.558228,385.747345 385.898315,389.444397 384.149689,393.473907 
	C382.283844,393.593933 380.506775,393.381470 378.374329,393.037292 
	C379.294434,390.164612 380.569824,387.423645 381.922333,384.334473 
	C382.580261,383.170563 383.161102,382.354919 384.258057,381.298279 
	C386.255493,381.388306 387.736786,381.719299 389.218079,382.050293 
z"/>
<path fill="#FFE966" opacity="1.000000" stroke="none" 
	d="
M130.415543,395.199463 
	C131.080414,389.670258 132.183563,384.188782 133.210007,377.999817 
	C135.455719,372.545074 137.778152,367.797852 140.373138,363.269226 
	C141.363251,365.089874 142.269745,366.636627 142.758072,368.305695 
	C143.703003,371.535522 144.412354,374.834229 145.119690,378.450073 
	C142.052628,384.157532 139.085220,389.519287 136.117813,394.881042 
	C134.363144,395.003082 132.608490,395.125122 130.415543,395.199463 
z"/>
<path fill="#FCE155" opacity="1.000000" stroke="none" 
	d="
M148.076752,380.964661 
	C150.133957,381.886963 152.191162,382.809235 154.561050,383.898590 
	C154.888718,386.747559 154.903702,389.429443 154.867157,392.493652 
	C149.993317,393.490601 145.171036,394.105194 140.091202,394.449829 
	C142.581375,389.774780 145.329071,385.369720 148.076752,380.964661 
z"/>
<path fill="#EB7434" opacity="1.000000" stroke="none" 
	d="
M148.128494,380.588135 
	C145.329071,385.369720 142.581375,389.774780 139.714401,394.430450 
	C138.724548,394.773468 137.853973,394.865875 136.550598,394.919678 
	C139.085220,389.519287 142.052628,384.157532 145.343765,378.187256 
	C147.163696,373.629944 148.659882,369.681122 150.156097,365.732300 
	C149.497467,370.558716 148.838837,375.385162 148.128494,380.588135 
z"/>
<path fill="#F4B329" opacity="1.000000" stroke="none" 
	d="
M68.933914,377.023254 
	C68.622650,382.942383 68.311394,388.861481 67.987091,395.182129 
	C66.492584,395.507141 65.011124,395.430603 63.186249,395.207031 
	C62.882805,394.294525 62.922775,393.529022 62.961170,392.379944 
	C63.274357,390.889893 63.589119,389.783478 63.908371,388.328674 
	C64.288177,384.945770 64.663483,381.911285 65.383591,378.419922 
	C66.796890,377.649780 67.865402,377.336517 68.933914,377.023254 
z"/>
<path fill="#3B270C" opacity="1.000000" stroke="none" 
	d="
M47.900429,345.566345 
	C40.298901,346.243011 37.644722,341.648468 41.379162,333.496674 
	C44.922462,325.762115 49.538082,318.600830 57.793785,314.293213 
	C60.772369,313.180939 63.529774,311.779968 66.321648,311.707550 
	C67.878372,311.667175 70.442680,313.594635 70.819588,315.076202 
	C71.214828,316.629883 69.925888,319.991089 68.704216,320.362518 
	C57.183540,323.865021 51.398315,331.841400 49.536888,343.290253 
	C49.420666,344.005066 48.593407,344.604340 47.900429,345.566345 
z"/>
<path fill="#F7BB29" opacity="1.000000" stroke="none" 
	d="
M68.955818,376.590576 
	C67.865402,377.336517 66.796890,377.649780 65.394722,377.990265 
	C65.040352,377.260498 65.019646,376.503540 64.987732,375.368042 
	C65.756310,371.836304 66.536102,368.683136 67.583084,365.317291 
	C68.226089,368.789062 68.601906,372.473480 68.955818,376.590576 
z"/>
<path fill="#FAD52E" opacity="1.000000" stroke="none" 
	d="
M387.011353,374.046051 
	C377.578491,360.800873 373.312317,346.260193 376.040588,329.996277 
	C376.193909,329.082245 376.813873,328.246521 377.765564,327.513031 
	C380.856018,327.379761 383.397614,327.107788 385.939148,326.835815 
	C386.330048,334.634399 386.237549,342.501099 387.322205,350.201965 
	C387.839996,353.877838 390.593506,357.238800 392.605774,361.181763 
	C392.626984,362.438324 392.376740,363.255554 392.069641,364.435669 
	C390.345673,367.881042 388.678497,370.963531 387.011353,374.046051 
z"/>
<path fill="#3B270C" opacity="1.000000" stroke="none" 
	d="
M386.034058,326.509277 
	C383.397614,327.107788 380.856018,327.379761 378.075317,327.328491 
	C375.501404,320.857574 379.883453,317.014893 382.885559,312.341156 
	C388.946075,306.005341 395.764282,301.614288 404.669739,300.281311 
	C406.826385,300.131165 409.008545,299.563965 410.399689,300.367035 
	C412.254181,301.437531 414.648163,303.564972 414.660492,305.254150 
	C414.671997,306.826111 411.908905,309.737793 410.292694,309.790924 
	C398.631042,310.174286 390.943573,315.945831 386.034058,326.509277 
z"/>
<path fill="#F7BB29" opacity="1.000000" stroke="none" 
	d="
M392.126526,364.072815 
	C392.376740,363.255554 392.626984,362.438324 392.922546,361.303253 
	C394.481812,358.117218 395.995728,355.249054 397.793030,352.186523 
	C397.539459,355.783173 397.002502,359.574219 395.868713,363.687469 
	C394.223419,364.030731 393.174957,364.051758 392.126526,364.072815 
z"/>
<path fill="#F7BB29" opacity="1.000000" stroke="none" 
	d="
M398.739990,351.253906 
	C398.776978,351.384674 398.597809,351.620789 398.178497,351.938629 
	C398.165680,351.822266 398.360840,351.601929 398.739990,351.253906 
z"/>
<path fill="#F3A524" opacity="1.000000" stroke="none" 
	d="
M410.649597,255.112366 
	C410.174408,255.431015 409.354034,255.689606 408.205505,255.956451 
	C408.686340,255.660583 409.495422,255.356430 410.649597,255.112366 
z"/>
<path fill="#F3A524" opacity="1.000000" stroke="none" 
	d="
M406.693878,256.124695 
	C406.491364,256.407318 405.983063,256.640442 405.195160,256.913177 
	C405.406403,256.660278 405.897217,256.367706 406.693878,256.124695 
z"/>
<path fill="#FAD52E" opacity="1.000000" stroke="none" 
	d="
M486.209381,371.925690 
	C484.562408,367.343628 483.257935,362.673981 481.906128,357.647949 
	C488.590515,345.212280 486.779724,332.750610 483.526611,320.220795 
	C482.990936,318.157440 482.504578,316.081299 482.374512,313.581482 
	C484.767090,311.763428 486.780579,310.374939 488.794067,308.986450 
	C490.763611,312.276215 493.405426,315.342102 494.588470,318.893890 
	C500.284790,335.995300 498.598114,352.551239 489.788361,368.302277 
	C489.029144,369.659637 487.645477,370.667755 486.209381,371.925690 
z"/>
<path fill="#3B270C" opacity="1.000000" stroke="none" 
	d="
M488.673767,308.666870 
	C486.780579,310.374939 484.767090,311.763428 482.371155,313.187195 
	C477.421234,310.031219 473.223022,305.863342 468.171112,303.953217 
	C464.023590,302.385040 458.814178,303.067139 454.164856,303.573090 
	C450.857086,303.933075 447.902679,304.248566 446.880280,300.622284 
	C445.872742,297.048737 446.994324,294.151978 451.447205,293.800049 
	C452.386627,293.725830 453.297272,293.287231 454.606812,292.918457 
	C466.150208,291.327606 475.816528,294.706757 484.665375,301.927246 
	C486.175629,304.148285 487.364563,306.247803 488.673767,308.666870 
z"/>
<path fill="#FAD52E" opacity="1.000000" stroke="none" 
	d="
M137.030975,304.112183 
	C138.156845,302.932037 139.307983,302.132477 140.713181,301.165466 
	C142.213821,301.762390 143.862900,302.239136 144.645905,303.334808 
	C154.493164,317.114258 159.435043,332.149506 155.808380,349.215820 
	C155.618240,350.110504 154.820770,350.876160 153.987564,351.928833 
	C151.890274,349.909027 150.111465,347.662292 148.183807,345.113159 
	C150.879242,332.136932 146.516525,321.149750 140.106567,310.609375 
	C138.926895,308.669586 138.064880,306.536591 137.030975,304.112183 
z"/>
<path fill="#F4A924" opacity="1.000000" stroke="none" 
	d="
M392.069672,364.435669 
	C393.174957,364.051758 394.223419,364.030731 395.668335,364.011475 
	C394.979065,367.742981 393.893311,371.472656 392.689453,375.579742 
	C391.590027,377.825134 390.608673,379.693115 389.422699,381.805725 
	C387.736786,381.719299 386.255493,381.388306 384.400085,381.030518 
	C384.257080,380.505310 384.488159,380.006897 384.814606,379.251434 
	C385.566223,377.564240 386.222473,376.134064 386.945068,374.375000 
	C388.678497,370.963531 390.345673,367.881042 392.069672,364.435669 
z"/>
<path fill="#EB7434" opacity="1.000000" stroke="none" 
	d="
M140.100571,363.050598 
	C137.778152,367.797852 135.455719,372.545074 133.062469,377.637146 
	C128.453629,383.154510 126.080444,390.176941 120.151047,394.160583 
	C119.798904,393.910736 119.446770,393.660919 119.094635,393.411072 
	C123.733589,385.533417 128.372543,377.655792 133.350067,369.192078 
	C135.101074,365.403748 136.513504,362.201447 138.113617,358.664032 
	C138.868469,355.146149 139.435654,351.963409 140.002838,348.780640 
	C140.257751,352.570557 140.512680,356.360504 140.884186,360.557495 
	C141.000748,360.964600 141.088684,360.978149 140.835205,361.011536 
	C140.431305,361.339661 140.280914,361.634369 140.109955,362.209137 
	C140.093109,362.676300 140.096832,362.863434 140.100571,363.050598 
z"/>
<path fill="#FFE966" opacity="1.000000" stroke="none" 
	d="
M137.925934,358.999146 
	C136.513504,362.201447 135.101074,365.403748 133.454803,368.852417 
	C132.033997,367.174774 130.964859,365.164185 129.631256,363.347809 
	C127.825653,360.888550 125.817200,358.578278 123.582848,356.106384 
	C123.269936,356.008667 123.148483,355.531799 123.081924,355.294922 
	C124.728523,352.647217 126.441673,350.236389 128.632324,347.964233 
	C132.048523,351.735016 134.987228,355.367065 137.925934,358.999146 
z"/>
<path fill="#FCE155" opacity="1.000000" stroke="none" 
	d="
M138.113617,358.664032 
	C134.987228,355.367065 132.048523,351.735016 128.928223,347.775818 
	C133.539429,343.458923 136.491333,343.642517 139.926392,348.459930 
	C139.435654,351.963409 138.868469,355.146149 138.113617,358.664032 
z"/>
<path fill="#FCE155" opacity="1.000000" stroke="none" 
	d="
M140.373138,363.269226 
	C140.096832,362.863434 140.093109,362.676300 140.340149,362.140900 
	C140.847290,361.576447 141.013214,361.304962 141.088684,360.978149 
	C141.088684,360.978149 141.000748,360.964600 140.993500,361.008423 
	C144.873856,360.385193 148.596481,360.094055 150.092896,365.376373 
	C148.659882,369.681122 147.163696,373.629944 145.443420,377.841583 
	C144.412354,374.834229 143.703003,371.535522 142.758072,368.305695 
	C142.269745,366.636627 141.363251,365.089874 140.373138,363.269226 
z"/>
<path fill="#FCE155" opacity="1.000000" stroke="none" 
	d="
M477.238464,376.383087 
	C472.674225,381.815643 468.211548,386.874481 463.480743,392.146149 
	C464.179871,388.166870 465.275360,383.998016 466.043060,379.769653 
	C466.302826,378.339111 465.733429,376.758087 465.232819,375.101624 
	C466.148193,373.382599 467.373657,371.807800 469.065887,369.951599 
	C469.761139,369.463715 469.940979,369.221161 470.072205,368.942566 
	C470.072205,368.942566 469.990265,368.924011 469.980042,368.964600 
	C474.505646,369.152130 477.536194,370.883057 477.238464,376.383087 
z"/>
<path fill="#FFE966" opacity="1.000000" stroke="none" 
	d="
M455.108521,359.074646 
	C454.837830,358.619781 454.873688,358.392792 454.888092,358.003540 
	C456.890411,356.206177 458.925079,354.572784 461.557587,353.106567 
	C464.204742,357.221558 466.254059,361.169403 468.303406,365.117249 
	C465.817963,368.097168 463.332489,371.077118 460.570984,374.256866 
	C458.664642,369.404694 457.034393,364.352722 455.108521,359.074646 
z"/>
<path fill="#FCE155" opacity="1.000000" stroke="none" 
	d="
M468.538666,364.870300 
	C466.254059,361.169403 464.204742,357.221558 461.880920,353.016296 
	C465.497894,350.386383 469.066895,350.168732 472.084290,354.668274 
	C471.048096,358.224396 469.911011,361.423889 468.538666,364.870300 
z"/>
<path fill="#472F0F" opacity="1.000000" stroke="none" 
	d="
M469.897858,369.069946 
	C469.940979,369.221161 469.761139,369.463715 469.309082,369.719849 
	C469.246918,369.521606 469.459564,369.330872 469.897858,369.069946 
z"/>
<path fill="#472F0F" opacity="1.000000" stroke="none" 
	d="
M140.835205,361.011536 
	C141.013214,361.304962 140.847290,361.576447 140.360718,361.860870 
	C140.280914,361.634369 140.431305,361.339661 140.835205,361.011536 
z"/>
</svg>